G75*
%MOIN*%
%OFA0B0*%
%FSLAX25Y25*%
%IPPOS*%
%LPD*%
%AMOC8*
5,1,8,0,0,1.08239X$1,22.5*
%
%ADD10C,0.00000*%
%ADD11OC8,0.05200*%
%ADD12C,0.05150*%
%ADD13C,0.11220*%
%ADD14C,0.07400*%
%ADD15OC8,0.06200*%
%ADD16C,0.06200*%
%ADD17C,0.04756*%
%ADD18C,0.05200*%
%ADD19C,0.05937*%
%ADD20C,0.01000*%
%ADD21C,0.02578*%
%ADD22C,0.00600*%
D10*
X0005060Y0017235D02*
X0005060Y0214086D01*
X0201910Y0214086D01*
X0201910Y0017235D01*
X0005060Y0017235D01*
X0121241Y0024172D02*
X0121243Y0024260D01*
X0121249Y0024348D01*
X0121259Y0024436D01*
X0121273Y0024524D01*
X0121290Y0024610D01*
X0121312Y0024696D01*
X0121337Y0024780D01*
X0121367Y0024864D01*
X0121399Y0024946D01*
X0121436Y0025026D01*
X0121476Y0025105D01*
X0121520Y0025182D01*
X0121567Y0025257D01*
X0121617Y0025329D01*
X0121671Y0025400D01*
X0121727Y0025467D01*
X0121787Y0025533D01*
X0121849Y0025595D01*
X0121915Y0025655D01*
X0121982Y0025711D01*
X0122053Y0025765D01*
X0122125Y0025815D01*
X0122200Y0025862D01*
X0122277Y0025906D01*
X0122356Y0025946D01*
X0122436Y0025983D01*
X0122518Y0026015D01*
X0122602Y0026045D01*
X0122686Y0026070D01*
X0122772Y0026092D01*
X0122858Y0026109D01*
X0122946Y0026123D01*
X0123034Y0026133D01*
X0123122Y0026139D01*
X0123210Y0026141D01*
X0123298Y0026139D01*
X0123386Y0026133D01*
X0123474Y0026123D01*
X0123562Y0026109D01*
X0123648Y0026092D01*
X0123734Y0026070D01*
X0123818Y0026045D01*
X0123902Y0026015D01*
X0123984Y0025983D01*
X0124064Y0025946D01*
X0124143Y0025906D01*
X0124220Y0025862D01*
X0124295Y0025815D01*
X0124367Y0025765D01*
X0124438Y0025711D01*
X0124505Y0025655D01*
X0124571Y0025595D01*
X0124633Y0025533D01*
X0124693Y0025467D01*
X0124749Y0025400D01*
X0124803Y0025329D01*
X0124853Y0025257D01*
X0124900Y0025182D01*
X0124944Y0025105D01*
X0124984Y0025026D01*
X0125021Y0024946D01*
X0125053Y0024864D01*
X0125083Y0024780D01*
X0125108Y0024696D01*
X0125130Y0024610D01*
X0125147Y0024524D01*
X0125161Y0024436D01*
X0125171Y0024348D01*
X0125177Y0024260D01*
X0125179Y0024172D01*
X0125177Y0024084D01*
X0125171Y0023996D01*
X0125161Y0023908D01*
X0125147Y0023820D01*
X0125130Y0023734D01*
X0125108Y0023648D01*
X0125083Y0023564D01*
X0125053Y0023480D01*
X0125021Y0023398D01*
X0124984Y0023318D01*
X0124944Y0023239D01*
X0124900Y0023162D01*
X0124853Y0023087D01*
X0124803Y0023015D01*
X0124749Y0022944D01*
X0124693Y0022877D01*
X0124633Y0022811D01*
X0124571Y0022749D01*
X0124505Y0022689D01*
X0124438Y0022633D01*
X0124367Y0022579D01*
X0124295Y0022529D01*
X0124220Y0022482D01*
X0124143Y0022438D01*
X0124064Y0022398D01*
X0123984Y0022361D01*
X0123902Y0022329D01*
X0123818Y0022299D01*
X0123734Y0022274D01*
X0123648Y0022252D01*
X0123562Y0022235D01*
X0123474Y0022221D01*
X0123386Y0022211D01*
X0123298Y0022205D01*
X0123210Y0022203D01*
X0123122Y0022205D01*
X0123034Y0022211D01*
X0122946Y0022221D01*
X0122858Y0022235D01*
X0122772Y0022252D01*
X0122686Y0022274D01*
X0122602Y0022299D01*
X0122518Y0022329D01*
X0122436Y0022361D01*
X0122356Y0022398D01*
X0122277Y0022438D01*
X0122200Y0022482D01*
X0122125Y0022529D01*
X0122053Y0022579D01*
X0121982Y0022633D01*
X0121915Y0022689D01*
X0121849Y0022749D01*
X0121787Y0022811D01*
X0121727Y0022877D01*
X0121671Y0022944D01*
X0121617Y0023015D01*
X0121567Y0023087D01*
X0121520Y0023162D01*
X0121476Y0023239D01*
X0121436Y0023318D01*
X0121399Y0023398D01*
X0121367Y0023480D01*
X0121337Y0023564D01*
X0121312Y0023648D01*
X0121290Y0023734D01*
X0121273Y0023820D01*
X0121259Y0023908D01*
X0121249Y0023996D01*
X0121243Y0024084D01*
X0121241Y0024172D01*
X0152737Y0024172D02*
X0152739Y0024260D01*
X0152745Y0024348D01*
X0152755Y0024436D01*
X0152769Y0024524D01*
X0152786Y0024610D01*
X0152808Y0024696D01*
X0152833Y0024780D01*
X0152863Y0024864D01*
X0152895Y0024946D01*
X0152932Y0025026D01*
X0152972Y0025105D01*
X0153016Y0025182D01*
X0153063Y0025257D01*
X0153113Y0025329D01*
X0153167Y0025400D01*
X0153223Y0025467D01*
X0153283Y0025533D01*
X0153345Y0025595D01*
X0153411Y0025655D01*
X0153478Y0025711D01*
X0153549Y0025765D01*
X0153621Y0025815D01*
X0153696Y0025862D01*
X0153773Y0025906D01*
X0153852Y0025946D01*
X0153932Y0025983D01*
X0154014Y0026015D01*
X0154098Y0026045D01*
X0154182Y0026070D01*
X0154268Y0026092D01*
X0154354Y0026109D01*
X0154442Y0026123D01*
X0154530Y0026133D01*
X0154618Y0026139D01*
X0154706Y0026141D01*
X0154794Y0026139D01*
X0154882Y0026133D01*
X0154970Y0026123D01*
X0155058Y0026109D01*
X0155144Y0026092D01*
X0155230Y0026070D01*
X0155314Y0026045D01*
X0155398Y0026015D01*
X0155480Y0025983D01*
X0155560Y0025946D01*
X0155639Y0025906D01*
X0155716Y0025862D01*
X0155791Y0025815D01*
X0155863Y0025765D01*
X0155934Y0025711D01*
X0156001Y0025655D01*
X0156067Y0025595D01*
X0156129Y0025533D01*
X0156189Y0025467D01*
X0156245Y0025400D01*
X0156299Y0025329D01*
X0156349Y0025257D01*
X0156396Y0025182D01*
X0156440Y0025105D01*
X0156480Y0025026D01*
X0156517Y0024946D01*
X0156549Y0024864D01*
X0156579Y0024780D01*
X0156604Y0024696D01*
X0156626Y0024610D01*
X0156643Y0024524D01*
X0156657Y0024436D01*
X0156667Y0024348D01*
X0156673Y0024260D01*
X0156675Y0024172D01*
X0156673Y0024084D01*
X0156667Y0023996D01*
X0156657Y0023908D01*
X0156643Y0023820D01*
X0156626Y0023734D01*
X0156604Y0023648D01*
X0156579Y0023564D01*
X0156549Y0023480D01*
X0156517Y0023398D01*
X0156480Y0023318D01*
X0156440Y0023239D01*
X0156396Y0023162D01*
X0156349Y0023087D01*
X0156299Y0023015D01*
X0156245Y0022944D01*
X0156189Y0022877D01*
X0156129Y0022811D01*
X0156067Y0022749D01*
X0156001Y0022689D01*
X0155934Y0022633D01*
X0155863Y0022579D01*
X0155791Y0022529D01*
X0155716Y0022482D01*
X0155639Y0022438D01*
X0155560Y0022398D01*
X0155480Y0022361D01*
X0155398Y0022329D01*
X0155314Y0022299D01*
X0155230Y0022274D01*
X0155144Y0022252D01*
X0155058Y0022235D01*
X0154970Y0022221D01*
X0154882Y0022211D01*
X0154794Y0022205D01*
X0154706Y0022203D01*
X0154618Y0022205D01*
X0154530Y0022211D01*
X0154442Y0022221D01*
X0154354Y0022235D01*
X0154268Y0022252D01*
X0154182Y0022274D01*
X0154098Y0022299D01*
X0154014Y0022329D01*
X0153932Y0022361D01*
X0153852Y0022398D01*
X0153773Y0022438D01*
X0153696Y0022482D01*
X0153621Y0022529D01*
X0153549Y0022579D01*
X0153478Y0022633D01*
X0153411Y0022689D01*
X0153345Y0022749D01*
X0153283Y0022811D01*
X0153223Y0022877D01*
X0153167Y0022944D01*
X0153113Y0023015D01*
X0153063Y0023087D01*
X0153016Y0023162D01*
X0152972Y0023239D01*
X0152932Y0023318D01*
X0152895Y0023398D01*
X0152863Y0023480D01*
X0152833Y0023564D01*
X0152808Y0023648D01*
X0152786Y0023734D01*
X0152769Y0023820D01*
X0152755Y0023908D01*
X0152745Y0023996D01*
X0152739Y0024084D01*
X0152737Y0024172D01*
D11*
X0109166Y0024156D03*
X0101666Y0029156D03*
X0109166Y0034156D03*
X0078060Y0062538D03*
X0068060Y0062538D03*
X0048391Y0071629D03*
X0036186Y0071794D03*
X0023485Y0063928D03*
X0013485Y0063928D03*
X0036186Y0051794D03*
X0048391Y0051629D03*
X0051741Y0031349D03*
X0041741Y0031349D03*
X0068962Y0033936D03*
X0068962Y0023936D03*
X0024666Y0091841D03*
X0024666Y0111841D03*
X0040729Y0176015D03*
X0040729Y0196015D03*
X0134060Y0182735D03*
X0134060Y0172735D03*
D12*
X0164969Y0047841D03*
X0169694Y0044692D03*
X0164969Y0041542D03*
X0169694Y0038393D03*
X0164969Y0035243D03*
X0146832Y0024172D03*
X0138958Y0024172D03*
X0131084Y0024172D03*
D13*
X0185048Y0027172D03*
X0185048Y0055912D03*
D14*
X0197560Y0082235D03*
X0197560Y0092235D03*
X0197560Y0102235D03*
X0197560Y0112235D03*
X0197560Y0122235D03*
X0197560Y0132235D03*
X0197560Y0142235D03*
X0197560Y0152235D03*
X0050060Y0207235D03*
X0040060Y0207235D03*
X0030060Y0207235D03*
X0020060Y0207235D03*
X0010060Y0207235D03*
X0010060Y0152235D03*
X0010060Y0142235D03*
X0010060Y0132235D03*
X0010060Y0122235D03*
X0010060Y0112235D03*
X0010060Y0102235D03*
X0010060Y0092235D03*
X0010060Y0082235D03*
D15*
X0086619Y0024377D03*
X0143091Y0102432D03*
D16*
X0133091Y0102432D03*
X0086619Y0034377D03*
D17*
X0074627Y0087302D03*
X0074627Y0096908D03*
X0074627Y0106302D03*
D18*
X0088208Y0102826D02*
X0093408Y0102826D01*
X0093408Y0092826D02*
X0088208Y0092826D01*
X0088208Y0082826D02*
X0093408Y0082826D01*
X0093408Y0072826D02*
X0088208Y0072826D01*
X0088208Y0062826D02*
X0093408Y0062826D01*
X0093408Y0052826D02*
X0088208Y0052826D01*
X0118208Y0052826D02*
X0123408Y0052826D01*
X0123408Y0062826D02*
X0118208Y0062826D01*
X0118208Y0072826D02*
X0123408Y0072826D01*
X0123408Y0082826D02*
X0118208Y0082826D01*
X0118208Y0092826D02*
X0123408Y0092826D01*
X0123408Y0102826D02*
X0118208Y0102826D01*
X0118208Y0112826D02*
X0123408Y0112826D01*
X0123408Y0122826D02*
X0118208Y0122826D01*
X0118208Y0132826D02*
X0123408Y0132826D01*
X0123408Y0142826D02*
X0118208Y0142826D01*
X0118208Y0152826D02*
X0123408Y0152826D01*
X0123408Y0162826D02*
X0118208Y0162826D01*
X0118208Y0172826D02*
X0123408Y0172826D01*
X0123408Y0182826D02*
X0118208Y0182826D01*
X0093408Y0182826D02*
X0088208Y0182826D01*
X0088208Y0172826D02*
X0093408Y0172826D01*
X0093408Y0162826D02*
X0088208Y0162826D01*
X0088208Y0152826D02*
X0093408Y0152826D01*
X0093408Y0142826D02*
X0088208Y0142826D01*
X0088208Y0132826D02*
X0093408Y0132826D01*
X0093408Y0122826D02*
X0088208Y0122826D01*
X0088208Y0112826D02*
X0093408Y0112826D01*
D19*
X0018560Y0171393D03*
X0018560Y0191078D03*
X0019847Y0044444D03*
X0019847Y0024759D03*
D20*
X0076060Y0063235D02*
X0078060Y0063235D01*
X0078060Y0062538D01*
X0076060Y0063235D02*
X0047060Y0092235D01*
X0025060Y0092235D01*
X0024666Y0091841D01*
X0024060Y0092235D01*
X0017060Y0092235D01*
X0016060Y0093235D01*
X0011060Y0093235D01*
X0010060Y0092235D01*
X0088060Y0143235D02*
X0042060Y0189235D01*
X0029060Y0189235D01*
X0018060Y0200235D01*
X0016060Y0200235D01*
X0010060Y0206235D01*
X0010060Y0207235D01*
X0020060Y0207235D02*
X0020060Y0206235D01*
X0035060Y0191235D01*
X0050060Y0191235D01*
X0088060Y0153235D01*
X0090060Y0153235D01*
X0090808Y0152826D01*
X0090060Y0143235D02*
X0088060Y0143235D01*
X0090060Y0143235D02*
X0090808Y0142826D01*
X0120808Y0122826D02*
X0121060Y0122235D01*
X0124060Y0122235D01*
X0128060Y0118235D01*
X0136060Y0118235D01*
X0172060Y0082235D01*
X0163060Y0068235D02*
X0197060Y0102235D01*
X0197560Y0102235D01*
X0197560Y0092235D02*
X0195060Y0092235D01*
X0160060Y0057235D01*
X0128060Y0057235D01*
X0124060Y0053235D01*
X0121060Y0053235D01*
X0120808Y0052826D01*
X0126060Y0046235D02*
X0094060Y0046235D01*
X0090060Y0050235D01*
X0090060Y0052235D01*
X0090808Y0052826D01*
X0120808Y0062826D02*
X0121060Y0063235D01*
X0122060Y0063235D01*
X0127060Y0068235D01*
X0163060Y0068235D01*
X0169060Y0054235D02*
X0169694Y0053601D01*
X0169694Y0044692D01*
X0170060Y0045235D01*
X0169060Y0054235D02*
X0134060Y0054235D01*
X0126060Y0046235D01*
D21*
X0172060Y0082235D03*
D22*
X0170522Y0080677D02*
X0126209Y0080677D01*
X0126375Y0080843D02*
X0126908Y0082130D01*
X0126908Y0083522D01*
X0126375Y0084808D01*
X0125391Y0085793D01*
X0124104Y0086326D01*
X0117512Y0086326D01*
X0116225Y0085793D01*
X0115241Y0084808D01*
X0114708Y0083522D01*
X0114708Y0082130D01*
X0115241Y0080843D01*
X0116225Y0079859D01*
X0117512Y0079326D01*
X0124104Y0079326D01*
X0125391Y0079859D01*
X0126375Y0080843D01*
X0126554Y0081276D02*
X0169924Y0081276D01*
X0169871Y0081328D02*
X0171153Y0080046D01*
X0172891Y0080046D01*
X0162480Y0069635D01*
X0126480Y0069635D01*
X0125660Y0068815D01*
X0123171Y0066326D01*
X0117512Y0066326D01*
X0116225Y0065793D01*
X0115241Y0064808D01*
X0114708Y0063522D01*
X0114708Y0062130D01*
X0115241Y0060843D01*
X0116225Y0059859D01*
X0117512Y0059326D01*
X0124104Y0059326D01*
X0125391Y0059859D01*
X0126375Y0060843D01*
X0126908Y0062130D01*
X0126908Y0063522D01*
X0126375Y0064808D01*
X0125994Y0065189D01*
X0127640Y0066835D01*
X0163640Y0066835D01*
X0195086Y0098281D01*
X0196645Y0097635D01*
X0198475Y0097635D01*
X0200166Y0098335D01*
X0200610Y0098780D01*
X0200610Y0095690D01*
X0200166Y0096135D01*
X0198475Y0096835D01*
X0196645Y0096835D01*
X0194954Y0096135D01*
X0193660Y0094841D01*
X0192960Y0093150D01*
X0192960Y0092115D01*
X0159480Y0058635D01*
X0127480Y0058635D01*
X0124858Y0056013D01*
X0124104Y0056326D01*
X0117512Y0056326D01*
X0116225Y0055793D01*
X0115241Y0054808D01*
X0114708Y0053522D01*
X0114708Y0052130D01*
X0115241Y0050843D01*
X0116225Y0049859D01*
X0117512Y0049326D01*
X0124104Y0049326D01*
X0125391Y0049859D01*
X0126375Y0050843D01*
X0126908Y0052130D01*
X0126908Y0053522D01*
X0126738Y0053933D01*
X0128640Y0055835D01*
X0160640Y0055835D01*
X0161460Y0056655D01*
X0194047Y0089243D01*
X0194954Y0088335D01*
X0196645Y0087635D01*
X0198475Y0087635D01*
X0200166Y0088335D01*
X0200610Y0088780D01*
X0200610Y0086199D01*
X0200181Y0086512D01*
X0199479Y0086869D01*
X0198731Y0087112D01*
X0197953Y0087235D01*
X0197860Y0087235D01*
X0197860Y0082535D01*
X0197260Y0082535D01*
X0197260Y0081935D01*
X0197860Y0081935D01*
X0197860Y0077235D01*
X0197953Y0077235D01*
X0198731Y0077358D01*
X0199479Y0077602D01*
X0200181Y0077959D01*
X0200610Y0078271D01*
X0200610Y0018535D01*
X0006360Y0018535D01*
X0006360Y0078864D01*
X0006803Y0078421D01*
X0007439Y0077959D01*
X0008141Y0077602D01*
X0008889Y0077358D01*
X0009666Y0077235D01*
X0009760Y0077235D01*
X0009760Y0081935D01*
X0010360Y0081935D01*
X0010360Y0077235D01*
X0010453Y0077235D01*
X0011231Y0077358D01*
X0011979Y0077602D01*
X0012681Y0077959D01*
X0013317Y0078421D01*
X0013874Y0078978D01*
X0014336Y0079615D01*
X0014694Y0080316D01*
X0014937Y0081064D01*
X0015060Y0081842D01*
X0015060Y0081935D01*
X0010360Y0081935D01*
X0010360Y0082535D01*
X0015060Y0082535D01*
X0015060Y0082629D01*
X0014937Y0083406D01*
X0014694Y0084155D01*
X0014336Y0084856D01*
X0013874Y0085492D01*
X0013317Y0086049D01*
X0012681Y0086512D01*
X0011979Y0086869D01*
X0011231Y0087112D01*
X0010453Y0087235D01*
X0010360Y0087235D01*
X0010360Y0082535D01*
X0009760Y0082535D01*
X0009760Y0087235D01*
X0009666Y0087235D01*
X0008889Y0087112D01*
X0008141Y0086869D01*
X0007439Y0086512D01*
X0006803Y0086049D01*
X0006360Y0085606D01*
X0006360Y0089430D01*
X0007454Y0088335D01*
X0009145Y0087635D01*
X0010975Y0087635D01*
X0012666Y0088335D01*
X0013960Y0089629D01*
X0014660Y0091320D01*
X0014660Y0091835D01*
X0015480Y0091835D01*
X0016480Y0090835D01*
X0021166Y0090835D01*
X0021166Y0090392D01*
X0023217Y0088341D01*
X0026116Y0088341D01*
X0028166Y0090392D01*
X0028166Y0090835D01*
X0046480Y0090835D01*
X0074560Y0062755D01*
X0074560Y0061089D01*
X0076610Y0059038D01*
X0079510Y0059038D01*
X0081560Y0061089D01*
X0081560Y0063988D01*
X0079510Y0066038D01*
X0076610Y0066038D01*
X0075923Y0065352D01*
X0047640Y0093635D01*
X0027822Y0093635D01*
X0026116Y0095341D01*
X0023217Y0095341D01*
X0021510Y0093635D01*
X0017640Y0093635D01*
X0017460Y0093815D01*
X0016640Y0094635D01*
X0014045Y0094635D01*
X0013960Y0094841D01*
X0012666Y0096135D01*
X0010975Y0096835D01*
X0009145Y0096835D01*
X0007454Y0096135D01*
X0006360Y0095041D01*
X0006360Y0099430D01*
X0007454Y0098335D01*
X0009145Y0097635D01*
X0010975Y0097635D01*
X0012666Y0098335D01*
X0013960Y0099629D01*
X0014660Y0101320D01*
X0014660Y0103150D01*
X0013960Y0104841D01*
X0012666Y0106135D01*
X0010975Y0106835D01*
X0009145Y0106835D01*
X0007454Y0106135D01*
X0006360Y0105041D01*
X0006360Y0109430D01*
X0007454Y0108335D01*
X0009145Y0107635D01*
X0010975Y0107635D01*
X0012666Y0108335D01*
X0013960Y0109629D01*
X0014660Y0111320D01*
X0014660Y0113150D01*
X0013960Y0114841D01*
X0012666Y0116135D01*
X0010975Y0116835D01*
X0009145Y0116835D01*
X0007454Y0116135D01*
X0006360Y0115041D01*
X0006360Y0119430D01*
X0007454Y0118335D01*
X0009145Y0117635D01*
X0010975Y0117635D01*
X0012666Y0118335D01*
X0013960Y0119629D01*
X0014660Y0121320D01*
X0014660Y0123150D01*
X0013960Y0124841D01*
X0012666Y0126135D01*
X0010975Y0126835D01*
X0009145Y0126835D01*
X0007454Y0126135D01*
X0006360Y0125041D01*
X0006360Y0129430D01*
X0007454Y0128335D01*
X0009145Y0127635D01*
X0010975Y0127635D01*
X0012666Y0128335D01*
X0013960Y0129629D01*
X0014660Y0131320D01*
X0014660Y0133150D01*
X0013960Y0134841D01*
X0012666Y0136135D01*
X0010975Y0136835D01*
X0009145Y0136835D01*
X0007454Y0136135D01*
X0006360Y0135041D01*
X0006360Y0139430D01*
X0007454Y0138335D01*
X0009145Y0137635D01*
X0010975Y0137635D01*
X0012666Y0138335D01*
X0013960Y0139629D01*
X0014660Y0141320D01*
X0014660Y0143150D01*
X0013960Y0144841D01*
X0012666Y0146135D01*
X0010975Y0146835D01*
X0009145Y0146835D01*
X0007454Y0146135D01*
X0006360Y0145041D01*
X0006360Y0149430D01*
X0007454Y0148335D01*
X0009145Y0147635D01*
X0010975Y0147635D01*
X0012666Y0148335D01*
X0013960Y0149629D01*
X0014660Y0151320D01*
X0014660Y0153150D01*
X0013960Y0154841D01*
X0012666Y0156135D01*
X0010975Y0156835D01*
X0009145Y0156835D01*
X0007454Y0156135D01*
X0006360Y0155041D01*
X0006360Y0204430D01*
X0007454Y0203335D01*
X0009145Y0202635D01*
X0010975Y0202635D01*
X0011474Y0202842D01*
X0015480Y0198835D01*
X0017480Y0198835D01*
X0028480Y0187835D01*
X0041480Y0187835D01*
X0085026Y0144289D01*
X0084708Y0143522D01*
X0084708Y0142130D01*
X0085241Y0140843D01*
X0086225Y0139859D01*
X0087512Y0139326D01*
X0094104Y0139326D01*
X0095391Y0139859D01*
X0096375Y0140843D01*
X0096908Y0142130D01*
X0096908Y0143522D01*
X0096375Y0144808D01*
X0095391Y0145793D01*
X0094104Y0146326D01*
X0087512Y0146326D01*
X0087114Y0146161D01*
X0043460Y0189815D01*
X0043440Y0189835D01*
X0049480Y0189835D01*
X0085026Y0154289D01*
X0084708Y0153522D01*
X0084708Y0152130D01*
X0085241Y0150843D01*
X0086225Y0149859D01*
X0087512Y0149326D01*
X0094104Y0149326D01*
X0095391Y0149859D01*
X0096375Y0150843D01*
X0096908Y0152130D01*
X0096908Y0153522D01*
X0096375Y0154808D01*
X0095391Y0155793D01*
X0094104Y0156326D01*
X0087512Y0156326D01*
X0087114Y0156161D01*
X0051460Y0191815D01*
X0050640Y0192635D01*
X0042299Y0192635D01*
X0044229Y0194565D01*
X0044229Y0197464D01*
X0042179Y0199515D01*
X0039280Y0199515D01*
X0037229Y0197464D01*
X0037229Y0194565D01*
X0039159Y0192635D01*
X0035640Y0192635D01*
X0023803Y0204472D01*
X0023960Y0204629D01*
X0024660Y0206320D01*
X0024660Y0208150D01*
X0023960Y0209841D01*
X0022666Y0211135D01*
X0020975Y0211835D01*
X0019145Y0211835D01*
X0017454Y0211135D01*
X0016160Y0209841D01*
X0015460Y0208150D01*
X0015460Y0206320D01*
X0016160Y0204629D01*
X0017454Y0203335D01*
X0019145Y0202635D01*
X0020975Y0202635D01*
X0021474Y0202842D01*
X0033680Y0190635D01*
X0029640Y0190635D01*
X0019460Y0200815D01*
X0018640Y0201635D01*
X0016640Y0201635D01*
X0013803Y0204472D01*
X0013960Y0204629D01*
X0014660Y0206320D01*
X0014660Y0208150D01*
X0013960Y0209841D01*
X0012666Y0211135D01*
X0010975Y0211835D01*
X0009145Y0211835D01*
X0007454Y0211135D01*
X0006360Y0210041D01*
X0006360Y0212786D01*
X0200610Y0212786D01*
X0200610Y0155690D01*
X0200166Y0156135D01*
X0198475Y0156835D01*
X0196645Y0156835D01*
X0194954Y0156135D01*
X0193660Y0154841D01*
X0192960Y0153150D01*
X0192960Y0151320D01*
X0193660Y0149629D01*
X0194954Y0148335D01*
X0196645Y0147635D01*
X0198475Y0147635D01*
X0200166Y0148335D01*
X0200610Y0148780D01*
X0200610Y0145690D01*
X0200166Y0146135D01*
X0198475Y0146835D01*
X0196645Y0146835D01*
X0194954Y0146135D01*
X0193660Y0144841D01*
X0192960Y0143150D01*
X0192960Y0141320D01*
X0193660Y0139629D01*
X0194954Y0138335D01*
X0196645Y0137635D01*
X0198475Y0137635D01*
X0200166Y0138335D01*
X0200610Y0138780D01*
X0200610Y0135690D01*
X0200166Y0136135D01*
X0198475Y0136835D01*
X0196645Y0136835D01*
X0194954Y0136135D01*
X0193660Y0134841D01*
X0192960Y0133150D01*
X0192960Y0131320D01*
X0193660Y0129629D01*
X0194954Y0128335D01*
X0196645Y0127635D01*
X0198475Y0127635D01*
X0200166Y0128335D01*
X0200610Y0128780D01*
X0200610Y0125690D01*
X0200166Y0126135D01*
X0198475Y0126835D01*
X0196645Y0126835D01*
X0194954Y0126135D01*
X0193660Y0124841D01*
X0192960Y0123150D01*
X0192960Y0121320D01*
X0193660Y0119629D01*
X0194954Y0118335D01*
X0196645Y0117635D01*
X0198475Y0117635D01*
X0200166Y0118335D01*
X0200610Y0118780D01*
X0200610Y0115690D01*
X0200166Y0116135D01*
X0198475Y0116835D01*
X0196645Y0116835D01*
X0194954Y0116135D01*
X0193660Y0114841D01*
X0192960Y0113150D01*
X0192960Y0111320D01*
X0193660Y0109629D01*
X0194954Y0108335D01*
X0196645Y0107635D01*
X0198475Y0107635D01*
X0200166Y0108335D01*
X0200610Y0108780D01*
X0200610Y0105690D01*
X0200166Y0106135D01*
X0198475Y0106835D01*
X0196645Y0106835D01*
X0194954Y0106135D01*
X0193660Y0104841D01*
X0192960Y0103150D01*
X0192960Y0101320D01*
X0193313Y0100468D01*
X0174249Y0081404D01*
X0174249Y0083142D01*
X0172967Y0084424D01*
X0171851Y0084424D01*
X0137460Y0118815D01*
X0137460Y0118815D01*
X0136640Y0119635D01*
X0128640Y0119635D01*
X0126685Y0121590D01*
X0126908Y0122130D01*
X0126908Y0123522D01*
X0126375Y0124808D01*
X0125391Y0125793D01*
X0124104Y0126326D01*
X0117512Y0126326D01*
X0116225Y0125793D01*
X0115241Y0124808D01*
X0114708Y0123522D01*
X0114708Y0122130D01*
X0115241Y0120843D01*
X0116225Y0119859D01*
X0117512Y0119326D01*
X0124104Y0119326D01*
X0124730Y0119585D01*
X0127480Y0116835D01*
X0135480Y0116835D01*
X0169871Y0082444D01*
X0169871Y0081328D01*
X0169871Y0081874D02*
X0126802Y0081874D01*
X0126908Y0082473D02*
X0169842Y0082473D01*
X0169244Y0083071D02*
X0126908Y0083071D01*
X0126847Y0083670D02*
X0168645Y0083670D01*
X0168047Y0084268D02*
X0126599Y0084268D01*
X0126317Y0084867D02*
X0167448Y0084867D01*
X0166850Y0085465D02*
X0125718Y0085465D01*
X0124736Y0086064D02*
X0166251Y0086064D01*
X0165653Y0086662D02*
X0077905Y0086662D01*
X0077905Y0086650D02*
X0077406Y0085445D01*
X0076484Y0084523D01*
X0075279Y0084024D01*
X0073975Y0084024D01*
X0072770Y0084523D01*
X0071848Y0085445D01*
X0071349Y0086650D01*
X0071349Y0087954D01*
X0071848Y0089159D01*
X0072770Y0090081D01*
X0073975Y0090580D01*
X0075279Y0090580D01*
X0076484Y0090081D01*
X0077406Y0089159D01*
X0077905Y0087954D01*
X0077905Y0086650D01*
X0077905Y0087261D02*
X0165054Y0087261D01*
X0164456Y0087860D02*
X0077905Y0087860D01*
X0077696Y0088458D02*
X0163857Y0088458D01*
X0163259Y0089057D02*
X0124450Y0089057D01*
X0124546Y0089076D02*
X0125255Y0089370D01*
X0125894Y0089796D01*
X0126437Y0090340D01*
X0126864Y0090978D01*
X0127158Y0091688D01*
X0127308Y0092442D01*
X0127308Y0092526D01*
X0121108Y0092526D01*
X0121108Y0093126D01*
X0120508Y0093126D01*
X0120508Y0096726D01*
X0117824Y0096726D01*
X0117070Y0096576D01*
X0116361Y0096282D01*
X0115722Y0095855D01*
X0115179Y0095312D01*
X0114752Y0094673D01*
X0114458Y0093963D01*
X0114308Y0093210D01*
X0114308Y0093126D01*
X0120508Y0093126D01*
X0120508Y0092526D01*
X0114308Y0092526D01*
X0114308Y0092442D01*
X0114458Y0091688D01*
X0114752Y0090978D01*
X0115179Y0090340D01*
X0115722Y0089796D01*
X0116361Y0089370D01*
X0117070Y0089076D01*
X0117824Y0088926D01*
X0120508Y0088926D01*
X0120508Y0092526D01*
X0121108Y0092526D01*
X0121108Y0088926D01*
X0123792Y0088926D01*
X0124546Y0089076D01*
X0125683Y0089655D02*
X0162660Y0089655D01*
X0162062Y0090254D02*
X0126351Y0090254D01*
X0126780Y0090852D02*
X0161463Y0090852D01*
X0160865Y0091451D02*
X0127060Y0091451D01*
X0127230Y0092049D02*
X0160266Y0092049D01*
X0159668Y0092648D02*
X0121108Y0092648D01*
X0121108Y0093126D02*
X0127308Y0093126D01*
X0127308Y0093210D01*
X0127158Y0093963D01*
X0126864Y0094673D01*
X0126437Y0095312D01*
X0125894Y0095855D01*
X0125255Y0096282D01*
X0124546Y0096576D01*
X0123792Y0096726D01*
X0121108Y0096726D01*
X0121108Y0093126D01*
X0121108Y0093246D02*
X0120508Y0093246D01*
X0120508Y0092648D02*
X0096908Y0092648D01*
X0096908Y0092130D02*
X0096908Y0093522D01*
X0096375Y0094808D01*
X0095391Y0095793D01*
X0094104Y0096326D01*
X0087512Y0096326D01*
X0086225Y0095793D01*
X0085241Y0094808D01*
X0084708Y0093522D01*
X0084708Y0092130D01*
X0085241Y0090843D01*
X0086225Y0089859D01*
X0087512Y0089326D01*
X0094104Y0089326D01*
X0095391Y0089859D01*
X0096375Y0090843D01*
X0096908Y0092130D01*
X0096875Y0092049D02*
X0114386Y0092049D01*
X0114556Y0091451D02*
X0096627Y0091451D01*
X0096379Y0090852D02*
X0114836Y0090852D01*
X0115265Y0090254D02*
X0095786Y0090254D01*
X0094899Y0089655D02*
X0115933Y0089655D01*
X0117166Y0089057D02*
X0077448Y0089057D01*
X0076910Y0089655D02*
X0086717Y0089655D01*
X0085830Y0090254D02*
X0076067Y0090254D01*
X0073187Y0090254D02*
X0051021Y0090254D01*
X0050423Y0090852D02*
X0085237Y0090852D01*
X0084989Y0091451D02*
X0049824Y0091451D01*
X0049226Y0092049D02*
X0084741Y0092049D01*
X0084708Y0092648D02*
X0048627Y0092648D01*
X0048029Y0093246D02*
X0074186Y0093246D01*
X0074265Y0093230D02*
X0073554Y0093372D01*
X0072885Y0093649D01*
X0072282Y0094052D01*
X0071770Y0094564D01*
X0071368Y0095166D01*
X0071090Y0095836D01*
X0070949Y0096546D01*
X0070949Y0096608D01*
X0074327Y0096608D01*
X0074927Y0096608D01*
X0074927Y0093230D01*
X0074989Y0093230D01*
X0075700Y0093372D01*
X0076369Y0093649D01*
X0076971Y0094052D01*
X0077484Y0094564D01*
X0077886Y0095166D01*
X0078164Y0095836D01*
X0078305Y0096546D01*
X0078305Y0096608D01*
X0074927Y0096608D01*
X0074927Y0097208D01*
X0078305Y0097208D01*
X0078305Y0097271D01*
X0078164Y0097981D01*
X0077886Y0098651D01*
X0077484Y0099253D01*
X0076971Y0099765D01*
X0076369Y0100168D01*
X0075700Y0100445D01*
X0074989Y0100586D01*
X0074927Y0100586D01*
X0074927Y0097208D01*
X0074327Y0097208D01*
X0074327Y0096608D01*
X0074327Y0093230D01*
X0074265Y0093230D01*
X0074327Y0093246D02*
X0074927Y0093246D01*
X0075068Y0093246D02*
X0084708Y0093246D01*
X0084842Y0093845D02*
X0076662Y0093845D01*
X0077363Y0094443D02*
X0085090Y0094443D01*
X0085474Y0095042D02*
X0077803Y0095042D01*
X0078083Y0095640D02*
X0086073Y0095640D01*
X0087302Y0096239D02*
X0078244Y0096239D01*
X0078272Y0097436D02*
X0154880Y0097436D01*
X0155478Y0096837D02*
X0074927Y0096837D01*
X0074927Y0096239D02*
X0074327Y0096239D01*
X0074327Y0096837D02*
X0006360Y0096837D01*
X0006360Y0096239D02*
X0007705Y0096239D01*
X0006960Y0095640D02*
X0006360Y0095640D01*
X0006360Y0095042D02*
X0006361Y0095042D01*
X0006360Y0097436D02*
X0070982Y0097436D01*
X0070949Y0097271D02*
X0070949Y0097208D01*
X0074327Y0097208D01*
X0074327Y0100586D01*
X0074265Y0100586D01*
X0073554Y0100445D01*
X0072885Y0100168D01*
X0072282Y0099765D01*
X0071770Y0099253D01*
X0071368Y0098651D01*
X0071090Y0097981D01*
X0070949Y0097271D01*
X0071112Y0098034D02*
X0011938Y0098034D01*
X0012963Y0098633D02*
X0071360Y0098633D01*
X0071756Y0099231D02*
X0013561Y0099231D01*
X0014043Y0099830D02*
X0072379Y0099830D01*
X0073514Y0100428D02*
X0014291Y0100428D01*
X0014538Y0101027D02*
X0085165Y0101027D01*
X0085241Y0100843D02*
X0086225Y0099859D01*
X0087512Y0099326D01*
X0094104Y0099326D01*
X0095391Y0099859D01*
X0096375Y0100843D01*
X0096908Y0102130D01*
X0096908Y0103522D01*
X0096375Y0104808D01*
X0095391Y0105793D01*
X0094104Y0106326D01*
X0087512Y0106326D01*
X0086225Y0105793D01*
X0085241Y0104808D01*
X0084708Y0103522D01*
X0084708Y0102130D01*
X0085241Y0100843D01*
X0085656Y0100428D02*
X0075740Y0100428D01*
X0074927Y0100428D02*
X0074327Y0100428D01*
X0074327Y0099830D02*
X0074927Y0099830D01*
X0074927Y0099231D02*
X0074327Y0099231D01*
X0074327Y0098633D02*
X0074927Y0098633D01*
X0074927Y0098034D02*
X0074327Y0098034D01*
X0074327Y0097436D02*
X0074927Y0097436D01*
X0074927Y0095640D02*
X0074327Y0095640D01*
X0074327Y0095042D02*
X0074927Y0095042D01*
X0074927Y0094443D02*
X0074327Y0094443D01*
X0074327Y0093845D02*
X0074927Y0093845D01*
X0072592Y0093845D02*
X0027613Y0093845D01*
X0027014Y0094443D02*
X0071891Y0094443D01*
X0071451Y0095042D02*
X0026416Y0095042D01*
X0022917Y0095042D02*
X0013759Y0095042D01*
X0013160Y0095640D02*
X0071171Y0095640D01*
X0071010Y0096239D02*
X0012415Y0096239D01*
X0008182Y0098034D02*
X0006360Y0098034D01*
X0006360Y0098633D02*
X0007157Y0098633D01*
X0006559Y0099231D02*
X0006360Y0099231D01*
X0006360Y0105216D02*
X0006536Y0105216D01*
X0006360Y0105815D02*
X0007134Y0105815D01*
X0006360Y0106413D02*
X0008127Y0106413D01*
X0007760Y0108209D02*
X0006360Y0108209D01*
X0006360Y0108807D02*
X0006982Y0108807D01*
X0006384Y0109406D02*
X0006360Y0109406D01*
X0006360Y0107610D02*
X0071621Y0107610D01*
X0071848Y0108159D02*
X0071349Y0106954D01*
X0071349Y0105650D01*
X0071848Y0104445D01*
X0072770Y0103523D01*
X0073975Y0103024D01*
X0075279Y0103024D01*
X0076484Y0103523D01*
X0077406Y0104445D01*
X0077905Y0105650D01*
X0077905Y0106954D01*
X0077406Y0108159D01*
X0076484Y0109081D01*
X0075279Y0109580D01*
X0073975Y0109580D01*
X0072770Y0109081D01*
X0071848Y0108159D01*
X0071898Y0108209D02*
X0012360Y0108209D01*
X0013138Y0108807D02*
X0022751Y0108807D01*
X0023217Y0108341D02*
X0026116Y0108341D01*
X0028166Y0110392D01*
X0028166Y0113291D01*
X0026116Y0115341D01*
X0023217Y0115341D01*
X0021166Y0113291D01*
X0021166Y0110392D01*
X0023217Y0108341D01*
X0022152Y0109406D02*
X0013736Y0109406D01*
X0014115Y0110004D02*
X0021554Y0110004D01*
X0021166Y0110603D02*
X0014363Y0110603D01*
X0014611Y0111201D02*
X0021166Y0111201D01*
X0021166Y0111800D02*
X0014660Y0111800D01*
X0014660Y0112398D02*
X0021166Y0112398D01*
X0021166Y0112997D02*
X0014660Y0112997D01*
X0014476Y0113596D02*
X0021471Y0113596D01*
X0022069Y0114194D02*
X0014228Y0114194D01*
X0013980Y0114793D02*
X0022668Y0114793D01*
X0026665Y0114793D02*
X0084832Y0114793D01*
X0084752Y0114673D02*
X0084458Y0113963D01*
X0084308Y0113210D01*
X0084308Y0113126D01*
X0090508Y0113126D01*
X0090508Y0116726D01*
X0087824Y0116726D01*
X0087070Y0116576D01*
X0086361Y0116282D01*
X0085722Y0115855D01*
X0085179Y0115312D01*
X0084752Y0114673D01*
X0084553Y0114194D02*
X0027263Y0114194D01*
X0027862Y0113596D02*
X0084385Y0113596D01*
X0084308Y0112526D02*
X0084308Y0112442D01*
X0084458Y0111688D01*
X0084752Y0110978D01*
X0085179Y0110340D01*
X0085722Y0109796D01*
X0086361Y0109370D01*
X0087070Y0109076D01*
X0087824Y0108926D01*
X0090508Y0108926D01*
X0090508Y0112526D01*
X0084308Y0112526D01*
X0084317Y0112398D02*
X0028166Y0112398D01*
X0028166Y0111800D02*
X0084436Y0111800D01*
X0084659Y0111201D02*
X0028166Y0111201D01*
X0028166Y0110603D02*
X0085003Y0110603D01*
X0085514Y0110004D02*
X0027779Y0110004D01*
X0027180Y0109406D02*
X0073555Y0109406D01*
X0072497Y0108807D02*
X0026582Y0108807D01*
X0028166Y0112997D02*
X0090508Y0112997D01*
X0090508Y0113126D02*
X0090508Y0112526D01*
X0091108Y0112526D01*
X0091108Y0113126D01*
X0090508Y0113126D01*
X0090508Y0113596D02*
X0091108Y0113596D01*
X0091108Y0113126D02*
X0091108Y0116726D01*
X0093792Y0116726D01*
X0094546Y0116576D01*
X0095255Y0116282D01*
X0095894Y0115855D01*
X0096437Y0115312D01*
X0096864Y0114673D01*
X0097158Y0113963D01*
X0097308Y0113210D01*
X0097308Y0113126D01*
X0091108Y0113126D01*
X0091108Y0112997D02*
X0114708Y0112997D01*
X0114708Y0113522D02*
X0114708Y0112130D01*
X0115241Y0110843D01*
X0116225Y0109859D01*
X0117512Y0109326D01*
X0124104Y0109326D01*
X0125391Y0109859D01*
X0126375Y0110843D01*
X0126908Y0112130D01*
X0126908Y0113522D01*
X0126375Y0114808D01*
X0125391Y0115793D01*
X0124104Y0116326D01*
X0117512Y0116326D01*
X0116225Y0115793D01*
X0115241Y0114808D01*
X0114708Y0113522D01*
X0114739Y0113596D02*
X0097231Y0113596D01*
X0097063Y0114194D02*
X0114986Y0114194D01*
X0115234Y0114793D02*
X0096784Y0114793D01*
X0096358Y0115391D02*
X0115824Y0115391D01*
X0116700Y0115990D02*
X0095693Y0115990D01*
X0094484Y0116588D02*
X0135727Y0116588D01*
X0136326Y0115990D02*
X0124916Y0115990D01*
X0125792Y0115391D02*
X0136924Y0115391D01*
X0137523Y0114793D02*
X0126382Y0114793D01*
X0126630Y0114194D02*
X0138121Y0114194D01*
X0138720Y0113596D02*
X0126878Y0113596D01*
X0126908Y0112997D02*
X0139318Y0112997D01*
X0139917Y0112398D02*
X0126908Y0112398D01*
X0126771Y0111800D02*
X0140515Y0111800D01*
X0141114Y0111201D02*
X0126524Y0111201D01*
X0126135Y0110603D02*
X0141712Y0110603D01*
X0142311Y0110004D02*
X0125536Y0110004D01*
X0124298Y0109406D02*
X0142909Y0109406D01*
X0143508Y0108807D02*
X0076757Y0108807D01*
X0077356Y0108209D02*
X0144106Y0108209D01*
X0144705Y0107610D02*
X0077633Y0107610D01*
X0077881Y0107012D02*
X0145303Y0107012D01*
X0144914Y0106832D02*
X0143391Y0106832D01*
X0143391Y0102732D01*
X0142791Y0102732D01*
X0142791Y0102132D01*
X0138691Y0102132D01*
X0138691Y0100609D01*
X0141269Y0098032D01*
X0142791Y0098032D01*
X0142791Y0102132D01*
X0143391Y0102132D01*
X0143391Y0098032D01*
X0144914Y0098032D01*
X0147491Y0100609D01*
X0147491Y0102132D01*
X0143392Y0102132D01*
X0143392Y0102732D01*
X0147491Y0102732D01*
X0147491Y0104255D01*
X0144914Y0106832D01*
X0145333Y0106413D02*
X0145902Y0106413D01*
X0145931Y0105815D02*
X0146500Y0105815D01*
X0146530Y0105216D02*
X0147099Y0105216D01*
X0147128Y0104618D02*
X0147697Y0104618D01*
X0147491Y0104019D02*
X0148296Y0104019D01*
X0148894Y0103421D02*
X0147491Y0103421D01*
X0147491Y0102822D02*
X0149493Y0102822D01*
X0150091Y0102224D02*
X0143392Y0102224D01*
X0143391Y0102822D02*
X0142791Y0102822D01*
X0142791Y0102732D02*
X0142791Y0106832D01*
X0141269Y0106832D01*
X0138691Y0104255D01*
X0138691Y0102732D01*
X0142791Y0102732D01*
X0142791Y0102224D02*
X0137091Y0102224D01*
X0137091Y0101636D02*
X0136483Y0100166D01*
X0135357Y0099041D01*
X0133887Y0098432D01*
X0132296Y0098432D01*
X0130826Y0099041D01*
X0129700Y0100166D01*
X0129091Y0101636D01*
X0129091Y0103228D01*
X0129700Y0104698D01*
X0130826Y0105823D01*
X0132296Y0106432D01*
X0133887Y0106432D01*
X0135357Y0105823D01*
X0136483Y0104698D01*
X0137091Y0103228D01*
X0137091Y0101636D01*
X0137087Y0101625D02*
X0138691Y0101625D01*
X0138691Y0101027D02*
X0136839Y0101027D01*
X0136591Y0100428D02*
X0138873Y0100428D01*
X0139471Y0099830D02*
X0136146Y0099830D01*
X0135548Y0099231D02*
X0140070Y0099231D01*
X0140668Y0098633D02*
X0134372Y0098633D01*
X0131811Y0098633D02*
X0077894Y0098633D01*
X0078142Y0098034D02*
X0141267Y0098034D01*
X0142791Y0098034D02*
X0143391Y0098034D01*
X0143391Y0098633D02*
X0142791Y0098633D01*
X0142791Y0099231D02*
X0143391Y0099231D01*
X0143391Y0099830D02*
X0142791Y0099830D01*
X0142791Y0100428D02*
X0143391Y0100428D01*
X0143391Y0101027D02*
X0142791Y0101027D01*
X0142791Y0101625D02*
X0143391Y0101625D01*
X0143391Y0103421D02*
X0142791Y0103421D01*
X0142791Y0104019D02*
X0143391Y0104019D01*
X0143391Y0104618D02*
X0142791Y0104618D01*
X0142791Y0105216D02*
X0143391Y0105216D01*
X0143391Y0105815D02*
X0142791Y0105815D01*
X0142791Y0106413D02*
X0143391Y0106413D01*
X0140850Y0106413D02*
X0133932Y0106413D01*
X0135366Y0105815D02*
X0140252Y0105815D01*
X0139653Y0105216D02*
X0135964Y0105216D01*
X0136516Y0104618D02*
X0139055Y0104618D01*
X0138691Y0104019D02*
X0136764Y0104019D01*
X0137011Y0103421D02*
X0138691Y0103421D01*
X0138691Y0102822D02*
X0137091Y0102822D01*
X0132251Y0106413D02*
X0077905Y0106413D01*
X0077905Y0105815D02*
X0086278Y0105815D01*
X0085649Y0105216D02*
X0077725Y0105216D01*
X0077477Y0104618D02*
X0085162Y0104618D01*
X0084914Y0104019D02*
X0076980Y0104019D01*
X0076237Y0103421D02*
X0084708Y0103421D01*
X0084708Y0102822D02*
X0014660Y0102822D01*
X0014660Y0102224D02*
X0084708Y0102224D01*
X0084917Y0101625D02*
X0014660Y0101625D01*
X0014548Y0103421D02*
X0073017Y0103421D01*
X0072274Y0104019D02*
X0014300Y0104019D01*
X0014052Y0104618D02*
X0071777Y0104618D01*
X0071529Y0105216D02*
X0013584Y0105216D01*
X0012986Y0105815D02*
X0071349Y0105815D01*
X0071349Y0106413D02*
X0011993Y0106413D01*
X0006360Y0107012D02*
X0071373Y0107012D01*
X0075699Y0109406D02*
X0086306Y0109406D01*
X0090508Y0109406D02*
X0091108Y0109406D01*
X0091108Y0108926D02*
X0093792Y0108926D01*
X0094546Y0109076D01*
X0095255Y0109370D01*
X0095894Y0109796D01*
X0096437Y0110340D01*
X0096864Y0110978D01*
X0097158Y0111688D01*
X0097308Y0112442D01*
X0097308Y0112526D01*
X0091108Y0112526D01*
X0091108Y0108926D01*
X0091108Y0110004D02*
X0090508Y0110004D01*
X0090508Y0110603D02*
X0091108Y0110603D01*
X0091108Y0111201D02*
X0090508Y0111201D01*
X0090508Y0111800D02*
X0091108Y0111800D01*
X0091108Y0112398D02*
X0090508Y0112398D01*
X0090508Y0114194D02*
X0091108Y0114194D01*
X0091108Y0114793D02*
X0090508Y0114793D01*
X0090508Y0115391D02*
X0091108Y0115391D01*
X0091108Y0115990D02*
X0090508Y0115990D01*
X0090508Y0116588D02*
X0091108Y0116588D01*
X0087132Y0116588D02*
X0011572Y0116588D01*
X0011337Y0117785D02*
X0126530Y0117785D01*
X0125932Y0118384D02*
X0012714Y0118384D01*
X0013312Y0118982D02*
X0125333Y0118982D01*
X0124735Y0119581D02*
X0124720Y0119581D01*
X0126899Y0121376D02*
X0192960Y0121376D01*
X0192960Y0121975D02*
X0126844Y0121975D01*
X0126908Y0122573D02*
X0192960Y0122573D01*
X0192969Y0123172D02*
X0126908Y0123172D01*
X0126805Y0123770D02*
X0193217Y0123770D01*
X0193465Y0124369D02*
X0126557Y0124369D01*
X0126216Y0124967D02*
X0193787Y0124967D01*
X0194385Y0125566D02*
X0125618Y0125566D01*
X0124494Y0126164D02*
X0195025Y0126164D01*
X0196470Y0126763D02*
X0011150Y0126763D01*
X0011759Y0127960D02*
X0195861Y0127960D01*
X0194731Y0128558D02*
X0012888Y0128558D01*
X0013487Y0129157D02*
X0194133Y0129157D01*
X0193608Y0129755D02*
X0125141Y0129755D01*
X0125391Y0129859D02*
X0126375Y0130843D01*
X0126908Y0132130D01*
X0126908Y0133522D01*
X0126375Y0134808D01*
X0125391Y0135793D01*
X0124104Y0136326D01*
X0117512Y0136326D01*
X0116225Y0135793D01*
X0115241Y0134808D01*
X0114708Y0133522D01*
X0114708Y0132130D01*
X0115241Y0130843D01*
X0116225Y0129859D01*
X0117512Y0129326D01*
X0124104Y0129326D01*
X0125391Y0129859D01*
X0125886Y0130354D02*
X0193360Y0130354D01*
X0193112Y0130952D02*
X0126420Y0130952D01*
X0126668Y0131551D02*
X0192960Y0131551D01*
X0192960Y0132149D02*
X0126908Y0132149D01*
X0126908Y0132748D02*
X0192960Y0132748D01*
X0193041Y0133346D02*
X0126908Y0133346D01*
X0126733Y0133945D02*
X0193289Y0133945D01*
X0193537Y0134543D02*
X0126485Y0134543D01*
X0126042Y0135142D02*
X0193961Y0135142D01*
X0194560Y0135740D02*
X0125443Y0135740D01*
X0124104Y0139326D02*
X0125391Y0139859D01*
X0126375Y0140843D01*
X0126908Y0142130D01*
X0126908Y0143522D01*
X0126375Y0144808D01*
X0125391Y0145793D01*
X0124104Y0146326D01*
X0117512Y0146326D01*
X0116225Y0145793D01*
X0115241Y0144808D01*
X0114708Y0143522D01*
X0114708Y0142130D01*
X0115241Y0140843D01*
X0116225Y0139859D01*
X0117512Y0139326D01*
X0124104Y0139326D01*
X0124118Y0139331D02*
X0193958Y0139331D01*
X0193536Y0139930D02*
X0125462Y0139930D01*
X0126061Y0140529D02*
X0193288Y0140529D01*
X0193040Y0141127D02*
X0126493Y0141127D01*
X0126741Y0141726D02*
X0192960Y0141726D01*
X0192960Y0142324D02*
X0126908Y0142324D01*
X0126908Y0142923D02*
X0192960Y0142923D01*
X0193114Y0143521D02*
X0126908Y0143521D01*
X0126660Y0144120D02*
X0193362Y0144120D01*
X0193609Y0144718D02*
X0126413Y0144718D01*
X0125867Y0145317D02*
X0194136Y0145317D01*
X0194735Y0145915D02*
X0125096Y0145915D01*
X0124104Y0149326D02*
X0125391Y0149859D01*
X0126375Y0150843D01*
X0126908Y0152130D01*
X0126908Y0153522D01*
X0126375Y0154808D01*
X0125391Y0155793D01*
X0124104Y0156326D01*
X0117512Y0156326D01*
X0116225Y0155793D01*
X0115241Y0154808D01*
X0114708Y0153522D01*
X0114708Y0152130D01*
X0115241Y0150843D01*
X0116225Y0149859D01*
X0117512Y0149326D01*
X0124104Y0149326D01*
X0124540Y0149506D02*
X0193784Y0149506D01*
X0193463Y0150105D02*
X0125637Y0150105D01*
X0126235Y0150703D02*
X0193216Y0150703D01*
X0192968Y0151302D02*
X0126565Y0151302D01*
X0126813Y0151900D02*
X0192960Y0151900D01*
X0192960Y0152499D02*
X0126908Y0152499D01*
X0126908Y0153097D02*
X0192960Y0153097D01*
X0193186Y0153696D02*
X0126836Y0153696D01*
X0126588Y0154294D02*
X0193434Y0154294D01*
X0193712Y0154893D02*
X0126291Y0154893D01*
X0125692Y0155491D02*
X0194311Y0155491D01*
X0194909Y0156090D02*
X0124674Y0156090D01*
X0124104Y0159326D02*
X0125391Y0159859D01*
X0126375Y0160843D01*
X0126908Y0162130D01*
X0126908Y0163522D01*
X0126375Y0164808D01*
X0125391Y0165793D01*
X0124104Y0166326D01*
X0117512Y0166326D01*
X0116225Y0165793D01*
X0115241Y0164808D01*
X0114708Y0163522D01*
X0114708Y0162130D01*
X0115241Y0160843D01*
X0116225Y0159859D01*
X0117512Y0159326D01*
X0124104Y0159326D01*
X0124962Y0159681D02*
X0200610Y0159681D01*
X0200610Y0160279D02*
X0125811Y0160279D01*
X0126390Y0160878D02*
X0200610Y0160878D01*
X0200610Y0161476D02*
X0126637Y0161476D01*
X0126885Y0162075D02*
X0200610Y0162075D01*
X0200610Y0162673D02*
X0126908Y0162673D01*
X0126908Y0163272D02*
X0200610Y0163272D01*
X0200610Y0163870D02*
X0126764Y0163870D01*
X0126516Y0164469D02*
X0200610Y0164469D01*
X0200610Y0165067D02*
X0126116Y0165067D01*
X0125517Y0165666D02*
X0200610Y0165666D01*
X0200610Y0166265D02*
X0124252Y0166265D01*
X0123792Y0168926D02*
X0121108Y0168926D01*
X0121108Y0172526D01*
X0121108Y0173126D01*
X0120508Y0173126D01*
X0120508Y0176726D01*
X0117824Y0176726D01*
X0117070Y0176576D01*
X0116361Y0176282D01*
X0115722Y0175855D01*
X0115179Y0175312D01*
X0114752Y0174673D01*
X0114458Y0173963D01*
X0114308Y0173210D01*
X0114308Y0173126D01*
X0120508Y0173126D01*
X0120508Y0172526D01*
X0114308Y0172526D01*
X0114308Y0172442D01*
X0114458Y0171688D01*
X0114752Y0170978D01*
X0115179Y0170340D01*
X0115722Y0169796D01*
X0116361Y0169370D01*
X0117070Y0169076D01*
X0117824Y0168926D01*
X0120508Y0168926D01*
X0120508Y0172526D01*
X0121108Y0172526D01*
X0127308Y0172526D01*
X0127308Y0172442D01*
X0127158Y0171688D01*
X0126864Y0170978D01*
X0126437Y0170340D01*
X0125894Y0169796D01*
X0125255Y0169370D01*
X0124546Y0169076D01*
X0123792Y0168926D01*
X0124984Y0169257D02*
X0132023Y0169257D01*
X0132445Y0168835D02*
X0130160Y0171120D01*
X0130160Y0172435D01*
X0133760Y0172435D01*
X0134360Y0172435D01*
X0134360Y0168835D01*
X0135675Y0168835D01*
X0137960Y0171120D01*
X0137960Y0172435D01*
X0134360Y0172435D01*
X0134360Y0173035D01*
X0137960Y0173035D01*
X0137960Y0174351D01*
X0135675Y0176635D01*
X0134360Y0176635D01*
X0134360Y0173035D01*
X0133760Y0173035D01*
X0133760Y0172435D01*
X0133760Y0168835D01*
X0132445Y0168835D01*
X0133760Y0169257D02*
X0134360Y0169257D01*
X0134360Y0169856D02*
X0133760Y0169856D01*
X0133760Y0170454D02*
X0134360Y0170454D01*
X0134360Y0171053D02*
X0133760Y0171053D01*
X0133760Y0171651D02*
X0134360Y0171651D01*
X0134360Y0172250D02*
X0133760Y0172250D01*
X0133760Y0172848D02*
X0121108Y0172848D01*
X0121108Y0173126D02*
X0127308Y0173126D01*
X0127308Y0173210D01*
X0127158Y0173963D01*
X0126864Y0174673D01*
X0126437Y0175312D01*
X0125894Y0175855D01*
X0125255Y0176282D01*
X0124546Y0176576D01*
X0123792Y0176726D01*
X0121108Y0176726D01*
X0121108Y0173126D01*
X0121108Y0173447D02*
X0120508Y0173447D01*
X0120508Y0174045D02*
X0121108Y0174045D01*
X0121108Y0174644D02*
X0120508Y0174644D01*
X0120508Y0175242D02*
X0121108Y0175242D01*
X0121108Y0175841D02*
X0120508Y0175841D01*
X0120508Y0176439D02*
X0121108Y0176439D01*
X0120508Y0172848D02*
X0096908Y0172848D01*
X0096908Y0172250D02*
X0114346Y0172250D01*
X0114473Y0171651D02*
X0096710Y0171651D01*
X0096908Y0172130D02*
X0096908Y0173522D01*
X0096375Y0174808D01*
X0095391Y0175793D01*
X0094104Y0176326D01*
X0087512Y0176326D01*
X0086225Y0175793D01*
X0085241Y0174808D01*
X0084708Y0173522D01*
X0084708Y0172130D01*
X0085241Y0170843D01*
X0086225Y0169859D01*
X0087512Y0169326D01*
X0094104Y0169326D01*
X0095391Y0169859D01*
X0096375Y0170843D01*
X0096908Y0172130D01*
X0096462Y0171053D02*
X0114721Y0171053D01*
X0115102Y0170454D02*
X0095986Y0170454D01*
X0095383Y0169856D02*
X0115663Y0169856D01*
X0116632Y0169257D02*
X0074018Y0169257D01*
X0074617Y0168659D02*
X0200610Y0168659D01*
X0200610Y0169257D02*
X0136097Y0169257D01*
X0136696Y0169856D02*
X0200610Y0169856D01*
X0200610Y0170454D02*
X0137294Y0170454D01*
X0137893Y0171053D02*
X0200610Y0171053D01*
X0200610Y0171651D02*
X0137960Y0171651D01*
X0137960Y0172250D02*
X0200610Y0172250D01*
X0200610Y0172848D02*
X0134360Y0172848D01*
X0134360Y0173447D02*
X0133760Y0173447D01*
X0133760Y0173035D02*
X0133760Y0176635D01*
X0132445Y0176635D01*
X0130160Y0174351D01*
X0130160Y0173035D01*
X0133760Y0173035D01*
X0133760Y0174045D02*
X0134360Y0174045D01*
X0134360Y0174644D02*
X0133760Y0174644D01*
X0133760Y0175242D02*
X0134360Y0175242D01*
X0134360Y0175841D02*
X0133760Y0175841D01*
X0133760Y0176439D02*
X0134360Y0176439D01*
X0135871Y0176439D02*
X0200610Y0176439D01*
X0200610Y0175841D02*
X0136470Y0175841D01*
X0137068Y0175242D02*
X0200610Y0175242D01*
X0200610Y0174644D02*
X0137667Y0174644D01*
X0137960Y0174045D02*
X0200610Y0174045D01*
X0200610Y0173447D02*
X0137960Y0173447D01*
X0135510Y0179235D02*
X0132610Y0179235D01*
X0130560Y0181285D01*
X0130560Y0184185D01*
X0132610Y0186235D01*
X0135510Y0186235D01*
X0137560Y0184185D01*
X0137560Y0181285D01*
X0135510Y0179235D01*
X0135706Y0179432D02*
X0200610Y0179432D01*
X0200610Y0180030D02*
X0136305Y0180030D01*
X0136903Y0180629D02*
X0200610Y0180629D01*
X0200610Y0181227D02*
X0137502Y0181227D01*
X0137560Y0181826D02*
X0200610Y0181826D01*
X0200610Y0182424D02*
X0137560Y0182424D01*
X0137560Y0183023D02*
X0200610Y0183023D01*
X0200610Y0183621D02*
X0137560Y0183621D01*
X0137525Y0184220D02*
X0200610Y0184220D01*
X0200610Y0184818D02*
X0136927Y0184818D01*
X0136328Y0185417D02*
X0200610Y0185417D01*
X0200610Y0186015D02*
X0135730Y0186015D01*
X0132390Y0186015D02*
X0124853Y0186015D01*
X0125391Y0185793D02*
X0124104Y0186326D01*
X0117512Y0186326D01*
X0116225Y0185793D01*
X0115241Y0184808D01*
X0114708Y0183522D01*
X0114708Y0182130D01*
X0115241Y0180843D01*
X0116225Y0179859D01*
X0117512Y0179326D01*
X0124104Y0179326D01*
X0125391Y0179859D01*
X0126375Y0180843D01*
X0126908Y0182130D01*
X0126908Y0183522D01*
X0126375Y0184808D01*
X0125391Y0185793D01*
X0125767Y0185417D02*
X0131792Y0185417D01*
X0131193Y0184818D02*
X0126365Y0184818D01*
X0126619Y0184220D02*
X0130595Y0184220D01*
X0130560Y0183621D02*
X0126867Y0183621D01*
X0126908Y0183023D02*
X0130560Y0183023D01*
X0130560Y0182424D02*
X0126908Y0182424D01*
X0126782Y0181826D02*
X0130560Y0181826D01*
X0130618Y0181227D02*
X0126534Y0181227D01*
X0126161Y0180629D02*
X0131217Y0180629D01*
X0131815Y0180030D02*
X0125562Y0180030D01*
X0124360Y0179432D02*
X0132414Y0179432D01*
X0132249Y0176439D02*
X0124876Y0176439D01*
X0125908Y0175841D02*
X0131650Y0175841D01*
X0131052Y0175242D02*
X0126484Y0175242D01*
X0126876Y0174644D02*
X0130453Y0174644D01*
X0130160Y0174045D02*
X0127124Y0174045D01*
X0127261Y0173447D02*
X0130160Y0173447D01*
X0130160Y0172250D02*
X0127270Y0172250D01*
X0127143Y0171651D02*
X0130160Y0171651D01*
X0130227Y0171053D02*
X0126895Y0171053D01*
X0126514Y0170454D02*
X0130826Y0170454D01*
X0131424Y0169856D02*
X0125953Y0169856D01*
X0121108Y0169856D02*
X0120508Y0169856D01*
X0120508Y0170454D02*
X0121108Y0170454D01*
X0121108Y0171053D02*
X0120508Y0171053D01*
X0120508Y0171651D02*
X0121108Y0171651D01*
X0121108Y0172250D02*
X0120508Y0172250D01*
X0120508Y0169257D02*
X0121108Y0169257D01*
X0117364Y0166265D02*
X0094252Y0166265D01*
X0094104Y0166326D02*
X0095391Y0165793D01*
X0096375Y0164808D01*
X0096908Y0163522D01*
X0096908Y0162130D01*
X0096375Y0160843D01*
X0095391Y0159859D01*
X0094104Y0159326D01*
X0087512Y0159326D01*
X0086225Y0159859D01*
X0085241Y0160843D01*
X0084708Y0162130D01*
X0084708Y0163522D01*
X0085241Y0164808D01*
X0086225Y0165793D01*
X0087512Y0166326D01*
X0094104Y0166326D01*
X0095517Y0165666D02*
X0116099Y0165666D01*
X0115500Y0165067D02*
X0096116Y0165067D01*
X0096516Y0164469D02*
X0115100Y0164469D01*
X0114852Y0163870D02*
X0096764Y0163870D01*
X0096908Y0163272D02*
X0114708Y0163272D01*
X0114708Y0162673D02*
X0096908Y0162673D01*
X0096885Y0162075D02*
X0114731Y0162075D01*
X0114979Y0161476D02*
X0096637Y0161476D01*
X0096390Y0160878D02*
X0115226Y0160878D01*
X0115805Y0160279D02*
X0095811Y0160279D01*
X0094962Y0159681D02*
X0116654Y0159681D01*
X0116942Y0156090D02*
X0094674Y0156090D01*
X0095692Y0155491D02*
X0115924Y0155491D01*
X0115325Y0154893D02*
X0096291Y0154893D01*
X0096588Y0154294D02*
X0115028Y0154294D01*
X0114780Y0153696D02*
X0096836Y0153696D01*
X0096908Y0153097D02*
X0114708Y0153097D01*
X0114708Y0152499D02*
X0096908Y0152499D01*
X0096813Y0151900D02*
X0114803Y0151900D01*
X0115051Y0151302D02*
X0096565Y0151302D01*
X0096235Y0150703D02*
X0115381Y0150703D01*
X0115979Y0150105D02*
X0095637Y0150105D01*
X0094540Y0149506D02*
X0117076Y0149506D01*
X0116521Y0145915D02*
X0095096Y0145915D01*
X0095867Y0145317D02*
X0115749Y0145317D01*
X0115203Y0144718D02*
X0096413Y0144718D01*
X0096660Y0144120D02*
X0114956Y0144120D01*
X0114708Y0143521D02*
X0096908Y0143521D01*
X0096908Y0142923D02*
X0114708Y0142923D01*
X0114708Y0142324D02*
X0096908Y0142324D01*
X0096741Y0141726D02*
X0114875Y0141726D01*
X0115123Y0141127D02*
X0096493Y0141127D01*
X0096061Y0140529D02*
X0115555Y0140529D01*
X0116154Y0139930D02*
X0095462Y0139930D01*
X0094118Y0139331D02*
X0117498Y0139331D01*
X0116173Y0135740D02*
X0095443Y0135740D01*
X0095391Y0135793D02*
X0094104Y0136326D01*
X0087512Y0136326D01*
X0086225Y0135793D01*
X0085241Y0134808D01*
X0084708Y0133522D01*
X0084708Y0132130D01*
X0085241Y0130843D01*
X0086225Y0129859D01*
X0087512Y0129326D01*
X0094104Y0129326D01*
X0095391Y0129859D01*
X0096375Y0130843D01*
X0096908Y0132130D01*
X0096908Y0133522D01*
X0096375Y0134808D01*
X0095391Y0135793D01*
X0096042Y0135142D02*
X0115574Y0135142D01*
X0115131Y0134543D02*
X0096485Y0134543D01*
X0096733Y0133945D02*
X0114883Y0133945D01*
X0114708Y0133346D02*
X0096908Y0133346D01*
X0096908Y0132748D02*
X0114708Y0132748D01*
X0114708Y0132149D02*
X0096908Y0132149D01*
X0096668Y0131551D02*
X0114948Y0131551D01*
X0115196Y0130952D02*
X0096420Y0130952D01*
X0095886Y0130354D02*
X0115730Y0130354D01*
X0116475Y0129755D02*
X0095141Y0129755D01*
X0094104Y0126326D02*
X0095391Y0125793D01*
X0096375Y0124808D01*
X0096908Y0123522D01*
X0096908Y0122130D01*
X0096375Y0120843D01*
X0095391Y0119859D01*
X0094104Y0119326D01*
X0087512Y0119326D01*
X0086225Y0119859D01*
X0085241Y0120843D01*
X0084708Y0122130D01*
X0084708Y0123522D01*
X0085241Y0124808D01*
X0086225Y0125793D01*
X0087512Y0126326D01*
X0094104Y0126326D01*
X0094494Y0126164D02*
X0117122Y0126164D01*
X0115998Y0125566D02*
X0095618Y0125566D01*
X0096216Y0124967D02*
X0115400Y0124967D01*
X0115059Y0124369D02*
X0096557Y0124369D01*
X0096805Y0123770D02*
X0114811Y0123770D01*
X0114708Y0123172D02*
X0096908Y0123172D01*
X0096908Y0122573D02*
X0114708Y0122573D01*
X0114772Y0121975D02*
X0096844Y0121975D01*
X0096596Y0121376D02*
X0115020Y0121376D01*
X0115306Y0120778D02*
X0096310Y0120778D01*
X0095711Y0120179D02*
X0115905Y0120179D01*
X0116896Y0119581D02*
X0094720Y0119581D01*
X0097299Y0112398D02*
X0114708Y0112398D01*
X0114845Y0111800D02*
X0097180Y0111800D01*
X0096957Y0111201D02*
X0115092Y0111201D01*
X0115481Y0110603D02*
X0096613Y0110603D01*
X0096102Y0110004D02*
X0116080Y0110004D01*
X0117318Y0109406D02*
X0095310Y0109406D01*
X0095338Y0105815D02*
X0116278Y0105815D01*
X0116225Y0105793D02*
X0117512Y0106326D01*
X0124104Y0106326D01*
X0125391Y0105793D01*
X0126375Y0104808D01*
X0126908Y0103522D01*
X0126908Y0102130D01*
X0126375Y0100843D01*
X0125391Y0099859D01*
X0124104Y0099326D01*
X0117512Y0099326D01*
X0116225Y0099859D01*
X0115241Y0100843D01*
X0114708Y0102130D01*
X0114708Y0103522D01*
X0115241Y0104808D01*
X0116225Y0105793D01*
X0115649Y0105216D02*
X0095967Y0105216D01*
X0096454Y0104618D02*
X0115162Y0104618D01*
X0114914Y0104019D02*
X0096702Y0104019D01*
X0096908Y0103421D02*
X0114708Y0103421D01*
X0114708Y0102822D02*
X0096908Y0102822D01*
X0096908Y0102224D02*
X0114708Y0102224D01*
X0114917Y0101625D02*
X0096699Y0101625D01*
X0096451Y0101027D02*
X0115165Y0101027D01*
X0115656Y0100428D02*
X0095960Y0100428D01*
X0095321Y0099830D02*
X0116295Y0099830D01*
X0116296Y0096239D02*
X0094314Y0096239D01*
X0095543Y0095640D02*
X0115507Y0095640D01*
X0114998Y0095042D02*
X0096142Y0095042D01*
X0096526Y0094443D02*
X0114657Y0094443D01*
X0114434Y0093845D02*
X0096774Y0093845D01*
X0096908Y0093246D02*
X0114315Y0093246D01*
X0120508Y0093845D02*
X0121108Y0093845D01*
X0121108Y0094443D02*
X0120508Y0094443D01*
X0120508Y0095042D02*
X0121108Y0095042D01*
X0121108Y0095640D02*
X0120508Y0095640D01*
X0120508Y0096239D02*
X0121108Y0096239D01*
X0121108Y0092049D02*
X0120508Y0092049D01*
X0120508Y0091451D02*
X0121108Y0091451D01*
X0121108Y0090852D02*
X0120508Y0090852D01*
X0120508Y0090254D02*
X0121108Y0090254D01*
X0121108Y0089655D02*
X0120508Y0089655D01*
X0120508Y0089057D02*
X0121108Y0089057D01*
X0116880Y0086064D02*
X0094736Y0086064D01*
X0094104Y0086326D02*
X0095391Y0085793D01*
X0096375Y0084808D01*
X0096908Y0083522D01*
X0096908Y0082130D01*
X0096375Y0080843D01*
X0095391Y0079859D01*
X0094104Y0079326D01*
X0087512Y0079326D01*
X0086225Y0079859D01*
X0085241Y0080843D01*
X0084708Y0082130D01*
X0084708Y0083522D01*
X0085241Y0084808D01*
X0086225Y0085793D01*
X0087512Y0086326D01*
X0094104Y0086326D01*
X0095718Y0085465D02*
X0115898Y0085465D01*
X0115300Y0084867D02*
X0096317Y0084867D01*
X0096599Y0084268D02*
X0115017Y0084268D01*
X0114769Y0083670D02*
X0096847Y0083670D01*
X0096908Y0083071D02*
X0114708Y0083071D01*
X0114708Y0082473D02*
X0096908Y0082473D01*
X0096802Y0081874D02*
X0114814Y0081874D01*
X0115062Y0081276D02*
X0096554Y0081276D01*
X0096209Y0080677D02*
X0115407Y0080677D01*
X0116005Y0080079D02*
X0095611Y0080079D01*
X0094478Y0079480D02*
X0117139Y0079480D01*
X0117512Y0076326D02*
X0116225Y0075793D01*
X0115241Y0074808D01*
X0114708Y0073522D01*
X0114708Y0072130D01*
X0115241Y0070843D01*
X0116225Y0069859D01*
X0117512Y0069326D01*
X0124104Y0069326D01*
X0125391Y0069859D01*
X0126375Y0070843D01*
X0126908Y0072130D01*
X0126908Y0073522D01*
X0126375Y0074808D01*
X0125391Y0075793D01*
X0124104Y0076326D01*
X0117512Y0076326D01*
X0116458Y0075889D02*
X0095158Y0075889D01*
X0095391Y0075793D02*
X0094104Y0076326D01*
X0087512Y0076326D01*
X0086225Y0075793D01*
X0085241Y0074808D01*
X0084708Y0073522D01*
X0084708Y0072130D01*
X0085241Y0070843D01*
X0086225Y0069859D01*
X0087512Y0069326D01*
X0094104Y0069326D01*
X0095391Y0069859D01*
X0096375Y0070843D01*
X0096908Y0072130D01*
X0096908Y0073522D01*
X0096375Y0074808D01*
X0095391Y0075793D01*
X0095893Y0075291D02*
X0115723Y0075291D01*
X0115193Y0074692D02*
X0096423Y0074692D01*
X0096671Y0074094D02*
X0114945Y0074094D01*
X0114708Y0073495D02*
X0096908Y0073495D01*
X0096908Y0072897D02*
X0114708Y0072897D01*
X0114708Y0072298D02*
X0096908Y0072298D01*
X0096730Y0071700D02*
X0114886Y0071700D01*
X0115134Y0071101D02*
X0096482Y0071101D01*
X0096035Y0070503D02*
X0115581Y0070503D01*
X0116180Y0069904D02*
X0095436Y0069904D01*
X0094104Y0066326D02*
X0095391Y0065793D01*
X0096375Y0064808D01*
X0096908Y0063522D01*
X0096908Y0062130D01*
X0096375Y0060843D01*
X0095391Y0059859D01*
X0094104Y0059326D01*
X0087512Y0059326D01*
X0086225Y0059859D01*
X0085241Y0060843D01*
X0084708Y0062130D01*
X0084708Y0063522D01*
X0085241Y0064808D01*
X0086225Y0065793D01*
X0087512Y0066326D01*
X0094104Y0066326D01*
X0094135Y0066313D02*
X0117481Y0066313D01*
X0116147Y0065715D02*
X0095469Y0065715D01*
X0096067Y0065116D02*
X0115549Y0065116D01*
X0115120Y0064518D02*
X0096496Y0064518D01*
X0096744Y0063919D02*
X0114873Y0063919D01*
X0114708Y0063321D02*
X0096908Y0063321D01*
X0096908Y0062722D02*
X0114708Y0062722D01*
X0114711Y0062124D02*
X0096906Y0062124D01*
X0096658Y0061525D02*
X0114958Y0061525D01*
X0115206Y0060927D02*
X0096410Y0060927D01*
X0095860Y0060328D02*
X0115756Y0060328D01*
X0116537Y0059729D02*
X0095079Y0059729D01*
X0094104Y0056326D02*
X0087512Y0056326D01*
X0086225Y0055793D01*
X0085241Y0054808D01*
X0084708Y0053522D01*
X0084708Y0052130D01*
X0085241Y0050843D01*
X0086225Y0049859D01*
X0087512Y0049326D01*
X0088990Y0049326D01*
X0089480Y0048835D01*
X0093480Y0044835D01*
X0126640Y0044835D01*
X0127460Y0045655D01*
X0134640Y0052835D01*
X0168294Y0052835D01*
X0168294Y0049841D01*
X0167979Y0050312D01*
X0167439Y0050851D01*
X0166805Y0051275D01*
X0166100Y0051567D01*
X0165351Y0051716D01*
X0165269Y0051716D01*
X0165269Y0048142D01*
X0164669Y0048142D01*
X0164669Y0051716D01*
X0164588Y0051716D01*
X0163839Y0051567D01*
X0163134Y0051275D01*
X0162499Y0050851D01*
X0161960Y0050312D01*
X0161536Y0049677D01*
X0161244Y0048972D01*
X0161095Y0048223D01*
X0161095Y0048141D01*
X0164669Y0048141D01*
X0164669Y0047541D01*
X0161095Y0047541D01*
X0161095Y0047460D01*
X0161244Y0046711D01*
X0161536Y0046006D01*
X0161960Y0045371D01*
X0162499Y0044832D01*
X0163009Y0044491D01*
X0163001Y0044488D01*
X0162024Y0043511D01*
X0161495Y0042233D01*
X0161495Y0040851D01*
X0162024Y0039574D01*
X0163001Y0038596D01*
X0163493Y0038393D01*
X0163001Y0038189D01*
X0162024Y0037211D01*
X0161495Y0035934D01*
X0161495Y0034552D01*
X0162024Y0033275D01*
X0163001Y0032297D01*
X0164278Y0031768D01*
X0165661Y0031768D01*
X0166938Y0032297D01*
X0167915Y0033275D01*
X0168444Y0034552D01*
X0168444Y0035149D01*
X0169003Y0034918D01*
X0170385Y0034918D01*
X0171662Y0035447D01*
X0172640Y0036424D01*
X0173169Y0037701D01*
X0173169Y0039084D01*
X0172640Y0040361D01*
X0171662Y0041338D01*
X0171170Y0041542D01*
X0171662Y0041746D01*
X0172640Y0042724D01*
X0173169Y0044001D01*
X0173169Y0045383D01*
X0172640Y0046660D01*
X0171662Y0047638D01*
X0171094Y0047873D01*
X0171094Y0054181D01*
X0170274Y0055001D01*
X0169640Y0055635D01*
X0133480Y0055635D01*
X0125480Y0047635D01*
X0094640Y0047635D01*
X0092949Y0049326D01*
X0094104Y0049326D01*
X0095391Y0049859D01*
X0096375Y0050843D01*
X0096908Y0052130D01*
X0096908Y0053522D01*
X0096375Y0054808D01*
X0095391Y0055793D01*
X0094104Y0056326D01*
X0094556Y0056138D02*
X0117060Y0056138D01*
X0115972Y0055540D02*
X0095644Y0055540D01*
X0096242Y0054941D02*
X0115374Y0054941D01*
X0115048Y0054343D02*
X0096568Y0054343D01*
X0096816Y0053744D02*
X0114800Y0053744D01*
X0114708Y0053146D02*
X0096908Y0053146D01*
X0096908Y0052547D02*
X0114708Y0052547D01*
X0114783Y0051949D02*
X0096833Y0051949D01*
X0096585Y0051350D02*
X0115031Y0051350D01*
X0115332Y0050752D02*
X0096284Y0050752D01*
X0095685Y0050153D02*
X0115931Y0050153D01*
X0116959Y0049555D02*
X0094657Y0049555D01*
X0093917Y0048358D02*
X0126203Y0048358D01*
X0126801Y0048956D02*
X0093319Y0048956D01*
X0094516Y0047759D02*
X0125604Y0047759D01*
X0124657Y0049555D02*
X0127400Y0049555D01*
X0127998Y0050153D02*
X0125685Y0050153D01*
X0126284Y0050752D02*
X0128597Y0050752D01*
X0129195Y0051350D02*
X0126585Y0051350D01*
X0126833Y0051949D02*
X0129794Y0051949D01*
X0130392Y0052547D02*
X0126908Y0052547D01*
X0126908Y0053146D02*
X0130991Y0053146D01*
X0131589Y0053744D02*
X0126816Y0053744D01*
X0127148Y0054343D02*
X0132188Y0054343D01*
X0132786Y0054941D02*
X0127746Y0054941D01*
X0128345Y0055540D02*
X0133385Y0055540D01*
X0134352Y0052547D02*
X0168294Y0052547D01*
X0168294Y0051949D02*
X0133754Y0051949D01*
X0133155Y0051350D02*
X0163315Y0051350D01*
X0162400Y0050752D02*
X0132557Y0050752D01*
X0131958Y0050153D02*
X0161854Y0050153D01*
X0161485Y0049555D02*
X0131359Y0049555D01*
X0130761Y0048956D02*
X0161240Y0048956D01*
X0161121Y0048358D02*
X0130162Y0048358D01*
X0129564Y0047759D02*
X0164669Y0047759D01*
X0164669Y0048358D02*
X0165269Y0048358D01*
X0165269Y0048956D02*
X0164669Y0048956D01*
X0164669Y0049555D02*
X0165269Y0049555D01*
X0165269Y0050153D02*
X0164669Y0050153D01*
X0164669Y0050752D02*
X0165269Y0050752D01*
X0165269Y0051350D02*
X0164669Y0051350D01*
X0166624Y0051350D02*
X0168294Y0051350D01*
X0168294Y0050752D02*
X0167539Y0050752D01*
X0168085Y0050153D02*
X0168294Y0050153D01*
X0171094Y0050153D02*
X0181940Y0050153D01*
X0181360Y0050393D02*
X0179529Y0052225D01*
X0178538Y0054617D01*
X0178538Y0057207D01*
X0179529Y0059600D01*
X0181360Y0061431D01*
X0183753Y0062423D01*
X0186343Y0062423D01*
X0188736Y0061431D01*
X0190567Y0059600D01*
X0191558Y0057207D01*
X0191558Y0054617D01*
X0190567Y0052225D01*
X0188736Y0050393D01*
X0186343Y0049402D01*
X0183753Y0049402D01*
X0181360Y0050393D01*
X0181002Y0050752D02*
X0171094Y0050752D01*
X0171094Y0051350D02*
X0180403Y0051350D01*
X0179805Y0051949D02*
X0171094Y0051949D01*
X0171094Y0052547D02*
X0179395Y0052547D01*
X0179147Y0053146D02*
X0171094Y0053146D01*
X0171094Y0053744D02*
X0178900Y0053744D01*
X0178652Y0054343D02*
X0170932Y0054343D01*
X0170334Y0054941D02*
X0178538Y0054941D01*
X0178538Y0055540D02*
X0169735Y0055540D01*
X0171094Y0049555D02*
X0183385Y0049555D01*
X0186712Y0049555D02*
X0200610Y0049555D01*
X0200610Y0050153D02*
X0188157Y0050153D01*
X0189095Y0050752D02*
X0200610Y0050752D01*
X0200610Y0051350D02*
X0189693Y0051350D01*
X0190292Y0051949D02*
X0200610Y0051949D01*
X0200610Y0052547D02*
X0190701Y0052547D01*
X0190949Y0053146D02*
X0200610Y0053146D01*
X0200610Y0053744D02*
X0191197Y0053744D01*
X0191445Y0054343D02*
X0200610Y0054343D01*
X0200610Y0054941D02*
X0191558Y0054941D01*
X0191558Y0055540D02*
X0200610Y0055540D01*
X0200610Y0056138D02*
X0191558Y0056138D01*
X0191558Y0056737D02*
X0200610Y0056737D01*
X0200610Y0057335D02*
X0191505Y0057335D01*
X0191257Y0057934D02*
X0200610Y0057934D01*
X0200610Y0058532D02*
X0191010Y0058532D01*
X0190762Y0059131D02*
X0200610Y0059131D01*
X0200610Y0059729D02*
X0190438Y0059729D01*
X0189839Y0060328D02*
X0200610Y0060328D01*
X0200610Y0060927D02*
X0189241Y0060927D01*
X0188510Y0061525D02*
X0200610Y0061525D01*
X0200610Y0062124D02*
X0187065Y0062124D01*
X0183031Y0062124D02*
X0166928Y0062124D01*
X0167527Y0062722D02*
X0200610Y0062722D01*
X0200610Y0063321D02*
X0168125Y0063321D01*
X0168724Y0063919D02*
X0200610Y0063919D01*
X0200610Y0064518D02*
X0169322Y0064518D01*
X0169921Y0065116D02*
X0200610Y0065116D01*
X0200610Y0065715D02*
X0170519Y0065715D01*
X0171118Y0066313D02*
X0200610Y0066313D01*
X0200610Y0066912D02*
X0171716Y0066912D01*
X0172315Y0067510D02*
X0200610Y0067510D01*
X0200610Y0068109D02*
X0172913Y0068109D01*
X0173512Y0068707D02*
X0200610Y0068707D01*
X0200610Y0069306D02*
X0174110Y0069306D01*
X0174709Y0069904D02*
X0200610Y0069904D01*
X0200610Y0070503D02*
X0175307Y0070503D01*
X0175906Y0071101D02*
X0200610Y0071101D01*
X0200610Y0071700D02*
X0176504Y0071700D01*
X0177103Y0072298D02*
X0200610Y0072298D01*
X0200610Y0072897D02*
X0177701Y0072897D01*
X0178300Y0073495D02*
X0200610Y0073495D01*
X0200610Y0074094D02*
X0178898Y0074094D01*
X0179497Y0074692D02*
X0200610Y0074692D01*
X0200610Y0075291D02*
X0180095Y0075291D01*
X0180694Y0075889D02*
X0200610Y0075889D01*
X0200610Y0076488D02*
X0181292Y0076488D01*
X0181891Y0077086D02*
X0200610Y0077086D01*
X0200610Y0077685D02*
X0199643Y0077685D01*
X0197860Y0077685D02*
X0197260Y0077685D01*
X0197260Y0077235D02*
X0197260Y0081935D01*
X0192560Y0081935D01*
X0192560Y0081842D01*
X0192683Y0081064D01*
X0192926Y0080316D01*
X0193284Y0079615D01*
X0193746Y0078978D01*
X0194303Y0078421D01*
X0194939Y0077959D01*
X0195641Y0077602D01*
X0196389Y0077358D01*
X0197166Y0077235D01*
X0197260Y0077235D01*
X0197260Y0078283D02*
X0197860Y0078283D01*
X0197860Y0078882D02*
X0197260Y0078882D01*
X0197260Y0079480D02*
X0197860Y0079480D01*
X0197860Y0080079D02*
X0197260Y0080079D01*
X0197260Y0080677D02*
X0197860Y0080677D01*
X0197860Y0081276D02*
X0197260Y0081276D01*
X0197260Y0081874D02*
X0197860Y0081874D01*
X0197260Y0082473D02*
X0187278Y0082473D01*
X0187876Y0083071D02*
X0192630Y0083071D01*
X0192683Y0083406D02*
X0192560Y0082629D01*
X0192560Y0082535D01*
X0197260Y0082535D01*
X0197260Y0087235D01*
X0197166Y0087235D01*
X0196389Y0087112D01*
X0195641Y0086869D01*
X0194939Y0086512D01*
X0194303Y0086049D01*
X0193746Y0085492D01*
X0193284Y0084856D01*
X0192926Y0084155D01*
X0192683Y0083406D01*
X0192769Y0083670D02*
X0188475Y0083670D01*
X0189073Y0084268D02*
X0192984Y0084268D01*
X0193292Y0084867D02*
X0189672Y0084867D01*
X0190270Y0085465D02*
X0193727Y0085465D01*
X0194323Y0086064D02*
X0190869Y0086064D01*
X0191467Y0086662D02*
X0195236Y0086662D01*
X0196103Y0087860D02*
X0192664Y0087860D01*
X0193263Y0088458D02*
X0194832Y0088458D01*
X0194233Y0089057D02*
X0193861Y0089057D01*
X0192066Y0087261D02*
X0200610Y0087261D01*
X0200610Y0086662D02*
X0199884Y0086662D01*
X0200610Y0087860D02*
X0199017Y0087860D01*
X0200288Y0088458D02*
X0200610Y0088458D01*
X0197860Y0086662D02*
X0197260Y0086662D01*
X0197260Y0086064D02*
X0197860Y0086064D01*
X0197860Y0085465D02*
X0197260Y0085465D01*
X0197260Y0084867D02*
X0197860Y0084867D01*
X0197860Y0084268D02*
X0197260Y0084268D01*
X0197260Y0083670D02*
X0197860Y0083670D01*
X0197860Y0083071D02*
X0197260Y0083071D01*
X0192560Y0081874D02*
X0186679Y0081874D01*
X0186081Y0081276D02*
X0192650Y0081276D01*
X0192809Y0080677D02*
X0185482Y0080677D01*
X0184884Y0080079D02*
X0193047Y0080079D01*
X0193381Y0079480D02*
X0184285Y0079480D01*
X0183687Y0078882D02*
X0193842Y0078882D01*
X0194493Y0078283D02*
X0183088Y0078283D01*
X0182490Y0077685D02*
X0195477Y0077685D01*
X0186909Y0086064D02*
X0182869Y0086064D01*
X0183467Y0086662D02*
X0187507Y0086662D01*
X0188106Y0087261D02*
X0184066Y0087261D01*
X0184664Y0087860D02*
X0188704Y0087860D01*
X0189303Y0088458D02*
X0185263Y0088458D01*
X0185861Y0089057D02*
X0189901Y0089057D01*
X0190500Y0089655D02*
X0186460Y0089655D01*
X0187058Y0090254D02*
X0191098Y0090254D01*
X0191697Y0090852D02*
X0187657Y0090852D01*
X0188255Y0091451D02*
X0192295Y0091451D01*
X0192894Y0092049D02*
X0188854Y0092049D01*
X0189452Y0092648D02*
X0192960Y0092648D01*
X0193000Y0093246D02*
X0190051Y0093246D01*
X0190649Y0093845D02*
X0193248Y0093845D01*
X0193496Y0094443D02*
X0191248Y0094443D01*
X0191846Y0095042D02*
X0193861Y0095042D01*
X0194460Y0095640D02*
X0192445Y0095640D01*
X0193043Y0096239D02*
X0195205Y0096239D01*
X0194240Y0097436D02*
X0200610Y0097436D01*
X0200610Y0098034D02*
X0199438Y0098034D01*
X0200463Y0098633D02*
X0200610Y0098633D01*
X0200610Y0096837D02*
X0193642Y0096837D01*
X0194839Y0098034D02*
X0195682Y0098034D01*
X0193273Y0100428D02*
X0155847Y0100428D01*
X0156445Y0099830D02*
X0192675Y0099830D01*
X0192076Y0099231D02*
X0157044Y0099231D01*
X0157642Y0098633D02*
X0191478Y0098633D01*
X0190879Y0098034D02*
X0158241Y0098034D01*
X0158839Y0097436D02*
X0190281Y0097436D01*
X0189682Y0096837D02*
X0159438Y0096837D01*
X0160036Y0096239D02*
X0189084Y0096239D01*
X0188485Y0095640D02*
X0160635Y0095640D01*
X0161233Y0095042D02*
X0187887Y0095042D01*
X0187288Y0094443D02*
X0161832Y0094443D01*
X0162430Y0093845D02*
X0186690Y0093845D01*
X0186091Y0093246D02*
X0163029Y0093246D01*
X0163627Y0092648D02*
X0185493Y0092648D01*
X0184894Y0092049D02*
X0164226Y0092049D01*
X0164824Y0091451D02*
X0184296Y0091451D01*
X0183697Y0090852D02*
X0165423Y0090852D01*
X0166021Y0090254D02*
X0183098Y0090254D01*
X0182500Y0089655D02*
X0166620Y0089655D01*
X0167219Y0089057D02*
X0181901Y0089057D01*
X0181303Y0088458D02*
X0167817Y0088458D01*
X0168416Y0087860D02*
X0180704Y0087860D01*
X0180106Y0087261D02*
X0169014Y0087261D01*
X0169613Y0086662D02*
X0179507Y0086662D01*
X0178909Y0086064D02*
X0170211Y0086064D01*
X0170810Y0085465D02*
X0178310Y0085465D01*
X0177712Y0084867D02*
X0171408Y0084867D01*
X0173122Y0084268D02*
X0177113Y0084268D01*
X0176515Y0083670D02*
X0173721Y0083670D01*
X0174249Y0083071D02*
X0175916Y0083071D01*
X0175318Y0082473D02*
X0174249Y0082473D01*
X0174249Y0081874D02*
X0174719Y0081874D01*
X0176884Y0080079D02*
X0180924Y0080079D01*
X0181522Y0080677D02*
X0177482Y0080677D01*
X0178081Y0081276D02*
X0182121Y0081276D01*
X0182719Y0081874D02*
X0178679Y0081874D01*
X0179278Y0082473D02*
X0183318Y0082473D01*
X0183916Y0083071D02*
X0179876Y0083071D01*
X0180475Y0083670D02*
X0184515Y0083670D01*
X0185113Y0084268D02*
X0181073Y0084268D01*
X0181672Y0084867D02*
X0185712Y0084867D01*
X0186310Y0085465D02*
X0182270Y0085465D01*
X0180325Y0079480D02*
X0176285Y0079480D01*
X0175687Y0078882D02*
X0179727Y0078882D01*
X0179128Y0078283D02*
X0175088Y0078283D01*
X0174490Y0077685D02*
X0178530Y0077685D01*
X0177931Y0077086D02*
X0173891Y0077086D01*
X0173292Y0076488D02*
X0177333Y0076488D01*
X0176734Y0075889D02*
X0172694Y0075889D01*
X0172095Y0075291D02*
X0176136Y0075291D01*
X0175537Y0074692D02*
X0171497Y0074692D01*
X0170898Y0074094D02*
X0174939Y0074094D01*
X0174340Y0073495D02*
X0170300Y0073495D01*
X0169701Y0072897D02*
X0173742Y0072897D01*
X0173143Y0072298D02*
X0169103Y0072298D01*
X0168504Y0071700D02*
X0172545Y0071700D01*
X0171946Y0071101D02*
X0167906Y0071101D01*
X0167307Y0070503D02*
X0171348Y0070503D01*
X0170749Y0069904D02*
X0166709Y0069904D01*
X0166110Y0069306D02*
X0170151Y0069306D01*
X0169552Y0068707D02*
X0165512Y0068707D01*
X0164913Y0068109D02*
X0168954Y0068109D01*
X0168355Y0067510D02*
X0164315Y0067510D01*
X0163716Y0066912D02*
X0167757Y0066912D01*
X0167158Y0066313D02*
X0127118Y0066313D01*
X0126519Y0065715D02*
X0166560Y0065715D01*
X0165961Y0065116D02*
X0126067Y0065116D01*
X0126496Y0064518D02*
X0165362Y0064518D01*
X0164764Y0063919D02*
X0126744Y0063919D01*
X0126908Y0063321D02*
X0164165Y0063321D01*
X0163567Y0062722D02*
X0126908Y0062722D01*
X0126906Y0062124D02*
X0162968Y0062124D01*
X0162370Y0061525D02*
X0126658Y0061525D01*
X0126410Y0060927D02*
X0161771Y0060927D01*
X0161173Y0060328D02*
X0125860Y0060328D01*
X0125079Y0059729D02*
X0160574Y0059729D01*
X0159976Y0059131D02*
X0079602Y0059131D01*
X0080201Y0059729D02*
X0086537Y0059729D01*
X0085756Y0060328D02*
X0080799Y0060328D01*
X0081398Y0060927D02*
X0085206Y0060927D01*
X0084958Y0061525D02*
X0081560Y0061525D01*
X0081560Y0062124D02*
X0084711Y0062124D01*
X0084708Y0062722D02*
X0081560Y0062722D01*
X0081560Y0063321D02*
X0084708Y0063321D01*
X0084873Y0063919D02*
X0081560Y0063919D01*
X0081030Y0064518D02*
X0085120Y0064518D01*
X0085549Y0065116D02*
X0080432Y0065116D01*
X0079833Y0065715D02*
X0086147Y0065715D01*
X0087481Y0066313D02*
X0074962Y0066313D01*
X0075560Y0065715D02*
X0076287Y0065715D01*
X0074363Y0066912D02*
X0123757Y0066912D01*
X0124355Y0067510D02*
X0073765Y0067510D01*
X0073166Y0068109D02*
X0124954Y0068109D01*
X0125552Y0068707D02*
X0072568Y0068707D01*
X0071969Y0069306D02*
X0126151Y0069306D01*
X0125436Y0069904D02*
X0162749Y0069904D01*
X0163348Y0070503D02*
X0126035Y0070503D01*
X0126482Y0071101D02*
X0163946Y0071101D01*
X0164545Y0071700D02*
X0126730Y0071700D01*
X0126908Y0072298D02*
X0165143Y0072298D01*
X0165742Y0072897D02*
X0126908Y0072897D01*
X0126908Y0073495D02*
X0166340Y0073495D01*
X0166939Y0074094D02*
X0126671Y0074094D01*
X0126423Y0074692D02*
X0167537Y0074692D01*
X0168136Y0075291D02*
X0125893Y0075291D01*
X0125158Y0075889D02*
X0168734Y0075889D01*
X0169333Y0076488D02*
X0064787Y0076488D01*
X0064189Y0077086D02*
X0169931Y0077086D01*
X0170530Y0077685D02*
X0063590Y0077685D01*
X0062992Y0078283D02*
X0171128Y0078283D01*
X0171727Y0078882D02*
X0062393Y0078882D01*
X0061795Y0079480D02*
X0087139Y0079480D01*
X0086005Y0080079D02*
X0061196Y0080079D01*
X0060598Y0080677D02*
X0085407Y0080677D01*
X0085062Y0081276D02*
X0059999Y0081276D01*
X0059401Y0081874D02*
X0084814Y0081874D01*
X0084708Y0082473D02*
X0058802Y0082473D01*
X0058204Y0083071D02*
X0084708Y0083071D01*
X0084769Y0083670D02*
X0057605Y0083670D01*
X0057007Y0084268D02*
X0073385Y0084268D01*
X0072426Y0084867D02*
X0056408Y0084867D01*
X0055810Y0085465D02*
X0071840Y0085465D01*
X0071592Y0086064D02*
X0055211Y0086064D01*
X0054613Y0086662D02*
X0071349Y0086662D01*
X0071349Y0087261D02*
X0054014Y0087261D01*
X0053416Y0087860D02*
X0071349Y0087860D01*
X0071558Y0088458D02*
X0052817Y0088458D01*
X0052219Y0089057D02*
X0071806Y0089057D01*
X0072344Y0089655D02*
X0051620Y0089655D01*
X0049456Y0087860D02*
X0011517Y0087860D01*
X0012788Y0088458D02*
X0023100Y0088458D01*
X0022501Y0089057D02*
X0013387Y0089057D01*
X0013970Y0089655D02*
X0021903Y0089655D01*
X0021304Y0090254D02*
X0014218Y0090254D01*
X0014466Y0090852D02*
X0016463Y0090852D01*
X0015865Y0091451D02*
X0014660Y0091451D01*
X0017430Y0093845D02*
X0021720Y0093845D01*
X0022318Y0094443D02*
X0016832Y0094443D01*
X0012384Y0086662D02*
X0050653Y0086662D01*
X0051251Y0086064D02*
X0013297Y0086064D01*
X0013893Y0085465D02*
X0051850Y0085465D01*
X0052448Y0084867D02*
X0014328Y0084867D01*
X0014636Y0084268D02*
X0053047Y0084268D01*
X0053645Y0083670D02*
X0014851Y0083670D01*
X0014990Y0083071D02*
X0054244Y0083071D01*
X0054842Y0082473D02*
X0010360Y0082473D01*
X0010360Y0083071D02*
X0009760Y0083071D01*
X0009760Y0083670D02*
X0010360Y0083670D01*
X0010360Y0084268D02*
X0009760Y0084268D01*
X0009760Y0084867D02*
X0010360Y0084867D01*
X0010360Y0085465D02*
X0009760Y0085465D01*
X0009760Y0086064D02*
X0010360Y0086064D01*
X0010360Y0086662D02*
X0009760Y0086662D01*
X0008603Y0087860D02*
X0006360Y0087860D01*
X0006360Y0088458D02*
X0007332Y0088458D01*
X0006733Y0089057D02*
X0006360Y0089057D01*
X0006360Y0087261D02*
X0050054Y0087261D01*
X0048857Y0088458D02*
X0026233Y0088458D01*
X0026831Y0089057D02*
X0048259Y0089057D01*
X0047660Y0089655D02*
X0027430Y0089655D01*
X0028028Y0090254D02*
X0047062Y0090254D01*
X0055441Y0081874D02*
X0015060Y0081874D01*
X0014970Y0081276D02*
X0056039Y0081276D01*
X0056638Y0080677D02*
X0014811Y0080677D01*
X0014573Y0080079D02*
X0057236Y0080079D01*
X0057835Y0079480D02*
X0014239Y0079480D01*
X0013778Y0078882D02*
X0058433Y0078882D01*
X0059032Y0078283D02*
X0013127Y0078283D01*
X0012143Y0077685D02*
X0059630Y0077685D01*
X0060229Y0077086D02*
X0006360Y0077086D01*
X0006360Y0076488D02*
X0060827Y0076488D01*
X0061426Y0075889D02*
X0006360Y0075889D01*
X0006360Y0075291D02*
X0034733Y0075291D01*
X0034736Y0075294D02*
X0032686Y0073244D01*
X0032686Y0070344D01*
X0034736Y0068294D01*
X0037636Y0068294D01*
X0039686Y0070344D01*
X0039686Y0073244D01*
X0037636Y0075294D01*
X0034736Y0075294D01*
X0034134Y0074692D02*
X0006360Y0074692D01*
X0006360Y0074094D02*
X0033536Y0074094D01*
X0032937Y0073495D02*
X0006360Y0073495D01*
X0006360Y0072897D02*
X0032686Y0072897D01*
X0032686Y0072298D02*
X0006360Y0072298D01*
X0006360Y0071700D02*
X0032686Y0071700D01*
X0032686Y0071101D02*
X0006360Y0071101D01*
X0006360Y0070503D02*
X0032686Y0070503D01*
X0033126Y0069904D02*
X0006360Y0069904D01*
X0006360Y0069306D02*
X0033725Y0069306D01*
X0034323Y0068707D02*
X0006360Y0068707D01*
X0006360Y0068109D02*
X0046396Y0068109D01*
X0046775Y0067729D02*
X0044491Y0070013D01*
X0044491Y0071329D01*
X0048091Y0071329D01*
X0048691Y0071329D01*
X0048691Y0071929D01*
X0052291Y0071929D01*
X0052291Y0073244D01*
X0050006Y0075529D01*
X0048691Y0075529D01*
X0048691Y0071929D01*
X0048091Y0071929D01*
X0048091Y0075529D01*
X0046775Y0075529D01*
X0044491Y0073244D01*
X0044491Y0071929D01*
X0048091Y0071929D01*
X0048091Y0071329D01*
X0048091Y0067729D01*
X0046775Y0067729D01*
X0048091Y0068109D02*
X0048691Y0068109D01*
X0048691Y0067729D02*
X0050006Y0067729D01*
X0052291Y0070013D01*
X0052291Y0071329D01*
X0048691Y0071329D01*
X0048691Y0067729D01*
X0048691Y0068707D02*
X0048091Y0068707D01*
X0048091Y0069306D02*
X0048691Y0069306D01*
X0048691Y0069904D02*
X0048091Y0069904D01*
X0048091Y0070503D02*
X0048691Y0070503D01*
X0048691Y0071101D02*
X0048091Y0071101D01*
X0048091Y0071700D02*
X0039686Y0071700D01*
X0039686Y0072298D02*
X0044491Y0072298D01*
X0044491Y0072897D02*
X0039686Y0072897D01*
X0039435Y0073495D02*
X0044742Y0073495D01*
X0045340Y0074094D02*
X0038836Y0074094D01*
X0038238Y0074692D02*
X0045939Y0074692D01*
X0046537Y0075291D02*
X0037639Y0075291D01*
X0039686Y0071101D02*
X0044491Y0071101D01*
X0044491Y0070503D02*
X0039686Y0070503D01*
X0039246Y0069904D02*
X0044600Y0069904D01*
X0045198Y0069306D02*
X0038647Y0069306D01*
X0038049Y0068707D02*
X0045797Y0068707D01*
X0048691Y0071700D02*
X0065616Y0071700D01*
X0066214Y0071101D02*
X0052291Y0071101D01*
X0052291Y0070503D02*
X0066813Y0070503D01*
X0067411Y0069904D02*
X0052181Y0069904D01*
X0051583Y0069306D02*
X0068010Y0069306D01*
X0068608Y0068707D02*
X0050984Y0068707D01*
X0050386Y0068109D02*
X0069207Y0068109D01*
X0069805Y0067510D02*
X0006360Y0067510D01*
X0006360Y0066912D02*
X0011519Y0066912D01*
X0012035Y0067428D02*
X0009985Y0065378D01*
X0009985Y0062478D01*
X0012035Y0060428D01*
X0014935Y0060428D01*
X0016985Y0062478D01*
X0016985Y0065378D01*
X0014935Y0067428D01*
X0012035Y0067428D01*
X0010920Y0066313D02*
X0006360Y0066313D01*
X0006360Y0065715D02*
X0010322Y0065715D01*
X0009985Y0065116D02*
X0006360Y0065116D01*
X0006360Y0064518D02*
X0009985Y0064518D01*
X0009985Y0063919D02*
X0006360Y0063919D01*
X0006360Y0063321D02*
X0009985Y0063321D01*
X0009985Y0062722D02*
X0006360Y0062722D01*
X0006360Y0062124D02*
X0010340Y0062124D01*
X0010939Y0061525D02*
X0006360Y0061525D01*
X0006360Y0060927D02*
X0011537Y0060927D01*
X0015433Y0060927D02*
X0021537Y0060927D01*
X0022035Y0060428D02*
X0024935Y0060428D01*
X0026985Y0062478D01*
X0026985Y0065378D01*
X0024935Y0067428D01*
X0022035Y0067428D01*
X0019985Y0065378D01*
X0019985Y0062478D01*
X0022035Y0060428D01*
X0020939Y0061525D02*
X0016032Y0061525D01*
X0016630Y0062124D02*
X0020340Y0062124D01*
X0019985Y0062722D02*
X0016985Y0062722D01*
X0016985Y0063321D02*
X0019985Y0063321D01*
X0019985Y0063919D02*
X0016985Y0063919D01*
X0016985Y0064518D02*
X0019985Y0064518D01*
X0019985Y0065116D02*
X0016985Y0065116D01*
X0016648Y0065715D02*
X0020322Y0065715D01*
X0020920Y0066313D02*
X0016050Y0066313D01*
X0015451Y0066912D02*
X0021519Y0066912D01*
X0025451Y0066912D02*
X0070404Y0066912D01*
X0071002Y0066313D02*
X0069801Y0066313D01*
X0069675Y0066438D02*
X0068360Y0066438D01*
X0068360Y0062838D01*
X0071960Y0062838D01*
X0071960Y0064154D01*
X0069675Y0066438D01*
X0070399Y0065715D02*
X0071601Y0065715D01*
X0072199Y0065116D02*
X0070998Y0065116D01*
X0071596Y0064518D02*
X0072798Y0064518D01*
X0073396Y0063919D02*
X0071960Y0063919D01*
X0071960Y0063321D02*
X0073995Y0063321D01*
X0074560Y0062722D02*
X0068360Y0062722D01*
X0068360Y0062838D02*
X0068360Y0062238D01*
X0068360Y0058638D01*
X0069675Y0058638D01*
X0071960Y0060923D01*
X0071960Y0062238D01*
X0068360Y0062238D01*
X0067760Y0062238D01*
X0067760Y0058638D01*
X0066445Y0058638D01*
X0064160Y0060923D01*
X0064160Y0062238D01*
X0067760Y0062238D01*
X0067760Y0062838D01*
X0064160Y0062838D01*
X0064160Y0064154D01*
X0066445Y0066438D01*
X0067760Y0066438D01*
X0067760Y0062838D01*
X0068360Y0062838D01*
X0068360Y0063321D02*
X0067760Y0063321D01*
X0067760Y0063919D02*
X0068360Y0063919D01*
X0068360Y0064518D02*
X0067760Y0064518D01*
X0067760Y0065116D02*
X0068360Y0065116D01*
X0068360Y0065715D02*
X0067760Y0065715D01*
X0067760Y0066313D02*
X0068360Y0066313D01*
X0066319Y0066313D02*
X0026050Y0066313D01*
X0026648Y0065715D02*
X0065721Y0065715D01*
X0065122Y0065116D02*
X0026985Y0065116D01*
X0026985Y0064518D02*
X0064524Y0064518D01*
X0064160Y0063919D02*
X0026985Y0063919D01*
X0026985Y0063321D02*
X0064160Y0063321D01*
X0064160Y0062124D02*
X0026630Y0062124D01*
X0026985Y0062722D02*
X0067760Y0062722D01*
X0067760Y0062124D02*
X0068360Y0062124D01*
X0068360Y0061525D02*
X0067760Y0061525D01*
X0067760Y0060927D02*
X0068360Y0060927D01*
X0068360Y0060328D02*
X0067760Y0060328D01*
X0067760Y0059729D02*
X0068360Y0059729D01*
X0068360Y0059131D02*
X0067760Y0059131D01*
X0065952Y0059131D02*
X0006360Y0059131D01*
X0006360Y0059729D02*
X0065353Y0059729D01*
X0064755Y0060328D02*
X0006360Y0060328D01*
X0006360Y0058532D02*
X0127377Y0058532D01*
X0126779Y0057934D02*
X0006360Y0057934D01*
X0006360Y0057335D02*
X0126180Y0057335D01*
X0125582Y0056737D02*
X0006360Y0056737D01*
X0006360Y0056138D02*
X0087060Y0056138D01*
X0085972Y0055540D02*
X0037956Y0055540D01*
X0037801Y0055694D02*
X0036486Y0055694D01*
X0036486Y0052094D01*
X0040086Y0052094D01*
X0040086Y0053410D01*
X0037801Y0055694D01*
X0038554Y0054941D02*
X0046753Y0054941D01*
X0046941Y0055129D02*
X0044891Y0053079D01*
X0044891Y0050179D01*
X0046941Y0048129D01*
X0049840Y0048129D01*
X0051891Y0050179D01*
X0051891Y0053079D01*
X0049840Y0055129D01*
X0046941Y0055129D01*
X0046155Y0054343D02*
X0039153Y0054343D01*
X0039751Y0053744D02*
X0045556Y0053744D01*
X0044958Y0053146D02*
X0040086Y0053146D01*
X0040086Y0052547D02*
X0044891Y0052547D01*
X0044891Y0051949D02*
X0036486Y0051949D01*
X0036486Y0052094D02*
X0036486Y0051494D01*
X0036486Y0047894D01*
X0037801Y0047894D01*
X0040086Y0050179D01*
X0040086Y0051494D01*
X0036486Y0051494D01*
X0035886Y0051494D01*
X0035886Y0047894D01*
X0034571Y0047894D01*
X0032286Y0050179D01*
X0032286Y0051494D01*
X0035886Y0051494D01*
X0035886Y0052094D01*
X0032286Y0052094D01*
X0032286Y0053410D01*
X0034571Y0055694D01*
X0035886Y0055694D01*
X0035886Y0052094D01*
X0036486Y0052094D01*
X0036486Y0052547D02*
X0035886Y0052547D01*
X0035886Y0051949D02*
X0006360Y0051949D01*
X0006360Y0052547D02*
X0032286Y0052547D01*
X0032286Y0053146D02*
X0006360Y0053146D01*
X0006360Y0053744D02*
X0032621Y0053744D01*
X0033219Y0054343D02*
X0006360Y0054343D01*
X0006360Y0054941D02*
X0033818Y0054941D01*
X0034416Y0055540D02*
X0006360Y0055540D01*
X0006360Y0051350D02*
X0032286Y0051350D01*
X0032286Y0050752D02*
X0006360Y0050752D01*
X0006360Y0050153D02*
X0032311Y0050153D01*
X0032910Y0049555D02*
X0006360Y0049555D01*
X0006360Y0048956D02*
X0033509Y0048956D01*
X0034107Y0048358D02*
X0006360Y0048358D01*
X0006360Y0047759D02*
X0017743Y0047759D01*
X0017656Y0047723D02*
X0016568Y0046635D01*
X0015979Y0045213D01*
X0015979Y0043674D01*
X0016568Y0042253D01*
X0017656Y0041164D01*
X0019078Y0040575D01*
X0020617Y0040575D01*
X0022039Y0041164D01*
X0023127Y0042253D01*
X0023716Y0043674D01*
X0023716Y0045213D01*
X0023127Y0046635D01*
X0022039Y0047723D01*
X0020617Y0048312D01*
X0019078Y0048312D01*
X0017656Y0047723D01*
X0017093Y0047161D02*
X0006360Y0047161D01*
X0006360Y0046562D02*
X0016538Y0046562D01*
X0016290Y0045964D02*
X0006360Y0045964D01*
X0006360Y0045365D02*
X0016042Y0045365D01*
X0015979Y0044767D02*
X0006360Y0044767D01*
X0006360Y0044168D02*
X0015979Y0044168D01*
X0016022Y0043570D02*
X0006360Y0043570D01*
X0006360Y0042971D02*
X0016270Y0042971D01*
X0016518Y0042373D02*
X0006360Y0042373D01*
X0006360Y0041774D02*
X0017046Y0041774D01*
X0017645Y0041176D02*
X0006360Y0041176D01*
X0006360Y0040577D02*
X0019074Y0040577D01*
X0020621Y0040577D02*
X0161608Y0040577D01*
X0161495Y0041176D02*
X0022050Y0041176D01*
X0022649Y0041774D02*
X0161495Y0041774D01*
X0161552Y0042373D02*
X0023177Y0042373D01*
X0023425Y0042971D02*
X0161800Y0042971D01*
X0162083Y0043570D02*
X0023673Y0043570D01*
X0023716Y0044168D02*
X0162681Y0044168D01*
X0162597Y0044767D02*
X0023716Y0044767D01*
X0023653Y0045365D02*
X0092950Y0045365D01*
X0092352Y0045964D02*
X0023405Y0045964D01*
X0023157Y0046562D02*
X0091753Y0046562D01*
X0091155Y0047161D02*
X0022601Y0047161D01*
X0021952Y0047759D02*
X0090556Y0047759D01*
X0089957Y0048358D02*
X0050069Y0048358D01*
X0050668Y0048956D02*
X0089359Y0048956D01*
X0086959Y0049555D02*
X0051266Y0049555D01*
X0051865Y0050153D02*
X0085931Y0050153D01*
X0085332Y0050752D02*
X0051891Y0050752D01*
X0051891Y0051350D02*
X0085031Y0051350D01*
X0084783Y0051949D02*
X0051891Y0051949D01*
X0051891Y0052547D02*
X0084708Y0052547D01*
X0084708Y0053146D02*
X0051823Y0053146D01*
X0051225Y0053744D02*
X0084800Y0053744D01*
X0085048Y0054343D02*
X0050626Y0054343D01*
X0050028Y0054941D02*
X0085374Y0054941D01*
X0076518Y0059131D02*
X0070168Y0059131D01*
X0070767Y0059729D02*
X0075919Y0059729D01*
X0075321Y0060328D02*
X0071365Y0060328D01*
X0071960Y0060927D02*
X0074722Y0060927D01*
X0074560Y0061525D02*
X0071960Y0061525D01*
X0071960Y0062124D02*
X0074560Y0062124D01*
X0071371Y0069904D02*
X0086180Y0069904D01*
X0085581Y0070503D02*
X0070772Y0070503D01*
X0070174Y0071101D02*
X0085134Y0071101D01*
X0084886Y0071700D02*
X0069575Y0071700D01*
X0068977Y0072298D02*
X0084708Y0072298D01*
X0084708Y0072897D02*
X0068378Y0072897D01*
X0067780Y0073495D02*
X0084708Y0073495D01*
X0084945Y0074094D02*
X0067181Y0074094D01*
X0066583Y0074692D02*
X0085193Y0074692D01*
X0085723Y0075291D02*
X0065984Y0075291D01*
X0065386Y0075889D02*
X0086458Y0075889D01*
X0085017Y0084268D02*
X0075869Y0084268D01*
X0076827Y0084867D02*
X0085300Y0084867D01*
X0085898Y0085465D02*
X0077414Y0085465D01*
X0077662Y0086064D02*
X0086880Y0086064D01*
X0086295Y0099830D02*
X0076875Y0099830D01*
X0077498Y0099231D02*
X0130635Y0099231D01*
X0130037Y0099830D02*
X0125321Y0099830D01*
X0125960Y0100428D02*
X0129592Y0100428D01*
X0129344Y0101027D02*
X0126451Y0101027D01*
X0126699Y0101625D02*
X0129096Y0101625D01*
X0129091Y0102224D02*
X0126908Y0102224D01*
X0126908Y0102822D02*
X0129091Y0102822D01*
X0129171Y0103421D02*
X0126908Y0103421D01*
X0126702Y0104019D02*
X0129419Y0104019D01*
X0129667Y0104618D02*
X0126454Y0104618D01*
X0125967Y0105216D02*
X0130219Y0105216D01*
X0130817Y0105815D02*
X0125338Y0105815D01*
X0125320Y0096239D02*
X0156077Y0096239D01*
X0156675Y0095640D02*
X0126109Y0095640D01*
X0126618Y0095042D02*
X0157274Y0095042D01*
X0157872Y0094443D02*
X0126959Y0094443D01*
X0127182Y0093845D02*
X0158471Y0093845D01*
X0159069Y0093246D02*
X0127301Y0093246D01*
X0125611Y0080079D02*
X0171121Y0080079D01*
X0172325Y0079480D02*
X0124478Y0079480D01*
X0124556Y0056138D02*
X0124983Y0056138D01*
X0128965Y0047161D02*
X0161154Y0047161D01*
X0161305Y0046562D02*
X0128367Y0046562D01*
X0127768Y0045964D02*
X0161564Y0045964D01*
X0161966Y0045365D02*
X0127170Y0045365D01*
X0112666Y0035606D02*
X0112666Y0032707D01*
X0110616Y0030656D01*
X0107717Y0030656D01*
X0105666Y0032707D01*
X0105666Y0035606D01*
X0107717Y0037656D01*
X0110616Y0037656D01*
X0112666Y0035606D01*
X0112483Y0035789D02*
X0161495Y0035789D01*
X0161495Y0035191D02*
X0112666Y0035191D01*
X0112666Y0034592D02*
X0161495Y0034592D01*
X0161726Y0033994D02*
X0112666Y0033994D01*
X0112666Y0033395D02*
X0161974Y0033395D01*
X0162502Y0032796D02*
X0112666Y0032796D01*
X0112158Y0032198D02*
X0163241Y0032198D01*
X0166698Y0032198D02*
X0180867Y0032198D01*
X0181360Y0032691D02*
X0179529Y0030860D01*
X0178538Y0028467D01*
X0178538Y0025877D01*
X0179529Y0023484D01*
X0181360Y0021653D01*
X0183753Y0020662D01*
X0186343Y0020662D01*
X0188736Y0021653D01*
X0190567Y0023484D01*
X0191558Y0025877D01*
X0191558Y0028467D01*
X0190567Y0030860D01*
X0188736Y0032691D01*
X0186343Y0033682D01*
X0183753Y0033682D01*
X0181360Y0032691D01*
X0181614Y0032796D02*
X0167437Y0032796D01*
X0167965Y0033395D02*
X0183059Y0033395D01*
X0180269Y0031599D02*
X0111559Y0031599D01*
X0110961Y0031001D02*
X0179670Y0031001D01*
X0179340Y0030402D02*
X0105166Y0030402D01*
X0105166Y0030606D02*
X0103116Y0032656D01*
X0100217Y0032656D01*
X0098166Y0030606D01*
X0098166Y0027707D01*
X0100217Y0025656D01*
X0103116Y0025656D01*
X0105166Y0027707D01*
X0105166Y0030606D01*
X0104772Y0031001D02*
X0107372Y0031001D01*
X0106774Y0031599D02*
X0104173Y0031599D01*
X0103574Y0032198D02*
X0106175Y0032198D01*
X0105666Y0032796D02*
X0090294Y0032796D01*
X0090046Y0032198D02*
X0099758Y0032198D01*
X0099160Y0031599D02*
X0089498Y0031599D01*
X0090010Y0032111D02*
X0088885Y0030986D01*
X0087415Y0030377D01*
X0085823Y0030377D01*
X0084353Y0030986D01*
X0083228Y0032111D01*
X0082619Y0033581D01*
X0082619Y0035173D01*
X0083228Y0036643D01*
X0084353Y0037768D01*
X0085823Y0038377D01*
X0087415Y0038377D01*
X0088885Y0037768D01*
X0090010Y0036643D01*
X0090619Y0035173D01*
X0090619Y0033581D01*
X0090010Y0032111D01*
X0090542Y0033395D02*
X0105666Y0033395D01*
X0105666Y0033994D02*
X0090619Y0033994D01*
X0090619Y0034592D02*
X0105666Y0034592D01*
X0105666Y0035191D02*
X0090612Y0035191D01*
X0090364Y0035789D02*
X0105849Y0035789D01*
X0106448Y0036388D02*
X0090116Y0036388D01*
X0089667Y0036986D02*
X0107046Y0036986D01*
X0107645Y0037585D02*
X0089068Y0037585D01*
X0087883Y0038183D02*
X0162995Y0038183D01*
X0162816Y0038782D02*
X0006360Y0038782D01*
X0006360Y0039380D02*
X0162217Y0039380D01*
X0161856Y0039979D02*
X0006360Y0039979D01*
X0006360Y0038183D02*
X0085355Y0038183D01*
X0084170Y0037585D02*
X0006360Y0037585D01*
X0006360Y0036986D02*
X0067062Y0036986D01*
X0067512Y0037436D02*
X0065462Y0035386D01*
X0065462Y0032486D01*
X0067512Y0030436D01*
X0070411Y0030436D01*
X0072462Y0032486D01*
X0072462Y0035386D01*
X0070411Y0037436D01*
X0067512Y0037436D01*
X0066463Y0036388D02*
X0006360Y0036388D01*
X0006360Y0035789D02*
X0065865Y0035789D01*
X0065462Y0035191D02*
X0006360Y0035191D01*
X0006360Y0034592D02*
X0040034Y0034592D01*
X0040291Y0034849D02*
X0038241Y0032799D01*
X0038241Y0029900D01*
X0040291Y0027849D01*
X0043191Y0027849D01*
X0045241Y0029900D01*
X0045241Y0032799D01*
X0043191Y0034849D01*
X0040291Y0034849D01*
X0039435Y0033994D02*
X0006360Y0033994D01*
X0006360Y0033395D02*
X0038837Y0033395D01*
X0038241Y0032796D02*
X0006360Y0032796D01*
X0006360Y0032198D02*
X0038241Y0032198D01*
X0038241Y0031599D02*
X0006360Y0031599D01*
X0006360Y0031001D02*
X0038241Y0031001D01*
X0038241Y0030402D02*
X0006360Y0030402D01*
X0006360Y0029804D02*
X0038337Y0029804D01*
X0038935Y0029205D02*
X0006360Y0029205D01*
X0006360Y0028607D02*
X0017998Y0028607D01*
X0018209Y0028715D02*
X0017610Y0028410D01*
X0017067Y0028015D01*
X0016592Y0027540D01*
X0016197Y0026996D01*
X0015892Y0026397D01*
X0015684Y0025758D01*
X0015579Y0025095D01*
X0015579Y0025059D01*
X0019547Y0025059D01*
X0019547Y0024459D01*
X0015579Y0024459D01*
X0015579Y0024423D01*
X0015684Y0023759D01*
X0015892Y0023120D01*
X0016197Y0022522D01*
X0016592Y0021978D01*
X0017067Y0021503D01*
X0017610Y0021108D01*
X0018209Y0020803D01*
X0018848Y0020595D01*
X0019511Y0020490D01*
X0019547Y0020490D01*
X0019547Y0024459D01*
X0020147Y0024459D01*
X0020147Y0020490D01*
X0020183Y0020490D01*
X0020847Y0020595D01*
X0021486Y0020803D01*
X0022085Y0021108D01*
X0022628Y0021503D01*
X0023103Y0021978D01*
X0023498Y0022522D01*
X0023803Y0023120D01*
X0024011Y0023759D01*
X0024116Y0024423D01*
X0024116Y0024459D01*
X0020147Y0024459D01*
X0020147Y0025059D01*
X0019547Y0025059D01*
X0019547Y0029027D01*
X0019511Y0029027D01*
X0018848Y0028922D01*
X0018209Y0028715D01*
X0019547Y0028607D02*
X0020147Y0028607D01*
X0020147Y0029027D02*
X0020183Y0029027D01*
X0020847Y0028922D01*
X0021486Y0028715D01*
X0022085Y0028410D01*
X0022628Y0028015D01*
X0023103Y0027540D01*
X0023498Y0026996D01*
X0023803Y0026397D01*
X0024011Y0025758D01*
X0024116Y0025095D01*
X0024116Y0025059D01*
X0020147Y0025059D01*
X0020147Y0029027D01*
X0020147Y0028008D02*
X0019547Y0028008D01*
X0019547Y0027410D02*
X0020147Y0027410D01*
X0020147Y0026811D02*
X0019547Y0026811D01*
X0019547Y0026213D02*
X0020147Y0026213D01*
X0020147Y0025614D02*
X0019547Y0025614D01*
X0019547Y0025016D02*
X0006360Y0025016D01*
X0006360Y0025614D02*
X0015661Y0025614D01*
X0015832Y0026213D02*
X0006360Y0026213D01*
X0006360Y0026811D02*
X0016103Y0026811D01*
X0016497Y0027410D02*
X0006360Y0027410D01*
X0006360Y0028008D02*
X0017060Y0028008D01*
X0015580Y0024417D02*
X0006360Y0024417D01*
X0006360Y0023819D02*
X0015675Y0023819D01*
X0015859Y0023220D02*
X0006360Y0023220D01*
X0006360Y0022622D02*
X0016146Y0022622D01*
X0016559Y0022023D02*
X0006360Y0022023D01*
X0006360Y0021425D02*
X0017174Y0021425D01*
X0018163Y0020826D02*
X0006360Y0020826D01*
X0006360Y0020228D02*
X0067154Y0020228D01*
X0067346Y0020036D02*
X0065062Y0022321D01*
X0065062Y0023636D01*
X0068662Y0023636D01*
X0069262Y0023636D01*
X0069262Y0024236D01*
X0072862Y0024236D01*
X0072862Y0025551D01*
X0070577Y0027836D01*
X0069262Y0027836D01*
X0069262Y0024236D01*
X0068662Y0024236D01*
X0068662Y0027836D01*
X0067346Y0027836D01*
X0065062Y0025551D01*
X0065062Y0024236D01*
X0068662Y0024236D01*
X0068662Y0023636D01*
X0068662Y0020036D01*
X0067346Y0020036D01*
X0066556Y0020826D02*
X0021532Y0020826D01*
X0022520Y0021425D02*
X0065957Y0021425D01*
X0065359Y0022023D02*
X0023136Y0022023D01*
X0023549Y0022622D02*
X0065062Y0022622D01*
X0065062Y0023220D02*
X0023836Y0023220D01*
X0024020Y0023819D02*
X0068662Y0023819D01*
X0068662Y0024417D02*
X0069262Y0024417D01*
X0069262Y0023819D02*
X0082219Y0023819D01*
X0082219Y0024077D02*
X0082219Y0022554D01*
X0084797Y0019977D01*
X0086319Y0019977D01*
X0086319Y0024077D01*
X0082219Y0024077D01*
X0082219Y0024677D02*
X0086319Y0024677D01*
X0086319Y0028777D01*
X0084797Y0028777D01*
X0082219Y0026199D01*
X0082219Y0024677D01*
X0082219Y0025016D02*
X0072862Y0025016D01*
X0072862Y0024417D02*
X0086319Y0024417D01*
X0086319Y0024677D02*
X0086319Y0024077D01*
X0086919Y0024077D01*
X0086919Y0024677D01*
X0086319Y0024677D01*
X0086319Y0025016D02*
X0086919Y0025016D01*
X0086919Y0024677D02*
X0086919Y0028777D01*
X0088442Y0028777D01*
X0091019Y0026199D01*
X0091019Y0024677D01*
X0086919Y0024677D01*
X0086919Y0024417D02*
X0108866Y0024417D01*
X0108866Y0024456D02*
X0108866Y0023856D01*
X0109466Y0023856D01*
X0109466Y0020256D01*
X0110782Y0020256D01*
X0113066Y0022541D01*
X0113066Y0023856D01*
X0109466Y0023856D01*
X0109466Y0024456D01*
X0113066Y0024456D01*
X0113066Y0025772D01*
X0110782Y0028056D01*
X0109466Y0028056D01*
X0109466Y0024456D01*
X0108866Y0024456D01*
X0105266Y0024456D01*
X0105266Y0025772D01*
X0107551Y0028056D01*
X0108866Y0028056D01*
X0108866Y0024456D01*
X0108866Y0025016D02*
X0109466Y0025016D01*
X0109466Y0025614D02*
X0108866Y0025614D01*
X0108866Y0026213D02*
X0109466Y0026213D01*
X0109466Y0026811D02*
X0108866Y0026811D01*
X0108866Y0027410D02*
X0109466Y0027410D01*
X0109466Y0028008D02*
X0108866Y0028008D01*
X0107503Y0028008D02*
X0105166Y0028008D01*
X0105166Y0028607D02*
X0178596Y0028607D01*
X0178538Y0028008D02*
X0147407Y0028008D01*
X0147213Y0028047D02*
X0147132Y0028047D01*
X0147132Y0024472D01*
X0150706Y0024472D01*
X0150706Y0024554D01*
X0150558Y0025302D01*
X0150265Y0026008D01*
X0149841Y0026642D01*
X0149302Y0027182D01*
X0148667Y0027606D01*
X0147962Y0027898D01*
X0147213Y0028047D01*
X0147132Y0028008D02*
X0146532Y0028008D01*
X0146532Y0028047D02*
X0146450Y0028047D01*
X0145701Y0027898D01*
X0144996Y0027606D01*
X0144362Y0027182D01*
X0143822Y0026642D01*
X0143398Y0026008D01*
X0143106Y0025302D01*
X0142957Y0024554D01*
X0142957Y0024472D01*
X0146532Y0024472D01*
X0146532Y0028047D01*
X0146256Y0028008D02*
X0110830Y0028008D01*
X0111428Y0027410D02*
X0122485Y0027410D01*
X0122559Y0027441D02*
X0121358Y0026943D01*
X0120439Y0026024D01*
X0119941Y0024822D01*
X0119941Y0023522D01*
X0120439Y0022321D01*
X0121358Y0021401D01*
X0122559Y0020904D01*
X0123860Y0020904D01*
X0125061Y0021401D01*
X0125980Y0022321D01*
X0126478Y0023522D01*
X0126478Y0024822D01*
X0125980Y0026024D01*
X0125061Y0026943D01*
X0123860Y0027441D01*
X0122559Y0027441D01*
X0123934Y0027410D02*
X0129820Y0027410D01*
X0130392Y0027647D02*
X0129115Y0027118D01*
X0128138Y0026141D01*
X0127609Y0024863D01*
X0127609Y0023481D01*
X0128138Y0022204D01*
X0129115Y0021226D01*
X0130392Y0020697D01*
X0131775Y0020697D01*
X0133052Y0021226D01*
X0134029Y0022204D01*
X0134558Y0023481D01*
X0134558Y0024863D01*
X0134029Y0026141D01*
X0133052Y0027118D01*
X0131775Y0027647D01*
X0130392Y0027647D01*
X0128809Y0026811D02*
X0125193Y0026811D01*
X0125791Y0026213D02*
X0128210Y0026213D01*
X0127920Y0025614D02*
X0126150Y0025614D01*
X0126398Y0025016D02*
X0127672Y0025016D01*
X0127609Y0024417D02*
X0126478Y0024417D01*
X0126478Y0023819D02*
X0127609Y0023819D01*
X0127717Y0023220D02*
X0126353Y0023220D01*
X0126105Y0022622D02*
X0127965Y0022622D01*
X0128318Y0022023D02*
X0125683Y0022023D01*
X0125085Y0021425D02*
X0128917Y0021425D01*
X0130081Y0020826D02*
X0111352Y0020826D01*
X0111950Y0021425D02*
X0121335Y0021425D01*
X0120736Y0022023D02*
X0112549Y0022023D01*
X0113066Y0022622D02*
X0120314Y0022622D01*
X0120066Y0023220D02*
X0113066Y0023220D01*
X0113066Y0023819D02*
X0119941Y0023819D01*
X0119941Y0024417D02*
X0109466Y0024417D01*
X0109466Y0023819D02*
X0108866Y0023819D01*
X0108866Y0023856D02*
X0108866Y0020256D01*
X0107551Y0020256D01*
X0105266Y0022541D01*
X0105266Y0023856D01*
X0108866Y0023856D01*
X0108866Y0023220D02*
X0109466Y0023220D01*
X0109466Y0022622D02*
X0108866Y0022622D01*
X0108866Y0022023D02*
X0109466Y0022023D01*
X0109466Y0021425D02*
X0108866Y0021425D01*
X0108866Y0020826D02*
X0109466Y0020826D01*
X0106981Y0020826D02*
X0089291Y0020826D01*
X0088692Y0020228D02*
X0200610Y0020228D01*
X0200610Y0020826D02*
X0186740Y0020826D01*
X0188185Y0021425D02*
X0200610Y0021425D01*
X0200610Y0022023D02*
X0189106Y0022023D01*
X0189705Y0022622D02*
X0200610Y0022622D01*
X0200610Y0023220D02*
X0190303Y0023220D01*
X0190706Y0023819D02*
X0200610Y0023819D01*
X0200610Y0024417D02*
X0190954Y0024417D01*
X0191202Y0025016D02*
X0200610Y0025016D01*
X0200610Y0025614D02*
X0191450Y0025614D01*
X0191558Y0026213D02*
X0200610Y0026213D01*
X0200610Y0026811D02*
X0191558Y0026811D01*
X0191558Y0027410D02*
X0200610Y0027410D01*
X0200610Y0028008D02*
X0191558Y0028008D01*
X0191501Y0028607D02*
X0200610Y0028607D01*
X0200610Y0029205D02*
X0191253Y0029205D01*
X0191005Y0029804D02*
X0200610Y0029804D01*
X0200610Y0030402D02*
X0190757Y0030402D01*
X0190426Y0031001D02*
X0200610Y0031001D01*
X0200610Y0031599D02*
X0189828Y0031599D01*
X0189229Y0032198D02*
X0200610Y0032198D01*
X0200610Y0032796D02*
X0188482Y0032796D01*
X0187037Y0033395D02*
X0200610Y0033395D01*
X0200610Y0033994D02*
X0168213Y0033994D01*
X0168444Y0034592D02*
X0200610Y0034592D01*
X0200610Y0035191D02*
X0171043Y0035191D01*
X0172004Y0035789D02*
X0200610Y0035789D01*
X0200610Y0036388D02*
X0172603Y0036388D01*
X0172872Y0036986D02*
X0200610Y0036986D01*
X0200610Y0037585D02*
X0173120Y0037585D01*
X0173169Y0038183D02*
X0200610Y0038183D01*
X0200610Y0038782D02*
X0173169Y0038782D01*
X0173046Y0039380D02*
X0200610Y0039380D01*
X0200610Y0039979D02*
X0172798Y0039979D01*
X0172423Y0040577D02*
X0200610Y0040577D01*
X0200610Y0041176D02*
X0171825Y0041176D01*
X0171690Y0041774D02*
X0200610Y0041774D01*
X0200610Y0042373D02*
X0172289Y0042373D01*
X0172742Y0042971D02*
X0200610Y0042971D01*
X0200610Y0043570D02*
X0172990Y0043570D01*
X0173169Y0044168D02*
X0200610Y0044168D01*
X0200610Y0044767D02*
X0173169Y0044767D01*
X0173169Y0045365D02*
X0200610Y0045365D01*
X0200610Y0045964D02*
X0172928Y0045964D01*
X0172680Y0046562D02*
X0200610Y0046562D01*
X0200610Y0047161D02*
X0172139Y0047161D01*
X0171369Y0047759D02*
X0200610Y0047759D01*
X0200610Y0048358D02*
X0171094Y0048358D01*
X0171094Y0048956D02*
X0200610Y0048956D01*
X0181586Y0061525D02*
X0166330Y0061525D01*
X0165731Y0060927D02*
X0180855Y0060927D01*
X0180257Y0060328D02*
X0165133Y0060328D01*
X0164534Y0059729D02*
X0179658Y0059729D01*
X0179335Y0059131D02*
X0163936Y0059131D01*
X0163337Y0058532D02*
X0179087Y0058532D01*
X0178839Y0057934D02*
X0162739Y0057934D01*
X0162140Y0057335D02*
X0178591Y0057335D01*
X0178538Y0056737D02*
X0161542Y0056737D01*
X0160943Y0056138D02*
X0178538Y0056138D01*
X0162397Y0037585D02*
X0110688Y0037585D01*
X0111286Y0036986D02*
X0161930Y0036986D01*
X0161682Y0036388D02*
X0111885Y0036388D01*
X0105166Y0029804D02*
X0179092Y0029804D01*
X0178844Y0029205D02*
X0105166Y0029205D01*
X0104869Y0027410D02*
X0106904Y0027410D01*
X0106306Y0026811D02*
X0104271Y0026811D01*
X0103672Y0026213D02*
X0105707Y0026213D01*
X0105266Y0025614D02*
X0091019Y0025614D01*
X0091019Y0025016D02*
X0105266Y0025016D01*
X0105266Y0023819D02*
X0091019Y0023819D01*
X0091019Y0024077D02*
X0086919Y0024077D01*
X0086919Y0019977D01*
X0088442Y0019977D01*
X0091019Y0022554D01*
X0091019Y0024077D01*
X0091019Y0023220D02*
X0105266Y0023220D01*
X0105266Y0022622D02*
X0091019Y0022622D01*
X0090488Y0022023D02*
X0105784Y0022023D01*
X0106383Y0021425D02*
X0089889Y0021425D01*
X0086919Y0021425D02*
X0086319Y0021425D01*
X0086319Y0022023D02*
X0086919Y0022023D01*
X0086919Y0022622D02*
X0086319Y0022622D01*
X0086319Y0023220D02*
X0086919Y0023220D01*
X0086919Y0023819D02*
X0086319Y0023819D01*
X0086319Y0025614D02*
X0086919Y0025614D01*
X0086919Y0026213D02*
X0086319Y0026213D01*
X0086319Y0026811D02*
X0086919Y0026811D01*
X0086919Y0027410D02*
X0086319Y0027410D01*
X0086319Y0028008D02*
X0086919Y0028008D01*
X0086919Y0028607D02*
X0086319Y0028607D01*
X0084627Y0028607D02*
X0053948Y0028607D01*
X0053350Y0028008D02*
X0084028Y0028008D01*
X0083429Y0027410D02*
X0071003Y0027410D01*
X0071602Y0026811D02*
X0082831Y0026811D01*
X0082232Y0026213D02*
X0072200Y0026213D01*
X0072799Y0025614D02*
X0082219Y0025614D01*
X0082219Y0023220D02*
X0072862Y0023220D01*
X0072862Y0023636D02*
X0069262Y0023636D01*
X0069262Y0020036D01*
X0070577Y0020036D01*
X0072862Y0022321D01*
X0072862Y0023636D01*
X0072862Y0022622D02*
X0082219Y0022622D01*
X0082750Y0022023D02*
X0072564Y0022023D01*
X0071966Y0021425D02*
X0083349Y0021425D01*
X0083947Y0020826D02*
X0071367Y0020826D01*
X0070769Y0020228D02*
X0084546Y0020228D01*
X0086319Y0020228D02*
X0086919Y0020228D01*
X0086919Y0020826D02*
X0086319Y0020826D01*
X0091006Y0026213D02*
X0099660Y0026213D01*
X0099062Y0026811D02*
X0090407Y0026811D01*
X0089809Y0027410D02*
X0098463Y0027410D01*
X0098166Y0028008D02*
X0089210Y0028008D01*
X0088612Y0028607D02*
X0098166Y0028607D01*
X0098166Y0029205D02*
X0054547Y0029205D01*
X0055145Y0029804D02*
X0098166Y0029804D01*
X0098166Y0030402D02*
X0087476Y0030402D01*
X0088900Y0031001D02*
X0098561Y0031001D01*
X0085762Y0030402D02*
X0055241Y0030402D01*
X0055241Y0029900D02*
X0053191Y0027849D01*
X0050291Y0027849D01*
X0048241Y0029900D01*
X0048241Y0032799D01*
X0050291Y0034849D01*
X0053191Y0034849D01*
X0055241Y0032799D01*
X0055241Y0029900D01*
X0055241Y0031001D02*
X0066947Y0031001D01*
X0066348Y0031599D02*
X0055241Y0031599D01*
X0055241Y0032198D02*
X0065750Y0032198D01*
X0065462Y0032796D02*
X0055241Y0032796D01*
X0054645Y0033395D02*
X0065462Y0033395D01*
X0065462Y0033994D02*
X0054047Y0033994D01*
X0053448Y0034592D02*
X0065462Y0034592D01*
X0070861Y0036986D02*
X0083571Y0036986D01*
X0083122Y0036388D02*
X0071460Y0036388D01*
X0072058Y0035789D02*
X0082874Y0035789D01*
X0082626Y0035191D02*
X0072462Y0035191D01*
X0072462Y0034592D02*
X0082619Y0034592D01*
X0082619Y0033994D02*
X0072462Y0033994D01*
X0072462Y0033395D02*
X0082696Y0033395D01*
X0082944Y0032796D02*
X0072462Y0032796D01*
X0072173Y0032198D02*
X0083192Y0032198D01*
X0083740Y0031599D02*
X0071575Y0031599D01*
X0070976Y0031001D02*
X0084338Y0031001D01*
X0069262Y0027410D02*
X0068662Y0027410D01*
X0068662Y0026811D02*
X0069262Y0026811D01*
X0069262Y0026213D02*
X0068662Y0026213D01*
X0068662Y0025614D02*
X0069262Y0025614D01*
X0069262Y0025016D02*
X0068662Y0025016D01*
X0068662Y0023220D02*
X0069262Y0023220D01*
X0069262Y0022622D02*
X0068662Y0022622D01*
X0068662Y0022023D02*
X0069262Y0022023D01*
X0069262Y0021425D02*
X0068662Y0021425D01*
X0068662Y0020826D02*
X0069262Y0020826D01*
X0069262Y0020228D02*
X0068662Y0020228D01*
X0065062Y0024417D02*
X0024115Y0024417D01*
X0024034Y0025614D02*
X0065125Y0025614D01*
X0065062Y0025016D02*
X0020147Y0025016D01*
X0020147Y0024417D02*
X0019547Y0024417D01*
X0019547Y0023819D02*
X0020147Y0023819D01*
X0020147Y0023220D02*
X0019547Y0023220D01*
X0019547Y0022622D02*
X0020147Y0022622D01*
X0020147Y0022023D02*
X0019547Y0022023D01*
X0019547Y0021425D02*
X0020147Y0021425D01*
X0020147Y0020826D02*
X0019547Y0020826D01*
X0023863Y0026213D02*
X0065723Y0026213D01*
X0066322Y0026811D02*
X0023592Y0026811D01*
X0023197Y0027410D02*
X0066920Y0027410D01*
X0050132Y0028008D02*
X0043350Y0028008D01*
X0043948Y0028607D02*
X0049534Y0028607D01*
X0048935Y0029205D02*
X0044547Y0029205D01*
X0045145Y0029804D02*
X0048337Y0029804D01*
X0048241Y0030402D02*
X0045241Y0030402D01*
X0045241Y0031001D02*
X0048241Y0031001D01*
X0048241Y0031599D02*
X0045241Y0031599D01*
X0045241Y0032198D02*
X0048241Y0032198D01*
X0048241Y0032796D02*
X0045241Y0032796D01*
X0044645Y0033395D02*
X0048837Y0033395D01*
X0049435Y0033994D02*
X0044047Y0033994D01*
X0043448Y0034592D02*
X0050034Y0034592D01*
X0040132Y0028008D02*
X0022634Y0028008D01*
X0021697Y0028607D02*
X0039534Y0028607D01*
X0038265Y0048358D02*
X0046712Y0048358D01*
X0046114Y0048956D02*
X0038863Y0048956D01*
X0039462Y0049555D02*
X0045515Y0049555D01*
X0044917Y0050153D02*
X0040060Y0050153D01*
X0040086Y0050752D02*
X0044891Y0050752D01*
X0044891Y0051350D02*
X0040086Y0051350D01*
X0036486Y0051350D02*
X0035886Y0051350D01*
X0035886Y0050752D02*
X0036486Y0050752D01*
X0036486Y0050153D02*
X0035886Y0050153D01*
X0035886Y0049555D02*
X0036486Y0049555D01*
X0036486Y0048956D02*
X0035886Y0048956D01*
X0035886Y0048358D02*
X0036486Y0048358D01*
X0036486Y0053146D02*
X0035886Y0053146D01*
X0035886Y0053744D02*
X0036486Y0053744D01*
X0036486Y0054343D02*
X0035886Y0054343D01*
X0035886Y0054941D02*
X0036486Y0054941D01*
X0036486Y0055540D02*
X0035886Y0055540D01*
X0026032Y0061525D02*
X0064160Y0061525D01*
X0064160Y0060927D02*
X0025433Y0060927D01*
X0010360Y0077685D02*
X0009760Y0077685D01*
X0009760Y0078283D02*
X0010360Y0078283D01*
X0010360Y0078882D02*
X0009760Y0078882D01*
X0009760Y0079480D02*
X0010360Y0079480D01*
X0010360Y0080079D02*
X0009760Y0080079D01*
X0009760Y0080677D02*
X0010360Y0080677D01*
X0010360Y0081276D02*
X0009760Y0081276D01*
X0009760Y0081874D02*
X0010360Y0081874D01*
X0007977Y0077685D02*
X0006360Y0077685D01*
X0006360Y0078283D02*
X0006993Y0078283D01*
X0006823Y0086064D02*
X0006360Y0086064D01*
X0006360Y0086662D02*
X0007736Y0086662D01*
X0006710Y0115391D02*
X0006360Y0115391D01*
X0006360Y0115990D02*
X0007309Y0115990D01*
X0006360Y0116588D02*
X0008548Y0116588D01*
X0008783Y0117785D02*
X0006360Y0117785D01*
X0006360Y0117187D02*
X0127129Y0117187D01*
X0128096Y0120179D02*
X0193433Y0120179D01*
X0193185Y0120778D02*
X0127497Y0120778D01*
X0136694Y0119581D02*
X0193709Y0119581D01*
X0194308Y0118982D02*
X0137293Y0118982D01*
X0137891Y0118384D02*
X0194906Y0118384D01*
X0196283Y0117785D02*
X0138490Y0117785D01*
X0139088Y0117187D02*
X0200610Y0117187D01*
X0200610Y0117785D02*
X0198837Y0117785D01*
X0199072Y0116588D02*
X0200610Y0116588D01*
X0200610Y0115990D02*
X0200311Y0115990D01*
X0200214Y0118384D02*
X0200610Y0118384D01*
X0196048Y0116588D02*
X0139687Y0116588D01*
X0140285Y0115990D02*
X0194809Y0115990D01*
X0194210Y0115391D02*
X0140884Y0115391D01*
X0141483Y0114793D02*
X0193640Y0114793D01*
X0193392Y0114194D02*
X0142081Y0114194D01*
X0142680Y0113596D02*
X0193144Y0113596D01*
X0192960Y0112997D02*
X0143278Y0112997D01*
X0143877Y0112398D02*
X0192960Y0112398D01*
X0192960Y0111800D02*
X0144475Y0111800D01*
X0145074Y0111201D02*
X0193009Y0111201D01*
X0193257Y0110603D02*
X0145672Y0110603D01*
X0146271Y0110004D02*
X0193505Y0110004D01*
X0193884Y0109406D02*
X0146869Y0109406D01*
X0147468Y0108807D02*
X0194482Y0108807D01*
X0195260Y0108209D02*
X0148066Y0108209D01*
X0148665Y0107610D02*
X0200610Y0107610D01*
X0200610Y0107012D02*
X0149263Y0107012D01*
X0149862Y0106413D02*
X0195627Y0106413D01*
X0194634Y0105815D02*
X0150460Y0105815D01*
X0151059Y0105216D02*
X0194036Y0105216D01*
X0193568Y0104618D02*
X0151657Y0104618D01*
X0152256Y0104019D02*
X0193320Y0104019D01*
X0193072Y0103421D02*
X0152854Y0103421D01*
X0153453Y0102822D02*
X0192960Y0102822D01*
X0192960Y0102224D02*
X0154051Y0102224D01*
X0154650Y0101625D02*
X0192960Y0101625D01*
X0193082Y0101027D02*
X0155248Y0101027D01*
X0153084Y0099231D02*
X0146113Y0099231D01*
X0145515Y0098633D02*
X0153683Y0098633D01*
X0154281Y0098034D02*
X0144916Y0098034D01*
X0146712Y0099830D02*
X0152486Y0099830D01*
X0151887Y0100428D02*
X0147310Y0100428D01*
X0147491Y0101027D02*
X0151289Y0101027D01*
X0150690Y0101625D02*
X0147491Y0101625D01*
X0195447Y0136339D02*
X0012173Y0136339D01*
X0013060Y0135740D02*
X0086173Y0135740D01*
X0085574Y0135142D02*
X0013659Y0135142D01*
X0014083Y0134543D02*
X0085131Y0134543D01*
X0084883Y0133945D02*
X0014331Y0133945D01*
X0014579Y0133346D02*
X0084708Y0133346D01*
X0084708Y0132748D02*
X0014660Y0132748D01*
X0014660Y0132149D02*
X0084708Y0132149D01*
X0084948Y0131551D02*
X0014660Y0131551D01*
X0014508Y0130952D02*
X0085196Y0130952D01*
X0085730Y0130354D02*
X0014260Y0130354D01*
X0014012Y0129755D02*
X0086475Y0129755D01*
X0087122Y0126164D02*
X0012595Y0126164D01*
X0013235Y0125566D02*
X0085998Y0125566D01*
X0085400Y0124967D02*
X0013833Y0124967D01*
X0014155Y0124369D02*
X0085059Y0124369D01*
X0084811Y0123770D02*
X0014403Y0123770D01*
X0014651Y0123172D02*
X0084708Y0123172D01*
X0084708Y0122573D02*
X0014660Y0122573D01*
X0014660Y0121975D02*
X0084772Y0121975D01*
X0085020Y0121376D02*
X0014660Y0121376D01*
X0014435Y0120778D02*
X0085306Y0120778D01*
X0085905Y0120179D02*
X0014187Y0120179D01*
X0013911Y0119581D02*
X0086896Y0119581D01*
X0085923Y0115990D02*
X0012811Y0115990D01*
X0013409Y0115391D02*
X0085258Y0115391D01*
X0087498Y0139331D02*
X0013662Y0139331D01*
X0014084Y0139930D02*
X0086154Y0139930D01*
X0085555Y0140529D02*
X0014332Y0140529D01*
X0014580Y0141127D02*
X0085123Y0141127D01*
X0084875Y0141726D02*
X0014660Y0141726D01*
X0014660Y0142324D02*
X0084708Y0142324D01*
X0084708Y0142923D02*
X0014660Y0142923D01*
X0014506Y0143521D02*
X0084708Y0143521D01*
X0084956Y0144120D02*
X0014258Y0144120D01*
X0014011Y0144718D02*
X0084597Y0144718D01*
X0083999Y0145317D02*
X0013484Y0145317D01*
X0012885Y0145915D02*
X0083400Y0145915D01*
X0082802Y0146514D02*
X0011751Y0146514D01*
X0011157Y0147711D02*
X0081605Y0147711D01*
X0082203Y0147112D02*
X0006360Y0147112D01*
X0006360Y0146514D02*
X0008369Y0146514D01*
X0007235Y0145915D02*
X0006360Y0145915D01*
X0006360Y0145317D02*
X0006636Y0145317D01*
X0006360Y0147711D02*
X0008963Y0147711D01*
X0007518Y0148309D02*
X0006360Y0148309D01*
X0006360Y0148908D02*
X0006882Y0148908D01*
X0012602Y0148309D02*
X0081006Y0148309D01*
X0080408Y0148908D02*
X0013238Y0148908D01*
X0013836Y0149506D02*
X0079809Y0149506D01*
X0079211Y0150105D02*
X0014157Y0150105D01*
X0014404Y0150703D02*
X0078612Y0150703D01*
X0078014Y0151302D02*
X0014652Y0151302D01*
X0014660Y0151900D02*
X0077415Y0151900D01*
X0076817Y0152499D02*
X0014660Y0152499D01*
X0014660Y0153097D02*
X0076218Y0153097D01*
X0075620Y0153696D02*
X0014434Y0153696D01*
X0014186Y0154294D02*
X0075021Y0154294D01*
X0074422Y0154893D02*
X0013908Y0154893D01*
X0013309Y0155491D02*
X0073824Y0155491D01*
X0073225Y0156090D02*
X0012711Y0156090D01*
X0011330Y0156688D02*
X0072627Y0156688D01*
X0072028Y0157287D02*
X0006360Y0157287D01*
X0006360Y0157885D02*
X0071430Y0157885D01*
X0070831Y0158484D02*
X0006360Y0158484D01*
X0006360Y0159082D02*
X0070233Y0159082D01*
X0069634Y0159681D02*
X0006360Y0159681D01*
X0006360Y0160279D02*
X0069036Y0160279D01*
X0068437Y0160878D02*
X0006360Y0160878D01*
X0006360Y0161476D02*
X0067839Y0161476D01*
X0067240Y0162075D02*
X0006360Y0162075D01*
X0006360Y0162673D02*
X0066642Y0162673D01*
X0066043Y0163272D02*
X0006360Y0163272D01*
X0006360Y0163870D02*
X0065445Y0163870D01*
X0064846Y0164469D02*
X0006360Y0164469D01*
X0006360Y0165067D02*
X0064248Y0165067D01*
X0063649Y0165666D02*
X0006360Y0165666D01*
X0006360Y0166265D02*
X0063051Y0166265D01*
X0062452Y0166863D02*
X0006360Y0166863D01*
X0006360Y0167462D02*
X0016873Y0167462D01*
X0016921Y0167437D02*
X0017560Y0167229D01*
X0018224Y0167124D01*
X0018260Y0167124D01*
X0018260Y0171093D01*
X0014291Y0171093D01*
X0014291Y0171057D01*
X0014397Y0170393D01*
X0014604Y0169754D01*
X0014909Y0169155D01*
X0015304Y0168612D01*
X0015779Y0168137D01*
X0016323Y0167742D01*
X0016921Y0167437D01*
X0015885Y0168060D02*
X0006360Y0168060D01*
X0006360Y0168659D02*
X0015270Y0168659D01*
X0014857Y0169257D02*
X0006360Y0169257D01*
X0006360Y0169856D02*
X0014571Y0169856D01*
X0014387Y0170454D02*
X0006360Y0170454D01*
X0006360Y0171053D02*
X0014292Y0171053D01*
X0014291Y0171693D02*
X0018260Y0171693D01*
X0018260Y0175661D01*
X0018224Y0175661D01*
X0017560Y0175556D01*
X0016921Y0175348D01*
X0016323Y0175043D01*
X0015779Y0174648D01*
X0015304Y0174173D01*
X0014909Y0173630D01*
X0014604Y0173031D01*
X0014397Y0172392D01*
X0014291Y0171729D01*
X0014291Y0171693D01*
X0014374Y0172250D02*
X0006360Y0172250D01*
X0006360Y0172848D02*
X0014545Y0172848D01*
X0014816Y0173447D02*
X0006360Y0173447D01*
X0006360Y0174045D02*
X0015211Y0174045D01*
X0015774Y0174644D02*
X0006360Y0174644D01*
X0006360Y0175242D02*
X0016713Y0175242D01*
X0018260Y0175242D02*
X0018860Y0175242D01*
X0018860Y0175661D02*
X0018896Y0175661D01*
X0019560Y0175556D01*
X0020199Y0175348D01*
X0020797Y0175043D01*
X0021341Y0174648D01*
X0021816Y0174173D01*
X0022211Y0173630D01*
X0022516Y0173031D01*
X0022723Y0172392D01*
X0022828Y0171729D01*
X0022828Y0171693D01*
X0018860Y0171693D01*
X0018260Y0171693D01*
X0018260Y0171093D01*
X0018860Y0171093D01*
X0018860Y0171693D01*
X0018860Y0175661D01*
X0018860Y0174644D02*
X0018260Y0174644D01*
X0018260Y0174045D02*
X0018860Y0174045D01*
X0018860Y0173447D02*
X0018260Y0173447D01*
X0018260Y0172848D02*
X0018860Y0172848D01*
X0018860Y0172250D02*
X0018260Y0172250D01*
X0018260Y0171651D02*
X0006360Y0171651D01*
X0006360Y0175841D02*
X0037229Y0175841D01*
X0037229Y0176439D02*
X0006360Y0176439D01*
X0006360Y0177038D02*
X0037229Y0177038D01*
X0037229Y0177464D02*
X0037229Y0174565D01*
X0039280Y0172515D01*
X0042179Y0172515D01*
X0044229Y0174565D01*
X0044229Y0177464D01*
X0042179Y0179515D01*
X0039280Y0179515D01*
X0037229Y0177464D01*
X0037401Y0177636D02*
X0006360Y0177636D01*
X0006360Y0178235D02*
X0038000Y0178235D01*
X0038598Y0178833D02*
X0006360Y0178833D01*
X0006360Y0179432D02*
X0039197Y0179432D01*
X0042262Y0179432D02*
X0049884Y0179432D01*
X0050482Y0178833D02*
X0042860Y0178833D01*
X0043459Y0178235D02*
X0051081Y0178235D01*
X0051679Y0177636D02*
X0044058Y0177636D01*
X0044229Y0177038D02*
X0052278Y0177038D01*
X0052876Y0176439D02*
X0044229Y0176439D01*
X0044229Y0175841D02*
X0053475Y0175841D01*
X0054073Y0175242D02*
X0044229Y0175242D01*
X0044229Y0174644D02*
X0054672Y0174644D01*
X0055270Y0174045D02*
X0043709Y0174045D01*
X0043111Y0173447D02*
X0055869Y0173447D01*
X0056467Y0172848D02*
X0042512Y0172848D01*
X0038946Y0172848D02*
X0022575Y0172848D01*
X0022746Y0172250D02*
X0057066Y0172250D01*
X0057664Y0171651D02*
X0018860Y0171651D01*
X0018860Y0171093D02*
X0022828Y0171093D01*
X0022828Y0171057D01*
X0022723Y0170393D01*
X0022516Y0169754D01*
X0022211Y0169155D01*
X0021816Y0168612D01*
X0021341Y0168137D01*
X0020797Y0167742D01*
X0020199Y0167437D01*
X0019560Y0167229D01*
X0018896Y0167124D01*
X0018860Y0167124D01*
X0018860Y0171093D01*
X0018860Y0171053D02*
X0018260Y0171053D01*
X0018260Y0170454D02*
X0018860Y0170454D01*
X0018860Y0169856D02*
X0018260Y0169856D01*
X0018260Y0169257D02*
X0018860Y0169257D01*
X0018860Y0168659D02*
X0018260Y0168659D01*
X0018260Y0168060D02*
X0018860Y0168060D01*
X0018860Y0167462D02*
X0018260Y0167462D01*
X0020247Y0167462D02*
X0061854Y0167462D01*
X0061255Y0168060D02*
X0021235Y0168060D01*
X0021850Y0168659D02*
X0060657Y0168659D01*
X0060058Y0169257D02*
X0022262Y0169257D01*
X0022549Y0169856D02*
X0059460Y0169856D01*
X0058861Y0170454D02*
X0022733Y0170454D01*
X0022828Y0171053D02*
X0058263Y0171053D01*
X0060427Y0172848D02*
X0066467Y0172848D01*
X0065869Y0173447D02*
X0059828Y0173447D01*
X0059230Y0174045D02*
X0065270Y0174045D01*
X0064672Y0174644D02*
X0058631Y0174644D01*
X0058033Y0175242D02*
X0064073Y0175242D01*
X0063475Y0175841D02*
X0057434Y0175841D01*
X0056836Y0176439D02*
X0062876Y0176439D01*
X0062278Y0177038D02*
X0056237Y0177038D01*
X0055639Y0177636D02*
X0061679Y0177636D01*
X0061081Y0178235D02*
X0055040Y0178235D01*
X0054442Y0178833D02*
X0060482Y0178833D01*
X0059884Y0179432D02*
X0053843Y0179432D01*
X0053245Y0180030D02*
X0059285Y0180030D01*
X0058686Y0180629D02*
X0052646Y0180629D01*
X0052048Y0181227D02*
X0058088Y0181227D01*
X0057489Y0181826D02*
X0051449Y0181826D01*
X0050851Y0182424D02*
X0056891Y0182424D01*
X0056292Y0183023D02*
X0050252Y0183023D01*
X0049654Y0183621D02*
X0055694Y0183621D01*
X0055095Y0184220D02*
X0049055Y0184220D01*
X0048457Y0184818D02*
X0054497Y0184818D01*
X0053898Y0185417D02*
X0047858Y0185417D01*
X0047260Y0186015D02*
X0053300Y0186015D01*
X0052701Y0186614D02*
X0046661Y0186614D01*
X0046063Y0187212D02*
X0052103Y0187212D01*
X0051504Y0187811D02*
X0045464Y0187811D01*
X0044866Y0188409D02*
X0050906Y0188409D01*
X0050307Y0189008D02*
X0044267Y0189008D01*
X0043669Y0189606D02*
X0049709Y0189606D01*
X0051873Y0191402D02*
X0200610Y0191402D01*
X0200610Y0192000D02*
X0051275Y0192000D01*
X0050676Y0192599D02*
X0200610Y0192599D01*
X0200610Y0193198D02*
X0042862Y0193198D01*
X0043460Y0193796D02*
X0200610Y0193796D01*
X0200610Y0194395D02*
X0044059Y0194395D01*
X0044229Y0194993D02*
X0200610Y0194993D01*
X0200610Y0195592D02*
X0044229Y0195592D01*
X0044229Y0196190D02*
X0200610Y0196190D01*
X0200610Y0196789D02*
X0044229Y0196789D01*
X0044229Y0197387D02*
X0200610Y0197387D01*
X0200610Y0197986D02*
X0043708Y0197986D01*
X0043110Y0198584D02*
X0200610Y0198584D01*
X0200610Y0199183D02*
X0042511Y0199183D01*
X0038947Y0199183D02*
X0029092Y0199183D01*
X0028494Y0199781D02*
X0200610Y0199781D01*
X0200610Y0200380D02*
X0027895Y0200380D01*
X0027297Y0200978D02*
X0200610Y0200978D01*
X0200610Y0201577D02*
X0026698Y0201577D01*
X0026100Y0202175D02*
X0200610Y0202175D01*
X0200610Y0202774D02*
X0051309Y0202774D01*
X0050975Y0202635D02*
X0052666Y0203335D01*
X0053960Y0204629D01*
X0054660Y0206320D01*
X0054660Y0208150D01*
X0053960Y0209841D01*
X0052666Y0211135D01*
X0050975Y0211835D01*
X0049145Y0211835D01*
X0047454Y0211135D01*
X0046160Y0209841D01*
X0045460Y0208150D01*
X0045460Y0206320D01*
X0046160Y0204629D01*
X0047454Y0203335D01*
X0049145Y0202635D01*
X0050975Y0202635D01*
X0052702Y0203372D02*
X0200610Y0203372D01*
X0200610Y0203971D02*
X0053301Y0203971D01*
X0053899Y0204569D02*
X0200610Y0204569D01*
X0200610Y0205168D02*
X0054183Y0205168D01*
X0054431Y0205766D02*
X0200610Y0205766D01*
X0200610Y0206365D02*
X0054660Y0206365D01*
X0054660Y0206963D02*
X0200610Y0206963D01*
X0200610Y0207562D02*
X0054660Y0207562D01*
X0054656Y0208160D02*
X0200610Y0208160D01*
X0200610Y0208759D02*
X0054408Y0208759D01*
X0054160Y0209357D02*
X0200610Y0209357D01*
X0200610Y0209956D02*
X0053845Y0209956D01*
X0053246Y0210554D02*
X0200610Y0210554D01*
X0200610Y0211153D02*
X0052622Y0211153D01*
X0051177Y0211751D02*
X0200610Y0211751D01*
X0200610Y0212350D02*
X0006360Y0212350D01*
X0006360Y0211751D02*
X0008943Y0211751D01*
X0007498Y0211153D02*
X0006360Y0211153D01*
X0006360Y0210554D02*
X0006874Y0210554D01*
X0011177Y0211751D02*
X0018943Y0211751D01*
X0017498Y0211153D02*
X0012622Y0211153D01*
X0013246Y0210554D02*
X0016874Y0210554D01*
X0016275Y0209956D02*
X0013845Y0209956D01*
X0014160Y0209357D02*
X0015960Y0209357D01*
X0015712Y0208759D02*
X0014408Y0208759D01*
X0014656Y0208160D02*
X0015464Y0208160D01*
X0015460Y0207562D02*
X0014660Y0207562D01*
X0014660Y0206963D02*
X0015460Y0206963D01*
X0015460Y0206365D02*
X0014660Y0206365D01*
X0014431Y0205766D02*
X0015689Y0205766D01*
X0015937Y0205168D02*
X0014183Y0205168D01*
X0013899Y0204569D02*
X0016221Y0204569D01*
X0016819Y0203971D02*
X0014304Y0203971D01*
X0014903Y0203372D02*
X0017418Y0203372D01*
X0018811Y0202774D02*
X0015501Y0202774D01*
X0016100Y0202175D02*
X0022140Y0202175D01*
X0022739Y0201577D02*
X0018698Y0201577D01*
X0019297Y0200978D02*
X0023337Y0200978D01*
X0023936Y0200380D02*
X0019895Y0200380D01*
X0020494Y0199781D02*
X0024534Y0199781D01*
X0025133Y0199183D02*
X0021092Y0199183D01*
X0021691Y0198584D02*
X0025731Y0198584D01*
X0026330Y0197986D02*
X0022289Y0197986D01*
X0022888Y0197387D02*
X0026928Y0197387D01*
X0027527Y0196789D02*
X0023486Y0196789D01*
X0024085Y0196190D02*
X0028125Y0196190D01*
X0028724Y0195592D02*
X0024684Y0195592D01*
X0025282Y0194993D02*
X0029322Y0194993D01*
X0029921Y0194395D02*
X0025881Y0194395D01*
X0026479Y0193796D02*
X0030519Y0193796D01*
X0031118Y0193198D02*
X0027078Y0193198D01*
X0027676Y0192599D02*
X0031716Y0192599D01*
X0032315Y0192000D02*
X0028275Y0192000D01*
X0028873Y0191402D02*
X0032913Y0191402D01*
X0033512Y0190803D02*
X0029472Y0190803D01*
X0027307Y0189008D02*
X0021890Y0189008D01*
X0021840Y0188886D02*
X0022428Y0190308D01*
X0022428Y0191847D01*
X0021840Y0193269D01*
X0020751Y0194357D01*
X0019329Y0194946D01*
X0017790Y0194946D01*
X0016369Y0194357D01*
X0015280Y0193269D01*
X0014691Y0191847D01*
X0014691Y0190308D01*
X0015280Y0188886D01*
X0016369Y0187798D01*
X0017790Y0187209D01*
X0019329Y0187209D01*
X0020751Y0187798D01*
X0021840Y0188886D01*
X0021363Y0188409D02*
X0027906Y0188409D01*
X0026709Y0189606D02*
X0022138Y0189606D01*
X0022386Y0190205D02*
X0026110Y0190205D01*
X0025512Y0190803D02*
X0022428Y0190803D01*
X0022428Y0191402D02*
X0024913Y0191402D01*
X0024315Y0192000D02*
X0022365Y0192000D01*
X0022117Y0192599D02*
X0023716Y0192599D01*
X0023118Y0193198D02*
X0021869Y0193198D01*
X0021313Y0193796D02*
X0022519Y0193796D01*
X0021921Y0194395D02*
X0020661Y0194395D01*
X0021322Y0194993D02*
X0006360Y0194993D01*
X0006360Y0194395D02*
X0016459Y0194395D01*
X0015807Y0193796D02*
X0006360Y0193796D01*
X0006360Y0193198D02*
X0015251Y0193198D01*
X0015003Y0192599D02*
X0006360Y0192599D01*
X0006360Y0192000D02*
X0014755Y0192000D01*
X0014691Y0191402D02*
X0006360Y0191402D01*
X0006360Y0190803D02*
X0014691Y0190803D01*
X0014734Y0190205D02*
X0006360Y0190205D01*
X0006360Y0189606D02*
X0014982Y0189606D01*
X0015230Y0189008D02*
X0006360Y0189008D01*
X0006360Y0188409D02*
X0015757Y0188409D01*
X0016356Y0187811D02*
X0006360Y0187811D01*
X0006360Y0187212D02*
X0017783Y0187212D01*
X0019337Y0187212D02*
X0042103Y0187212D01*
X0042701Y0186614D02*
X0006360Y0186614D01*
X0006360Y0186015D02*
X0043300Y0186015D01*
X0043898Y0185417D02*
X0006360Y0185417D01*
X0006360Y0184818D02*
X0044497Y0184818D01*
X0045095Y0184220D02*
X0006360Y0184220D01*
X0006360Y0183621D02*
X0045694Y0183621D01*
X0046292Y0183023D02*
X0006360Y0183023D01*
X0006360Y0182424D02*
X0046891Y0182424D01*
X0047489Y0181826D02*
X0006360Y0181826D01*
X0006360Y0181227D02*
X0048088Y0181227D01*
X0048686Y0180629D02*
X0006360Y0180629D01*
X0006360Y0180030D02*
X0049285Y0180030D01*
X0056063Y0187212D02*
X0200610Y0187212D01*
X0200610Y0186614D02*
X0056661Y0186614D01*
X0057260Y0186015D02*
X0086763Y0186015D01*
X0086225Y0185793D02*
X0085241Y0184808D01*
X0084708Y0183522D01*
X0084708Y0182130D01*
X0085241Y0180843D01*
X0086225Y0179859D01*
X0087512Y0179326D01*
X0094104Y0179326D01*
X0095391Y0179859D01*
X0096375Y0180843D01*
X0096908Y0182130D01*
X0096908Y0183522D01*
X0096375Y0184808D01*
X0095391Y0185793D01*
X0094104Y0186326D01*
X0087512Y0186326D01*
X0086225Y0185793D01*
X0085849Y0185417D02*
X0057858Y0185417D01*
X0058457Y0184818D02*
X0085251Y0184818D01*
X0084997Y0184220D02*
X0059055Y0184220D01*
X0059654Y0183621D02*
X0084749Y0183621D01*
X0084708Y0183023D02*
X0060252Y0183023D01*
X0060851Y0182424D02*
X0084708Y0182424D01*
X0084834Y0181826D02*
X0061449Y0181826D01*
X0062048Y0181227D02*
X0085082Y0181227D01*
X0085455Y0180629D02*
X0062646Y0180629D01*
X0063245Y0180030D02*
X0086054Y0180030D01*
X0087256Y0179432D02*
X0063843Y0179432D01*
X0064442Y0178833D02*
X0200610Y0178833D01*
X0200610Y0178235D02*
X0065040Y0178235D01*
X0065639Y0177636D02*
X0200610Y0177636D01*
X0200610Y0177038D02*
X0066237Y0177038D01*
X0066836Y0176439D02*
X0116741Y0176439D01*
X0115708Y0175841D02*
X0095275Y0175841D01*
X0095941Y0175242D02*
X0115132Y0175242D01*
X0114740Y0174644D02*
X0096443Y0174644D01*
X0096691Y0174045D02*
X0114492Y0174045D01*
X0114355Y0173447D02*
X0096908Y0173447D01*
X0094360Y0179432D02*
X0117256Y0179432D01*
X0116054Y0180030D02*
X0095562Y0180030D01*
X0096161Y0180629D02*
X0115455Y0180629D01*
X0115082Y0181227D02*
X0096534Y0181227D01*
X0096782Y0181826D02*
X0114834Y0181826D01*
X0114708Y0182424D02*
X0096908Y0182424D01*
X0096908Y0183023D02*
X0114708Y0183023D01*
X0114749Y0183621D02*
X0096867Y0183621D01*
X0096619Y0184220D02*
X0114997Y0184220D01*
X0115251Y0184818D02*
X0096365Y0184818D01*
X0095767Y0185417D02*
X0115849Y0185417D01*
X0116763Y0186015D02*
X0094853Y0186015D01*
X0086341Y0175841D02*
X0067434Y0175841D01*
X0068033Y0175242D02*
X0085675Y0175242D01*
X0085173Y0174644D02*
X0068631Y0174644D01*
X0069230Y0174045D02*
X0084925Y0174045D01*
X0084708Y0173447D02*
X0069828Y0173447D01*
X0070427Y0172848D02*
X0084708Y0172848D01*
X0084708Y0172250D02*
X0071025Y0172250D01*
X0071624Y0171651D02*
X0084906Y0171651D01*
X0085154Y0171053D02*
X0072222Y0171053D01*
X0072821Y0170454D02*
X0085630Y0170454D01*
X0086233Y0169856D02*
X0073419Y0169856D01*
X0075215Y0168060D02*
X0200610Y0168060D01*
X0200610Y0167462D02*
X0075814Y0167462D01*
X0076412Y0166863D02*
X0200610Y0166863D01*
X0200610Y0159082D02*
X0084193Y0159082D01*
X0084791Y0158484D02*
X0200610Y0158484D01*
X0200610Y0157885D02*
X0085390Y0157885D01*
X0085988Y0157287D02*
X0200610Y0157287D01*
X0200610Y0156688D02*
X0198830Y0156688D01*
X0200211Y0156090D02*
X0200610Y0156090D01*
X0196290Y0156688D02*
X0086587Y0156688D01*
X0084422Y0154893D02*
X0078382Y0154893D01*
X0077784Y0155491D02*
X0083824Y0155491D01*
X0083225Y0156090D02*
X0077185Y0156090D01*
X0076587Y0156688D02*
X0082627Y0156688D01*
X0082028Y0157287D02*
X0075988Y0157287D01*
X0075390Y0157885D02*
X0081430Y0157885D01*
X0080831Y0158484D02*
X0074791Y0158484D01*
X0074193Y0159082D02*
X0080233Y0159082D01*
X0079634Y0159681D02*
X0073594Y0159681D01*
X0072996Y0160279D02*
X0079036Y0160279D01*
X0078437Y0160878D02*
X0072397Y0160878D01*
X0071799Y0161476D02*
X0077839Y0161476D01*
X0077240Y0162075D02*
X0071200Y0162075D01*
X0070602Y0162673D02*
X0076642Y0162673D01*
X0076043Y0163272D02*
X0070003Y0163272D01*
X0069405Y0163870D02*
X0075445Y0163870D01*
X0074846Y0164469D02*
X0068806Y0164469D01*
X0068208Y0165067D02*
X0074248Y0165067D01*
X0073649Y0165666D02*
X0067609Y0165666D01*
X0067011Y0166265D02*
X0073051Y0166265D01*
X0072452Y0166863D02*
X0066412Y0166863D01*
X0065814Y0167462D02*
X0071854Y0167462D01*
X0071255Y0168060D02*
X0065215Y0168060D01*
X0064617Y0168659D02*
X0070657Y0168659D01*
X0070058Y0169257D02*
X0064018Y0169257D01*
X0063419Y0169856D02*
X0069460Y0169856D01*
X0068861Y0170454D02*
X0062821Y0170454D01*
X0062222Y0171053D02*
X0068263Y0171053D01*
X0067664Y0171651D02*
X0061624Y0171651D01*
X0061025Y0172250D02*
X0067066Y0172250D01*
X0077011Y0166265D02*
X0087364Y0166265D01*
X0086099Y0165666D02*
X0077609Y0165666D01*
X0078208Y0165067D02*
X0085500Y0165067D01*
X0085100Y0164469D02*
X0078806Y0164469D01*
X0079405Y0163870D02*
X0084852Y0163870D01*
X0084708Y0163272D02*
X0080003Y0163272D01*
X0080602Y0162673D02*
X0084708Y0162673D01*
X0084731Y0162075D02*
X0081200Y0162075D01*
X0081799Y0161476D02*
X0084979Y0161476D01*
X0085226Y0160878D02*
X0082397Y0160878D01*
X0082996Y0160279D02*
X0085805Y0160279D01*
X0086654Y0159681D02*
X0083594Y0159681D01*
X0085021Y0154294D02*
X0078981Y0154294D01*
X0079579Y0153696D02*
X0084780Y0153696D01*
X0084708Y0153097D02*
X0080178Y0153097D01*
X0080776Y0152499D02*
X0084708Y0152499D01*
X0084803Y0151900D02*
X0081375Y0151900D01*
X0081973Y0151302D02*
X0085051Y0151302D01*
X0085381Y0150703D02*
X0082572Y0150703D01*
X0083170Y0150105D02*
X0085979Y0150105D01*
X0087076Y0149506D02*
X0083769Y0149506D01*
X0084367Y0148908D02*
X0194382Y0148908D01*
X0195018Y0148309D02*
X0084966Y0148309D01*
X0085564Y0147711D02*
X0196463Y0147711D01*
X0195869Y0146514D02*
X0086761Y0146514D01*
X0086163Y0147112D02*
X0200610Y0147112D01*
X0200610Y0146514D02*
X0199251Y0146514D01*
X0200385Y0145915D02*
X0200610Y0145915D01*
X0200610Y0147711D02*
X0198657Y0147711D01*
X0200102Y0148309D02*
X0200610Y0148309D01*
X0200563Y0138733D02*
X0200610Y0138733D01*
X0200610Y0138134D02*
X0199680Y0138134D01*
X0200610Y0137536D02*
X0006360Y0137536D01*
X0006360Y0138134D02*
X0007940Y0138134D01*
X0007057Y0138733D02*
X0006360Y0138733D01*
X0006360Y0139331D02*
X0006458Y0139331D01*
X0006360Y0136937D02*
X0200610Y0136937D01*
X0200610Y0136339D02*
X0199673Y0136339D01*
X0200560Y0135740D02*
X0200610Y0135740D01*
X0195440Y0138134D02*
X0012180Y0138134D01*
X0013063Y0138733D02*
X0194557Y0138733D01*
X0200388Y0128558D02*
X0200610Y0128558D01*
X0200610Y0127960D02*
X0199259Y0127960D01*
X0198650Y0126763D02*
X0200610Y0126763D01*
X0200610Y0127361D02*
X0006360Y0127361D01*
X0006360Y0126763D02*
X0008970Y0126763D01*
X0008361Y0127960D02*
X0006360Y0127960D01*
X0006360Y0128558D02*
X0007231Y0128558D01*
X0006633Y0129157D02*
X0006360Y0129157D01*
X0006360Y0126164D02*
X0007525Y0126164D01*
X0006885Y0125566D02*
X0006360Y0125566D01*
X0006360Y0118982D02*
X0006808Y0118982D01*
X0006360Y0118384D02*
X0007406Y0118384D01*
X0006461Y0135142D02*
X0006360Y0135142D01*
X0006360Y0135740D02*
X0007060Y0135740D01*
X0006360Y0136339D02*
X0007947Y0136339D01*
X0006811Y0155491D02*
X0006360Y0155491D01*
X0006360Y0156090D02*
X0007409Y0156090D01*
X0006360Y0156688D02*
X0008790Y0156688D01*
X0022304Y0173447D02*
X0038348Y0173447D01*
X0037749Y0174045D02*
X0021909Y0174045D01*
X0021346Y0174644D02*
X0037229Y0174644D01*
X0037229Y0175242D02*
X0020407Y0175242D01*
X0020764Y0187811D02*
X0041504Y0187811D01*
X0038597Y0193198D02*
X0035078Y0193198D01*
X0034479Y0193796D02*
X0037998Y0193796D01*
X0037400Y0194395D02*
X0033881Y0194395D01*
X0033282Y0194993D02*
X0037229Y0194993D01*
X0037229Y0195592D02*
X0032684Y0195592D01*
X0032085Y0196190D02*
X0037229Y0196190D01*
X0037229Y0196789D02*
X0031486Y0196789D01*
X0030888Y0197387D02*
X0037229Y0197387D01*
X0037750Y0197986D02*
X0030289Y0197986D01*
X0029691Y0198584D02*
X0038349Y0198584D01*
X0039145Y0202635D02*
X0037454Y0203335D01*
X0036160Y0204629D01*
X0035460Y0206320D01*
X0035460Y0208150D01*
X0036160Y0209841D01*
X0037454Y0211135D01*
X0039145Y0211835D01*
X0040975Y0211835D01*
X0042666Y0211135D01*
X0043960Y0209841D01*
X0044660Y0208150D01*
X0044660Y0206320D01*
X0043960Y0204629D01*
X0042666Y0203335D01*
X0040975Y0202635D01*
X0039145Y0202635D01*
X0038811Y0202774D02*
X0032317Y0202774D01*
X0031979Y0202602D02*
X0032681Y0202959D01*
X0033317Y0203421D01*
X0033874Y0203978D01*
X0034336Y0204615D01*
X0034694Y0205316D01*
X0034937Y0206064D01*
X0035060Y0206842D01*
X0035060Y0206935D01*
X0030360Y0206935D01*
X0030360Y0202235D01*
X0030453Y0202235D01*
X0031231Y0202358D01*
X0031979Y0202602D01*
X0033250Y0203372D02*
X0037418Y0203372D01*
X0036819Y0203971D02*
X0033867Y0203971D01*
X0034303Y0204569D02*
X0036221Y0204569D01*
X0035937Y0205168D02*
X0034618Y0205168D01*
X0034840Y0205766D02*
X0035689Y0205766D01*
X0035460Y0206365D02*
X0034984Y0206365D01*
X0035460Y0206963D02*
X0030360Y0206963D01*
X0030360Y0206935D02*
X0030360Y0207535D01*
X0035060Y0207535D01*
X0035060Y0207629D01*
X0034937Y0208406D01*
X0034694Y0209155D01*
X0034336Y0209856D01*
X0033874Y0210492D01*
X0033317Y0211049D01*
X0032681Y0211512D01*
X0031979Y0211869D01*
X0031231Y0212112D01*
X0030453Y0212235D01*
X0030360Y0212235D01*
X0030360Y0207535D01*
X0029760Y0207535D01*
X0029760Y0206935D01*
X0030360Y0206935D01*
X0030360Y0206365D02*
X0029760Y0206365D01*
X0029760Y0206935D02*
X0029760Y0202235D01*
X0029666Y0202235D01*
X0028889Y0202358D01*
X0028141Y0202602D01*
X0027439Y0202959D01*
X0026803Y0203421D01*
X0026246Y0203978D01*
X0025784Y0204615D01*
X0025426Y0205316D01*
X0025183Y0206064D01*
X0025060Y0206842D01*
X0025060Y0206935D01*
X0029760Y0206935D01*
X0029760Y0206963D02*
X0024660Y0206963D01*
X0024660Y0206365D02*
X0025136Y0206365D01*
X0025280Y0205766D02*
X0024431Y0205766D01*
X0024183Y0205168D02*
X0025502Y0205168D01*
X0025817Y0204569D02*
X0023899Y0204569D01*
X0024304Y0203971D02*
X0026253Y0203971D01*
X0026870Y0203372D02*
X0024903Y0203372D01*
X0025501Y0202774D02*
X0027803Y0202774D01*
X0029760Y0202774D02*
X0030360Y0202774D01*
X0030360Y0203372D02*
X0029760Y0203372D01*
X0029760Y0203971D02*
X0030360Y0203971D01*
X0030360Y0204569D02*
X0029760Y0204569D01*
X0029760Y0205168D02*
X0030360Y0205168D01*
X0030360Y0205766D02*
X0029760Y0205766D01*
X0029760Y0207535D02*
X0025060Y0207535D01*
X0025060Y0207629D01*
X0025183Y0208406D01*
X0025426Y0209155D01*
X0025784Y0209856D01*
X0026246Y0210492D01*
X0026803Y0211049D01*
X0027439Y0211512D01*
X0028141Y0211869D01*
X0028889Y0212112D01*
X0029666Y0212235D01*
X0029760Y0212235D01*
X0029760Y0207535D01*
X0029760Y0207562D02*
X0030360Y0207562D01*
X0030360Y0208160D02*
X0029760Y0208160D01*
X0029760Y0208759D02*
X0030360Y0208759D01*
X0030360Y0209357D02*
X0029760Y0209357D01*
X0029760Y0209956D02*
X0030360Y0209956D01*
X0030360Y0210554D02*
X0029760Y0210554D01*
X0029760Y0211153D02*
X0030360Y0211153D01*
X0030360Y0211751D02*
X0029760Y0211751D01*
X0027910Y0211751D02*
X0021177Y0211751D01*
X0022622Y0211153D02*
X0026946Y0211153D01*
X0026308Y0210554D02*
X0023246Y0210554D01*
X0023845Y0209956D02*
X0025856Y0209956D01*
X0025530Y0209357D02*
X0024160Y0209357D01*
X0024408Y0208759D02*
X0025298Y0208759D01*
X0025144Y0208160D02*
X0024656Y0208160D01*
X0024660Y0207562D02*
X0025060Y0207562D01*
X0021542Y0202774D02*
X0021309Y0202774D01*
X0017731Y0198584D02*
X0006360Y0198584D01*
X0006360Y0197986D02*
X0018330Y0197986D01*
X0018928Y0197387D02*
X0006360Y0197387D01*
X0006360Y0196789D02*
X0019527Y0196789D01*
X0020125Y0196190D02*
X0006360Y0196190D01*
X0006360Y0195592D02*
X0020724Y0195592D01*
X0015133Y0199183D02*
X0006360Y0199183D01*
X0006360Y0199781D02*
X0014534Y0199781D01*
X0013936Y0200380D02*
X0006360Y0200380D01*
X0006360Y0200978D02*
X0013337Y0200978D01*
X0012739Y0201577D02*
X0006360Y0201577D01*
X0006360Y0202175D02*
X0012140Y0202175D01*
X0011542Y0202774D02*
X0011309Y0202774D01*
X0008811Y0202774D02*
X0006360Y0202774D01*
X0006360Y0203372D02*
X0007418Y0203372D01*
X0006819Y0203971D02*
X0006360Y0203971D01*
X0032210Y0211751D02*
X0038943Y0211751D01*
X0037498Y0211153D02*
X0033174Y0211153D01*
X0033812Y0210554D02*
X0036874Y0210554D01*
X0036275Y0209956D02*
X0034264Y0209956D01*
X0034590Y0209357D02*
X0035960Y0209357D01*
X0035712Y0208759D02*
X0034822Y0208759D01*
X0034976Y0208160D02*
X0035464Y0208160D01*
X0035460Y0207562D02*
X0035060Y0207562D01*
X0041177Y0211751D02*
X0048943Y0211751D01*
X0047498Y0211153D02*
X0042622Y0211153D01*
X0043246Y0210554D02*
X0046874Y0210554D01*
X0046275Y0209956D02*
X0043845Y0209956D01*
X0044160Y0209357D02*
X0045960Y0209357D01*
X0045712Y0208759D02*
X0044408Y0208759D01*
X0044656Y0208160D02*
X0045464Y0208160D01*
X0045460Y0207562D02*
X0044660Y0207562D01*
X0044660Y0206963D02*
X0045460Y0206963D01*
X0045460Y0206365D02*
X0044660Y0206365D01*
X0044431Y0205766D02*
X0045689Y0205766D01*
X0045937Y0205168D02*
X0044183Y0205168D01*
X0043899Y0204569D02*
X0046221Y0204569D01*
X0046819Y0203971D02*
X0043301Y0203971D01*
X0042702Y0203372D02*
X0047418Y0203372D01*
X0048811Y0202774D02*
X0041309Y0202774D01*
X0052472Y0190803D02*
X0200610Y0190803D01*
X0200610Y0190205D02*
X0053070Y0190205D01*
X0053669Y0189606D02*
X0200610Y0189606D01*
X0200610Y0189008D02*
X0054267Y0189008D01*
X0054866Y0188409D02*
X0200610Y0188409D01*
X0200610Y0187811D02*
X0055464Y0187811D01*
X0050244Y0075291D02*
X0062024Y0075291D01*
X0062623Y0074692D02*
X0050843Y0074692D01*
X0051441Y0074094D02*
X0063222Y0074094D01*
X0063820Y0073495D02*
X0052040Y0073495D01*
X0052291Y0072897D02*
X0064419Y0072897D01*
X0065017Y0072298D02*
X0052291Y0072298D01*
X0048691Y0072298D02*
X0048091Y0072298D01*
X0048091Y0072897D02*
X0048691Y0072897D01*
X0048691Y0073495D02*
X0048091Y0073495D01*
X0048091Y0074094D02*
X0048691Y0074094D01*
X0048691Y0074692D02*
X0048091Y0074692D01*
X0048091Y0075291D02*
X0048691Y0075291D01*
X0006360Y0019629D02*
X0200610Y0019629D01*
X0200610Y0019031D02*
X0006360Y0019031D01*
X0112027Y0026811D02*
X0121226Y0026811D01*
X0120628Y0026213D02*
X0112625Y0026213D01*
X0113066Y0025614D02*
X0120269Y0025614D01*
X0120021Y0025016D02*
X0113066Y0025016D01*
X0132347Y0027410D02*
X0137694Y0027410D01*
X0138266Y0027647D02*
X0136989Y0027118D01*
X0136012Y0026141D01*
X0135483Y0024863D01*
X0135483Y0023481D01*
X0136012Y0022204D01*
X0136989Y0021226D01*
X0138266Y0020697D01*
X0139649Y0020697D01*
X0140926Y0021226D01*
X0141903Y0022204D01*
X0142432Y0023481D01*
X0142432Y0024863D01*
X0141903Y0026141D01*
X0140926Y0027118D01*
X0139649Y0027647D01*
X0138266Y0027647D01*
X0136683Y0026811D02*
X0133359Y0026811D01*
X0133957Y0026213D02*
X0136084Y0026213D01*
X0135794Y0025614D02*
X0134247Y0025614D01*
X0134495Y0025016D02*
X0135546Y0025016D01*
X0135483Y0024417D02*
X0134558Y0024417D01*
X0134558Y0023819D02*
X0135483Y0023819D01*
X0135591Y0023220D02*
X0134450Y0023220D01*
X0134202Y0022622D02*
X0135839Y0022622D01*
X0136192Y0022023D02*
X0133849Y0022023D01*
X0133250Y0021425D02*
X0136791Y0021425D01*
X0137955Y0020826D02*
X0132086Y0020826D01*
X0139960Y0020826D02*
X0144865Y0020826D01*
X0144996Y0020738D02*
X0145701Y0020446D01*
X0146450Y0020297D01*
X0146532Y0020297D01*
X0146532Y0023872D01*
X0147132Y0023872D01*
X0147132Y0024472D01*
X0146532Y0024472D01*
X0146532Y0023872D01*
X0142957Y0023872D01*
X0142957Y0023791D01*
X0143106Y0023042D01*
X0143398Y0022337D01*
X0143822Y0021702D01*
X0144362Y0021162D01*
X0144996Y0020738D01*
X0144099Y0021425D02*
X0141124Y0021425D01*
X0141723Y0022023D02*
X0143607Y0022023D01*
X0143280Y0022622D02*
X0142077Y0022622D01*
X0142324Y0023220D02*
X0143070Y0023220D01*
X0142957Y0023819D02*
X0142432Y0023819D01*
X0142432Y0024417D02*
X0146532Y0024417D01*
X0146532Y0023819D02*
X0147132Y0023819D01*
X0147132Y0023872D02*
X0147132Y0020297D01*
X0147213Y0020297D01*
X0147962Y0020446D01*
X0148667Y0020738D01*
X0149302Y0021162D01*
X0149841Y0021702D01*
X0150265Y0022337D01*
X0150558Y0023042D01*
X0150706Y0023791D01*
X0150706Y0023872D01*
X0147132Y0023872D01*
X0147132Y0024417D02*
X0151437Y0024417D01*
X0151437Y0024822D02*
X0151437Y0023522D01*
X0151935Y0022321D01*
X0152854Y0021401D01*
X0154055Y0020904D01*
X0155356Y0020904D01*
X0156557Y0021401D01*
X0157477Y0022321D01*
X0157974Y0023522D01*
X0157974Y0024822D01*
X0157477Y0026024D01*
X0156557Y0026943D01*
X0155356Y0027441D01*
X0154055Y0027441D01*
X0152854Y0026943D01*
X0151935Y0026024D01*
X0151437Y0024822D01*
X0151517Y0025016D02*
X0150615Y0025016D01*
X0150428Y0025614D02*
X0151765Y0025614D01*
X0152124Y0026213D02*
X0150128Y0026213D01*
X0149672Y0026811D02*
X0152722Y0026811D01*
X0153981Y0027410D02*
X0148961Y0027410D01*
X0147132Y0027410D02*
X0146532Y0027410D01*
X0146532Y0026811D02*
X0147132Y0026811D01*
X0147132Y0026213D02*
X0146532Y0026213D01*
X0146532Y0025614D02*
X0147132Y0025614D01*
X0147132Y0025016D02*
X0146532Y0025016D01*
X0146532Y0023220D02*
X0147132Y0023220D01*
X0147132Y0022622D02*
X0146532Y0022622D01*
X0146532Y0022023D02*
X0147132Y0022023D01*
X0147132Y0021425D02*
X0146532Y0021425D01*
X0146532Y0020826D02*
X0147132Y0020826D01*
X0148799Y0020826D02*
X0183357Y0020826D01*
X0181912Y0021425D02*
X0156581Y0021425D01*
X0157179Y0022023D02*
X0180990Y0022023D01*
X0180392Y0022622D02*
X0157601Y0022622D01*
X0157849Y0023220D02*
X0179793Y0023220D01*
X0179391Y0023819D02*
X0157974Y0023819D01*
X0157974Y0024417D02*
X0179143Y0024417D01*
X0178895Y0025016D02*
X0157894Y0025016D01*
X0157646Y0025614D02*
X0178647Y0025614D01*
X0178538Y0026213D02*
X0157287Y0026213D01*
X0156689Y0026811D02*
X0178538Y0026811D01*
X0178538Y0027410D02*
X0155430Y0027410D01*
X0151437Y0023819D02*
X0150706Y0023819D01*
X0150593Y0023220D02*
X0151562Y0023220D01*
X0151810Y0022622D02*
X0150383Y0022622D01*
X0150056Y0022023D02*
X0152232Y0022023D01*
X0152831Y0021425D02*
X0149564Y0021425D01*
X0143049Y0025016D02*
X0142369Y0025016D01*
X0142121Y0025614D02*
X0143235Y0025614D01*
X0143535Y0026213D02*
X0141831Y0026213D01*
X0141233Y0026811D02*
X0143991Y0026811D01*
X0144703Y0027410D02*
X0140221Y0027410D01*
X0199915Y0096239D02*
X0200610Y0096239D01*
X0200486Y0105815D02*
X0200610Y0105815D01*
X0200610Y0106413D02*
X0199493Y0106413D01*
X0199860Y0108209D02*
X0200610Y0108209D01*
X0200610Y0126164D02*
X0200095Y0126164D01*
M02*
