%
M48
M72
T01C0.01378
T02C0.02756
T03C0.03150
T04C0.03200
T05C0.03937
T06C0.04000
T07C0.07480
%
T01
X172060Y82235
T02
X74627Y87302
X74627Y96908
X74627Y106302
T03
X131084Y24172
X138958Y24172
X146832Y24172
X164969Y35243
X169694Y38393
X164969Y41542
X169694Y44692
X164969Y47841
T04
X36186Y51794
X48391Y51629
X51741Y31349
X41741Y31349
X68962Y33936
X68962Y23936
X86619Y24377
X86619Y34377
X101666Y29156
X109166Y24156
X109166Y34156
X120808Y52826
X120808Y62826
X120808Y72826
X120808Y82826
X120808Y92826
X120808Y102826
X120808Y112826
X120808Y122826
X120808Y132826
X120808Y142826
X120808Y152826
X120808Y162826
X120808Y172826
X120808Y182826
X134060Y182735
X134060Y172735
X90808Y172826
X90808Y182826
X90808Y162826
X90808Y152826
X90808Y142826
X90808Y132826
X90808Y122826
X90808Y112826
X90808Y102826
X90808Y92826
X90808Y82826
X90808Y72826
X90808Y62826
X90808Y52826
X78060Y62538
X68060Y62538
X48391Y71629
X36186Y71794
X23485Y63928
X13485Y63928
X24666Y91841
X24666Y111841
X40729Y176015
X40729Y196015
X133091Y102432
X143091Y102432
T05
X19847Y24759
X19847Y44444
X123210Y24172
X154706Y24172
X18560Y171393
X18560Y191078
T06
X10060Y207235
X20060Y207235
X30060Y207235
X40060Y207235
X50060Y207235
X10060Y152235
X10060Y142235
X10060Y132235
X10060Y122235
X10060Y112235
X10060Y102235
X10060Y92235
X10060Y82235
X197560Y82235
X197560Y92235
X197560Y102235
X197560Y112235
X197560Y122235
X197560Y132235
X197560Y142235
X197560Y152235
T07
X185048Y27172
X185048Y55912
M30
