G75*
%MOIN*%
%OFA0B0*%
%FSLAX25Y25*%
%IPPOS*%
%LPD*%
%AMOC8*
5,1,8,0,0,1.08239X$1,22.5*
%
%ADD10C,0.00000*%
%ADD11OC8,0.05200*%
%ADD12C,0.05150*%
%ADD13C,0.11220*%
%ADD14C,0.07400*%
%ADD15OC8,0.06200*%
%ADD16C,0.06200*%
%ADD17C,0.04756*%
%ADD18C,0.05200*%
%ADD19C,0.05937*%
%ADD20C,0.01000*%
%ADD21C,0.02578*%
D10*
X0005060Y0017235D02*
X0005060Y0214086D01*
X0201910Y0214086D01*
X0201910Y0017235D01*
X0005060Y0017235D01*
X0121241Y0024172D02*
X0121243Y0024260D01*
X0121249Y0024348D01*
X0121259Y0024436D01*
X0121273Y0024524D01*
X0121290Y0024610D01*
X0121312Y0024696D01*
X0121337Y0024780D01*
X0121367Y0024864D01*
X0121399Y0024946D01*
X0121436Y0025026D01*
X0121476Y0025105D01*
X0121520Y0025182D01*
X0121567Y0025257D01*
X0121617Y0025329D01*
X0121671Y0025400D01*
X0121727Y0025467D01*
X0121787Y0025533D01*
X0121849Y0025595D01*
X0121915Y0025655D01*
X0121982Y0025711D01*
X0122053Y0025765D01*
X0122125Y0025815D01*
X0122200Y0025862D01*
X0122277Y0025906D01*
X0122356Y0025946D01*
X0122436Y0025983D01*
X0122518Y0026015D01*
X0122602Y0026045D01*
X0122686Y0026070D01*
X0122772Y0026092D01*
X0122858Y0026109D01*
X0122946Y0026123D01*
X0123034Y0026133D01*
X0123122Y0026139D01*
X0123210Y0026141D01*
X0123298Y0026139D01*
X0123386Y0026133D01*
X0123474Y0026123D01*
X0123562Y0026109D01*
X0123648Y0026092D01*
X0123734Y0026070D01*
X0123818Y0026045D01*
X0123902Y0026015D01*
X0123984Y0025983D01*
X0124064Y0025946D01*
X0124143Y0025906D01*
X0124220Y0025862D01*
X0124295Y0025815D01*
X0124367Y0025765D01*
X0124438Y0025711D01*
X0124505Y0025655D01*
X0124571Y0025595D01*
X0124633Y0025533D01*
X0124693Y0025467D01*
X0124749Y0025400D01*
X0124803Y0025329D01*
X0124853Y0025257D01*
X0124900Y0025182D01*
X0124944Y0025105D01*
X0124984Y0025026D01*
X0125021Y0024946D01*
X0125053Y0024864D01*
X0125083Y0024780D01*
X0125108Y0024696D01*
X0125130Y0024610D01*
X0125147Y0024524D01*
X0125161Y0024436D01*
X0125171Y0024348D01*
X0125177Y0024260D01*
X0125179Y0024172D01*
X0125177Y0024084D01*
X0125171Y0023996D01*
X0125161Y0023908D01*
X0125147Y0023820D01*
X0125130Y0023734D01*
X0125108Y0023648D01*
X0125083Y0023564D01*
X0125053Y0023480D01*
X0125021Y0023398D01*
X0124984Y0023318D01*
X0124944Y0023239D01*
X0124900Y0023162D01*
X0124853Y0023087D01*
X0124803Y0023015D01*
X0124749Y0022944D01*
X0124693Y0022877D01*
X0124633Y0022811D01*
X0124571Y0022749D01*
X0124505Y0022689D01*
X0124438Y0022633D01*
X0124367Y0022579D01*
X0124295Y0022529D01*
X0124220Y0022482D01*
X0124143Y0022438D01*
X0124064Y0022398D01*
X0123984Y0022361D01*
X0123902Y0022329D01*
X0123818Y0022299D01*
X0123734Y0022274D01*
X0123648Y0022252D01*
X0123562Y0022235D01*
X0123474Y0022221D01*
X0123386Y0022211D01*
X0123298Y0022205D01*
X0123210Y0022203D01*
X0123122Y0022205D01*
X0123034Y0022211D01*
X0122946Y0022221D01*
X0122858Y0022235D01*
X0122772Y0022252D01*
X0122686Y0022274D01*
X0122602Y0022299D01*
X0122518Y0022329D01*
X0122436Y0022361D01*
X0122356Y0022398D01*
X0122277Y0022438D01*
X0122200Y0022482D01*
X0122125Y0022529D01*
X0122053Y0022579D01*
X0121982Y0022633D01*
X0121915Y0022689D01*
X0121849Y0022749D01*
X0121787Y0022811D01*
X0121727Y0022877D01*
X0121671Y0022944D01*
X0121617Y0023015D01*
X0121567Y0023087D01*
X0121520Y0023162D01*
X0121476Y0023239D01*
X0121436Y0023318D01*
X0121399Y0023398D01*
X0121367Y0023480D01*
X0121337Y0023564D01*
X0121312Y0023648D01*
X0121290Y0023734D01*
X0121273Y0023820D01*
X0121259Y0023908D01*
X0121249Y0023996D01*
X0121243Y0024084D01*
X0121241Y0024172D01*
X0152737Y0024172D02*
X0152739Y0024260D01*
X0152745Y0024348D01*
X0152755Y0024436D01*
X0152769Y0024524D01*
X0152786Y0024610D01*
X0152808Y0024696D01*
X0152833Y0024780D01*
X0152863Y0024864D01*
X0152895Y0024946D01*
X0152932Y0025026D01*
X0152972Y0025105D01*
X0153016Y0025182D01*
X0153063Y0025257D01*
X0153113Y0025329D01*
X0153167Y0025400D01*
X0153223Y0025467D01*
X0153283Y0025533D01*
X0153345Y0025595D01*
X0153411Y0025655D01*
X0153478Y0025711D01*
X0153549Y0025765D01*
X0153621Y0025815D01*
X0153696Y0025862D01*
X0153773Y0025906D01*
X0153852Y0025946D01*
X0153932Y0025983D01*
X0154014Y0026015D01*
X0154098Y0026045D01*
X0154182Y0026070D01*
X0154268Y0026092D01*
X0154354Y0026109D01*
X0154442Y0026123D01*
X0154530Y0026133D01*
X0154618Y0026139D01*
X0154706Y0026141D01*
X0154794Y0026139D01*
X0154882Y0026133D01*
X0154970Y0026123D01*
X0155058Y0026109D01*
X0155144Y0026092D01*
X0155230Y0026070D01*
X0155314Y0026045D01*
X0155398Y0026015D01*
X0155480Y0025983D01*
X0155560Y0025946D01*
X0155639Y0025906D01*
X0155716Y0025862D01*
X0155791Y0025815D01*
X0155863Y0025765D01*
X0155934Y0025711D01*
X0156001Y0025655D01*
X0156067Y0025595D01*
X0156129Y0025533D01*
X0156189Y0025467D01*
X0156245Y0025400D01*
X0156299Y0025329D01*
X0156349Y0025257D01*
X0156396Y0025182D01*
X0156440Y0025105D01*
X0156480Y0025026D01*
X0156517Y0024946D01*
X0156549Y0024864D01*
X0156579Y0024780D01*
X0156604Y0024696D01*
X0156626Y0024610D01*
X0156643Y0024524D01*
X0156657Y0024436D01*
X0156667Y0024348D01*
X0156673Y0024260D01*
X0156675Y0024172D01*
X0156673Y0024084D01*
X0156667Y0023996D01*
X0156657Y0023908D01*
X0156643Y0023820D01*
X0156626Y0023734D01*
X0156604Y0023648D01*
X0156579Y0023564D01*
X0156549Y0023480D01*
X0156517Y0023398D01*
X0156480Y0023318D01*
X0156440Y0023239D01*
X0156396Y0023162D01*
X0156349Y0023087D01*
X0156299Y0023015D01*
X0156245Y0022944D01*
X0156189Y0022877D01*
X0156129Y0022811D01*
X0156067Y0022749D01*
X0156001Y0022689D01*
X0155934Y0022633D01*
X0155863Y0022579D01*
X0155791Y0022529D01*
X0155716Y0022482D01*
X0155639Y0022438D01*
X0155560Y0022398D01*
X0155480Y0022361D01*
X0155398Y0022329D01*
X0155314Y0022299D01*
X0155230Y0022274D01*
X0155144Y0022252D01*
X0155058Y0022235D01*
X0154970Y0022221D01*
X0154882Y0022211D01*
X0154794Y0022205D01*
X0154706Y0022203D01*
X0154618Y0022205D01*
X0154530Y0022211D01*
X0154442Y0022221D01*
X0154354Y0022235D01*
X0154268Y0022252D01*
X0154182Y0022274D01*
X0154098Y0022299D01*
X0154014Y0022329D01*
X0153932Y0022361D01*
X0153852Y0022398D01*
X0153773Y0022438D01*
X0153696Y0022482D01*
X0153621Y0022529D01*
X0153549Y0022579D01*
X0153478Y0022633D01*
X0153411Y0022689D01*
X0153345Y0022749D01*
X0153283Y0022811D01*
X0153223Y0022877D01*
X0153167Y0022944D01*
X0153113Y0023015D01*
X0153063Y0023087D01*
X0153016Y0023162D01*
X0152972Y0023239D01*
X0152932Y0023318D01*
X0152895Y0023398D01*
X0152863Y0023480D01*
X0152833Y0023564D01*
X0152808Y0023648D01*
X0152786Y0023734D01*
X0152769Y0023820D01*
X0152755Y0023908D01*
X0152745Y0023996D01*
X0152739Y0024084D01*
X0152737Y0024172D01*
D11*
X0109166Y0024156D03*
X0101666Y0029156D03*
X0109166Y0034156D03*
X0078060Y0062538D03*
X0068060Y0062538D03*
X0048391Y0071629D03*
X0036186Y0071794D03*
X0023485Y0063928D03*
X0013485Y0063928D03*
X0036186Y0051794D03*
X0048391Y0051629D03*
X0051741Y0031349D03*
X0041741Y0031349D03*
X0068962Y0033936D03*
X0068962Y0023936D03*
X0024666Y0091841D03*
X0024666Y0111841D03*
X0040729Y0176015D03*
X0040729Y0196015D03*
X0134060Y0182735D03*
X0134060Y0172735D03*
D12*
X0164969Y0047841D03*
X0169694Y0044692D03*
X0164969Y0041542D03*
X0169694Y0038393D03*
X0164969Y0035243D03*
X0146832Y0024172D03*
X0138958Y0024172D03*
X0131084Y0024172D03*
D13*
X0185048Y0027172D03*
X0185048Y0055912D03*
D14*
X0197560Y0082235D03*
X0197560Y0092235D03*
X0197560Y0102235D03*
X0197560Y0112235D03*
X0197560Y0122235D03*
X0197560Y0132235D03*
X0197560Y0142235D03*
X0197560Y0152235D03*
X0050060Y0207235D03*
X0040060Y0207235D03*
X0030060Y0207235D03*
X0020060Y0207235D03*
X0010060Y0207235D03*
X0010060Y0152235D03*
X0010060Y0142235D03*
X0010060Y0132235D03*
X0010060Y0122235D03*
X0010060Y0112235D03*
X0010060Y0102235D03*
X0010060Y0092235D03*
X0010060Y0082235D03*
D15*
X0086619Y0024377D03*
X0143091Y0102432D03*
D16*
X0133091Y0102432D03*
X0086619Y0034377D03*
D17*
X0074627Y0087302D03*
X0074627Y0096908D03*
X0074627Y0106302D03*
D18*
X0088208Y0102826D02*
X0093408Y0102826D01*
X0093408Y0092826D02*
X0088208Y0092826D01*
X0088208Y0082826D02*
X0093408Y0082826D01*
X0093408Y0072826D02*
X0088208Y0072826D01*
X0088208Y0062826D02*
X0093408Y0062826D01*
X0093408Y0052826D02*
X0088208Y0052826D01*
X0118208Y0052826D02*
X0123408Y0052826D01*
X0123408Y0062826D02*
X0118208Y0062826D01*
X0118208Y0072826D02*
X0123408Y0072826D01*
X0123408Y0082826D02*
X0118208Y0082826D01*
X0118208Y0092826D02*
X0123408Y0092826D01*
X0123408Y0102826D02*
X0118208Y0102826D01*
X0118208Y0112826D02*
X0123408Y0112826D01*
X0123408Y0122826D02*
X0118208Y0122826D01*
X0118208Y0132826D02*
X0123408Y0132826D01*
X0123408Y0142826D02*
X0118208Y0142826D01*
X0118208Y0152826D02*
X0123408Y0152826D01*
X0123408Y0162826D02*
X0118208Y0162826D01*
X0118208Y0172826D02*
X0123408Y0172826D01*
X0123408Y0182826D02*
X0118208Y0182826D01*
X0093408Y0182826D02*
X0088208Y0182826D01*
X0088208Y0172826D02*
X0093408Y0172826D01*
X0093408Y0162826D02*
X0088208Y0162826D01*
X0088208Y0152826D02*
X0093408Y0152826D01*
X0093408Y0142826D02*
X0088208Y0142826D01*
X0088208Y0132826D02*
X0093408Y0132826D01*
X0093408Y0122826D02*
X0088208Y0122826D01*
X0088208Y0112826D02*
X0093408Y0112826D01*
D19*
X0018560Y0171393D03*
X0018560Y0191078D03*
X0019847Y0044444D03*
X0019847Y0024759D03*
D20*
X0019847Y0044444D02*
X0020060Y0045235D01*
X0036060Y0045235D01*
X0059060Y0068235D01*
X0095060Y0068235D01*
X0098060Y0071235D01*
X0098060Y0075235D01*
X0091060Y0082235D01*
X0090808Y0082826D01*
X0090060Y0083235D01*
X0053060Y0083235D01*
X0025060Y0111235D01*
X0024666Y0111841D01*
X0024060Y0112235D01*
X0010060Y0112235D01*
X0010060Y0122235D02*
X0090060Y0122235D01*
X0090808Y0122826D01*
X0090060Y0132235D02*
X0090808Y0132826D01*
X0090060Y0132235D02*
X0010060Y0132235D01*
X0010060Y0142235D02*
X0016060Y0142235D01*
X0036060Y0162235D01*
X0090060Y0162235D01*
X0090808Y0162826D01*
X0090060Y0172235D02*
X0090808Y0172826D01*
X0090060Y0172235D02*
X0043060Y0172235D01*
X0023060Y0152235D01*
X0010060Y0152235D01*
X0027060Y0176235D02*
X0014060Y0189235D01*
X0014060Y0193235D01*
X0022060Y0201235D01*
X0034060Y0201235D01*
X0040060Y0207235D01*
X0050060Y0207235D02*
X0051060Y0206235D01*
X0041060Y0196235D01*
X0040729Y0196015D01*
X0040060Y0195235D01*
X0036060Y0191235D01*
X0019060Y0191235D01*
X0018560Y0191078D01*
X0027060Y0176235D02*
X0040060Y0176235D01*
X0040729Y0176015D01*
X0041060Y0176235D01*
X0085060Y0176235D01*
X0086060Y0177235D01*
X0115060Y0177235D01*
X0114060Y0176235D01*
X0114060Y0139235D01*
X0120060Y0133235D01*
X0120808Y0132826D01*
X0120060Y0132235D01*
X0112060Y0124235D01*
X0112060Y0082235D01*
X0093060Y0063235D01*
X0091060Y0063235D01*
X0090808Y0062826D01*
X0090060Y0063235D01*
X0084060Y0063235D01*
X0084060Y0037235D01*
X0086060Y0035235D01*
X0086619Y0034377D01*
X0086060Y0034235D01*
X0069060Y0034235D01*
X0068962Y0033936D01*
X0068060Y0033235D01*
X0067060Y0032235D01*
X0052060Y0032235D01*
X0051741Y0031349D01*
X0042060Y0032235D02*
X0041741Y0031349D01*
X0042060Y0032235D02*
X0042060Y0045235D01*
X0048060Y0051235D01*
X0048391Y0051629D01*
X0029060Y0064235D02*
X0036060Y0071235D01*
X0036186Y0071794D01*
X0029060Y0064235D02*
X0024060Y0064235D01*
X0023485Y0063928D01*
X0014060Y0064235D02*
X0013485Y0063928D01*
X0014060Y0064235D02*
X0014060Y0078235D01*
X0016060Y0080235D01*
X0046060Y0080235D01*
X0053060Y0073235D01*
X0090060Y0073235D01*
X0090808Y0072826D01*
X0084060Y0063235D02*
X0078060Y0063235D01*
X0078060Y0062538D01*
X0074627Y0087302D02*
X0075060Y0088235D01*
X0086060Y0088235D01*
X0090060Y0092235D01*
X0090808Y0092826D01*
X0090808Y0102826D02*
X0090060Y0103235D01*
X0087060Y0106235D01*
X0075060Y0106235D01*
X0074627Y0106302D01*
X0114060Y0106235D02*
X0114060Y0070235D01*
X0116060Y0068235D01*
X0124060Y0068235D01*
X0150060Y0042235D01*
X0164060Y0042235D01*
X0164969Y0041542D01*
X0170060Y0039235D02*
X0169694Y0038393D01*
X0170060Y0039235D02*
X0174060Y0043235D01*
X0174060Y0080235D01*
X0172060Y0082235D01*
X0158060Y0083235D02*
X0197060Y0122235D01*
X0197560Y0122235D01*
X0197560Y0112235D02*
X0197060Y0112235D01*
X0158060Y0073235D01*
X0121060Y0073235D01*
X0120808Y0072826D01*
X0120808Y0082826D02*
X0121060Y0083235D01*
X0158060Y0083235D01*
X0133091Y0102432D02*
X0133060Y0103235D01*
X0121060Y0103235D01*
X0120808Y0102826D01*
X0114060Y0106235D02*
X0120060Y0112235D01*
X0120808Y0112826D01*
X0121060Y0142235D02*
X0120808Y0142826D01*
X0121060Y0142235D02*
X0187060Y0142235D01*
X0197060Y0132235D01*
X0197560Y0132235D01*
X0197560Y0142235D02*
X0197060Y0142235D01*
X0187060Y0152235D01*
X0121060Y0152235D01*
X0120808Y0152826D01*
X0121060Y0162235D02*
X0120808Y0162826D01*
X0121060Y0162235D02*
X0187060Y0162235D01*
X0197060Y0152235D01*
X0197560Y0152235D01*
X0134060Y0182735D02*
X0134060Y0183235D01*
X0121060Y0183235D01*
X0120808Y0182826D01*
X0120060Y0182235D01*
X0115060Y0177235D01*
X0090808Y0182826D02*
X0090060Y0183235D01*
X0074060Y0183235D01*
X0051060Y0206235D01*
X0010060Y0102235D02*
X0016060Y0096235D01*
X0016060Y0080235D01*
X0086619Y0034377D02*
X0087060Y0034235D01*
X0109060Y0034235D01*
X0109166Y0034156D01*
X0102060Y0029235D02*
X0101666Y0029156D01*
X0102060Y0029235D02*
X0119060Y0029235D01*
X0121060Y0031235D01*
X0131060Y0031235D01*
X0131060Y0024235D01*
X0131084Y0024172D01*
X0131060Y0031235D02*
X0131060Y0042235D01*
X0121060Y0052235D01*
X0120808Y0052826D01*
X0138958Y0024172D02*
X0139060Y0024235D01*
X0141060Y0024235D01*
X0152060Y0035235D01*
X0164060Y0035235D01*
X0164969Y0035243D01*
D21*
X0172060Y0082235D03*
M02*
