G75*
%MOIN*%
%OFA0B0*%
%FSLAX25Y25*%
%IPPOS*%
%LPD*%
%AMOC8*
5,1,8,0,0,1.08239X$1,22.5*
%
%ADD10C,0.00000*%
%ADD11C,0.00500*%
D10*
X0005060Y0017235D02*
X0005060Y0214086D01*
X0201910Y0214086D01*
X0201910Y0017235D01*
X0005060Y0017235D01*
X0121241Y0024172D02*
X0121243Y0024260D01*
X0121249Y0024348D01*
X0121259Y0024436D01*
X0121273Y0024524D01*
X0121290Y0024610D01*
X0121312Y0024696D01*
X0121337Y0024780D01*
X0121367Y0024864D01*
X0121399Y0024946D01*
X0121436Y0025026D01*
X0121476Y0025105D01*
X0121520Y0025182D01*
X0121567Y0025257D01*
X0121617Y0025329D01*
X0121671Y0025400D01*
X0121727Y0025467D01*
X0121787Y0025533D01*
X0121849Y0025595D01*
X0121915Y0025655D01*
X0121982Y0025711D01*
X0122053Y0025765D01*
X0122125Y0025815D01*
X0122200Y0025862D01*
X0122277Y0025906D01*
X0122356Y0025946D01*
X0122436Y0025983D01*
X0122518Y0026015D01*
X0122602Y0026045D01*
X0122686Y0026070D01*
X0122772Y0026092D01*
X0122858Y0026109D01*
X0122946Y0026123D01*
X0123034Y0026133D01*
X0123122Y0026139D01*
X0123210Y0026141D01*
X0123298Y0026139D01*
X0123386Y0026133D01*
X0123474Y0026123D01*
X0123562Y0026109D01*
X0123648Y0026092D01*
X0123734Y0026070D01*
X0123818Y0026045D01*
X0123902Y0026015D01*
X0123984Y0025983D01*
X0124064Y0025946D01*
X0124143Y0025906D01*
X0124220Y0025862D01*
X0124295Y0025815D01*
X0124367Y0025765D01*
X0124438Y0025711D01*
X0124505Y0025655D01*
X0124571Y0025595D01*
X0124633Y0025533D01*
X0124693Y0025467D01*
X0124749Y0025400D01*
X0124803Y0025329D01*
X0124853Y0025257D01*
X0124900Y0025182D01*
X0124944Y0025105D01*
X0124984Y0025026D01*
X0125021Y0024946D01*
X0125053Y0024864D01*
X0125083Y0024780D01*
X0125108Y0024696D01*
X0125130Y0024610D01*
X0125147Y0024524D01*
X0125161Y0024436D01*
X0125171Y0024348D01*
X0125177Y0024260D01*
X0125179Y0024172D01*
X0125177Y0024084D01*
X0125171Y0023996D01*
X0125161Y0023908D01*
X0125147Y0023820D01*
X0125130Y0023734D01*
X0125108Y0023648D01*
X0125083Y0023564D01*
X0125053Y0023480D01*
X0125021Y0023398D01*
X0124984Y0023318D01*
X0124944Y0023239D01*
X0124900Y0023162D01*
X0124853Y0023087D01*
X0124803Y0023015D01*
X0124749Y0022944D01*
X0124693Y0022877D01*
X0124633Y0022811D01*
X0124571Y0022749D01*
X0124505Y0022689D01*
X0124438Y0022633D01*
X0124367Y0022579D01*
X0124295Y0022529D01*
X0124220Y0022482D01*
X0124143Y0022438D01*
X0124064Y0022398D01*
X0123984Y0022361D01*
X0123902Y0022329D01*
X0123818Y0022299D01*
X0123734Y0022274D01*
X0123648Y0022252D01*
X0123562Y0022235D01*
X0123474Y0022221D01*
X0123386Y0022211D01*
X0123298Y0022205D01*
X0123210Y0022203D01*
X0123122Y0022205D01*
X0123034Y0022211D01*
X0122946Y0022221D01*
X0122858Y0022235D01*
X0122772Y0022252D01*
X0122686Y0022274D01*
X0122602Y0022299D01*
X0122518Y0022329D01*
X0122436Y0022361D01*
X0122356Y0022398D01*
X0122277Y0022438D01*
X0122200Y0022482D01*
X0122125Y0022529D01*
X0122053Y0022579D01*
X0121982Y0022633D01*
X0121915Y0022689D01*
X0121849Y0022749D01*
X0121787Y0022811D01*
X0121727Y0022877D01*
X0121671Y0022944D01*
X0121617Y0023015D01*
X0121567Y0023087D01*
X0121520Y0023162D01*
X0121476Y0023239D01*
X0121436Y0023318D01*
X0121399Y0023398D01*
X0121367Y0023480D01*
X0121337Y0023564D01*
X0121312Y0023648D01*
X0121290Y0023734D01*
X0121273Y0023820D01*
X0121259Y0023908D01*
X0121249Y0023996D01*
X0121243Y0024084D01*
X0121241Y0024172D01*
X0152737Y0024172D02*
X0152739Y0024260D01*
X0152745Y0024348D01*
X0152755Y0024436D01*
X0152769Y0024524D01*
X0152786Y0024610D01*
X0152808Y0024696D01*
X0152833Y0024780D01*
X0152863Y0024864D01*
X0152895Y0024946D01*
X0152932Y0025026D01*
X0152972Y0025105D01*
X0153016Y0025182D01*
X0153063Y0025257D01*
X0153113Y0025329D01*
X0153167Y0025400D01*
X0153223Y0025467D01*
X0153283Y0025533D01*
X0153345Y0025595D01*
X0153411Y0025655D01*
X0153478Y0025711D01*
X0153549Y0025765D01*
X0153621Y0025815D01*
X0153696Y0025862D01*
X0153773Y0025906D01*
X0153852Y0025946D01*
X0153932Y0025983D01*
X0154014Y0026015D01*
X0154098Y0026045D01*
X0154182Y0026070D01*
X0154268Y0026092D01*
X0154354Y0026109D01*
X0154442Y0026123D01*
X0154530Y0026133D01*
X0154618Y0026139D01*
X0154706Y0026141D01*
X0154794Y0026139D01*
X0154882Y0026133D01*
X0154970Y0026123D01*
X0155058Y0026109D01*
X0155144Y0026092D01*
X0155230Y0026070D01*
X0155314Y0026045D01*
X0155398Y0026015D01*
X0155480Y0025983D01*
X0155560Y0025946D01*
X0155639Y0025906D01*
X0155716Y0025862D01*
X0155791Y0025815D01*
X0155863Y0025765D01*
X0155934Y0025711D01*
X0156001Y0025655D01*
X0156067Y0025595D01*
X0156129Y0025533D01*
X0156189Y0025467D01*
X0156245Y0025400D01*
X0156299Y0025329D01*
X0156349Y0025257D01*
X0156396Y0025182D01*
X0156440Y0025105D01*
X0156480Y0025026D01*
X0156517Y0024946D01*
X0156549Y0024864D01*
X0156579Y0024780D01*
X0156604Y0024696D01*
X0156626Y0024610D01*
X0156643Y0024524D01*
X0156657Y0024436D01*
X0156667Y0024348D01*
X0156673Y0024260D01*
X0156675Y0024172D01*
X0156673Y0024084D01*
X0156667Y0023996D01*
X0156657Y0023908D01*
X0156643Y0023820D01*
X0156626Y0023734D01*
X0156604Y0023648D01*
X0156579Y0023564D01*
X0156549Y0023480D01*
X0156517Y0023398D01*
X0156480Y0023318D01*
X0156440Y0023239D01*
X0156396Y0023162D01*
X0156349Y0023087D01*
X0156299Y0023015D01*
X0156245Y0022944D01*
X0156189Y0022877D01*
X0156129Y0022811D01*
X0156067Y0022749D01*
X0156001Y0022689D01*
X0155934Y0022633D01*
X0155863Y0022579D01*
X0155791Y0022529D01*
X0155716Y0022482D01*
X0155639Y0022438D01*
X0155560Y0022398D01*
X0155480Y0022361D01*
X0155398Y0022329D01*
X0155314Y0022299D01*
X0155230Y0022274D01*
X0155144Y0022252D01*
X0155058Y0022235D01*
X0154970Y0022221D01*
X0154882Y0022211D01*
X0154794Y0022205D01*
X0154706Y0022203D01*
X0154618Y0022205D01*
X0154530Y0022211D01*
X0154442Y0022221D01*
X0154354Y0022235D01*
X0154268Y0022252D01*
X0154182Y0022274D01*
X0154098Y0022299D01*
X0154014Y0022329D01*
X0153932Y0022361D01*
X0153852Y0022398D01*
X0153773Y0022438D01*
X0153696Y0022482D01*
X0153621Y0022529D01*
X0153549Y0022579D01*
X0153478Y0022633D01*
X0153411Y0022689D01*
X0153345Y0022749D01*
X0153283Y0022811D01*
X0153223Y0022877D01*
X0153167Y0022944D01*
X0153113Y0023015D01*
X0153063Y0023087D01*
X0153016Y0023162D01*
X0152972Y0023239D01*
X0152932Y0023318D01*
X0152895Y0023398D01*
X0152863Y0023480D01*
X0152833Y0023564D01*
X0152808Y0023648D01*
X0152786Y0023734D01*
X0152769Y0023820D01*
X0152755Y0023908D01*
X0152745Y0023996D01*
X0152739Y0024084D01*
X0152737Y0024172D01*
D11*
X0164379Y0026188D02*
X0199812Y0026188D01*
X0199812Y0056897D01*
X0164379Y0056897D01*
X0164379Y0026188D01*
X0178158Y0038590D02*
X0178158Y0044495D01*
X0197843Y0046464D01*
X0197843Y0049416D02*
X0180127Y0047448D01*
X0180127Y0055322D02*
X0197843Y0053353D01*
X0197843Y0049416D01*
X0197843Y0036621D02*
X0178158Y0038590D01*
X0182095Y0035637D02*
X0197843Y0033668D01*
X0197843Y0029731D01*
X0182095Y0027763D01*
M02*
